Playpen-Th18ShortFast.ufo
<glyph name="exclam" format="2">
	<unicode hex="0021"/>
	<advance width="272"/>
	<outline>
		<contour>
			<point x="127" y="173" type="curve" smooth="yes"/>
			<point x="138" y="173"/>
			<point x="143" y="177"/>
			<point x="145" y="185" type="curve" smooth="yes"/>
			<point x="312" y="700" type="line" smooth="yes"/>
			<point x="315" y="709"/>
			<point x="310" y="712"/>
			<point x="300" y="712" type="curve" smooth="yes"/>
			<point x="289" y="712"/>
			<point x="285" y="710"/>
			<point x="282" y="700" type="curve" smooth="yes"/>
			<point x="115" y="185" type="line" smooth="yes"/>
			<point x="112" y="176"/>
			<point x="116" y="173"/>
		</contour>
		<contour>
			<point x="72" y="-11" type="curve" smooth="yes"/>
			<point x="96" y="-11"/>
			<point x="113" y="9"/>
			<point x="114" y="37" type="curve" smooth="yes"/>
			<point x="114" y="52"/>
			<point x="103" y="61"/>
			<point x="85" y="61" type="curve" smooth="yes"/>
			<point x="61" y="61"/>
			<point x="44" y="41"/>
			<point x="43" y="13" type="curve" smooth="yes"/>
			<point x="43" y="-2"/>
			<point x="54" y="-11"/>
		</contour>
	</outline>
</glyph>
<glyph name="numbersign" format="2">
  <advance width="740"/>
  <unicode hex="0023"/>
  <outline>
    <contour>
      <point x="141" y="-15" type="curve" smooth="yes"/>
      <point x="151" y="-18"/>
      <point x="160" y="-15"/>
      <point x="163" y="-6" type="curve" smooth="yes"/>
      <point x="427" y="700" type="line" smooth="yes"/>
      <point x="430" y="708"/>
      <point x="426" y="712"/>
      <point x="418" y="715" type="curve" smooth="yes"/>
      <point x="408" y="718"/>
      <point x="401" y="715"/>
      <point x="398" y="706" type="curve" smooth="yes"/>
      <point x="134" y="0" type="line" smooth="yes"/>
      <point x="131" y="-8"/>
      <point x="132" y="-12"/>
    </contour>
    <contour>
      <point x="46" y="201" type="curve" smooth="yes"/>
      <point x="672" y="201" type="line" smooth="yes"/>
      <point x="681" y="201"/>
      <point x="685" y="205"/>
      <point x="688" y="214" type="curve" smooth="yes"/>
      <point x="691" y="224"/>
      <point x="689" y="229"/>
      <point x="680" y="229" type="curve" smooth="yes"/>
      <point x="54" y="229" type="line" smooth="yes"/>
      <point x="45" y="229"/>
      <point x="41" y="224"/>
      <point x="38" y="214" type="curve" smooth="yes"/>
      <point x="35" y="205"/>
      <point x="37" y="201"/>
    </contour>
    <contour>
      <point x="158" y="472" type="curve" smooth="yes"/>
      <point x="784" y="472" type="line" smooth="yes"/>
      <point x="793" y="472"/>
      <point x="798" y="476"/>
      <point x="800" y="485" type="curve" smooth="yes"/>
      <point x="803" y="495"/>
      <point x="802" y="500"/>
      <point x="793" y="500" type="curve" smooth="yes"/>
      <point x="167" y="500" type="line" smooth="yes"/>
      <point x="158" y="500"/>
      <point x="153" y="495"/>
      <point x="150" y="485" type="curve" smooth="yes"/>
      <point x="148" y="476"/>
      <point x="149" y="472"/>
    </contour>
    <contour>
      <point x="416" y="-15" type="curve" smooth="yes"/>
      <point x="426" y="-18"/>
      <point x="435" y="-15"/>
      <point x="438" y="-6" type="curve" smooth="yes"/>
      <point x="702" y="700" type="line" smooth="yes"/>
      <point x="705" y="708"/>
      <point x="701" y="712"/>
      <point x="693" y="715" type="curve" smooth="yes"/>
      <point x="683" y="718"/>
      <point x="676" y="715"/>
      <point x="673" y="706" type="curve" smooth="yes"/>
      <point x="409" y="0" type="line" smooth="yes"/>
      <point x="406" y="-8"/>
      <point x="407" y="-12"/>
    </contour>
  </outline>
</glyph>
<glyph name="dollar" format="2">
  <advance width="534"/>
  <unicode hex="0024"/>
  <outline>
    <contour>
      <point x="233" y="-15" type="curve" smooth="yes"/>
      <point x="366" y="-15"/>
      <point x="474" y="73"/>
      <point x="474" y="196" type="curve" smooth="yes"/>
      <point x="474" y="297"/>
      <point x="395" y="333"/>
      <point x="321" y="377" type="curve" smooth="yes"/>
      <point x="244" y="423"/>
      <point x="195" y="454"/>
      <point x="195" y="530" type="curve" smooth="yes"/>
      <point x="195" y="622"/>
      <point x="271" y="682"/>
      <point x="367" y="682" type="curve" smooth="yes"/>
      <point x="446" y="682"/>
      <point x="493" y="649"/>
      <point x="532" y="609" type="curve" smooth="yes"/>
      <point x="540" y="601"/>
      <point x="547" y="600"/>
      <point x="553" y="605" type="curve" smooth="yes"/>
      <point x="560" y="611"/>
      <point x="563" y="616"/>
      <point x="556" y="625" type="curve" smooth="yes"/>
      <point x="513" y="675"/>
      <point x="455" y="712"/>
      <point x="370" y="712" type="curve" smooth="yes"/>
      <point x="253" y="712"/>
      <point x="163" y="640"/>
      <point x="163" y="529" type="curve" smooth="yes"/>
      <point x="163" y="432"/>
      <point x="231" y="393"/>
      <point x="301" y="354" type="curve" smooth="yes"/>
      <point x="390" y="304"/>
      <point x="442" y="272"/>
      <point x="442" y="194" type="curve" smooth="yes"/>
      <point x="442" y="88"/>
      <point x="352" y="15"/>
      <point x="233" y="15" type="curve" smooth="yes"/>
      <point x="142" y="15"/>
      <point x="76" y="61"/>
      <point x="45" y="104" type="curve" smooth="yes"/>
      <point x="42" y="108"/>
      <point x="37" y="114"/>
      <point x="26" y="106" type="curve" smooth="yes"/>
      <point x="17" y="100"/>
      <point x="18" y="94"/>
      <point x="22" y="87" type="curve" smooth="yes"/>
      <point x="44" y="52"/>
      <point x="115" y="-15"/>
    </contour>
    <contour>
      <point x="156" y="-101" type="curve" smooth="yes"/>
      <point x="167" y="-101"/>
      <point x="172" y="-98"/>
      <point x="175" y="-89" type="curve" smooth="yes"/>
      <point x="463" y="797" type="line" smooth="yes"/>
      <point x="466" y="806"/>
      <point x="462" y="809"/>
      <point x="452" y="809" type="curve" smooth="yes"/>
      <point x="441" y="809"/>
      <point x="436" y="806"/>
      <point x="433" y="797" type="curve" smooth="yes"/>
      <point x="145" y="-89" type="line" smooth="yes"/>
      <point x="142" y="-98"/>
      <point x="145" y="-101"/>
    </contour>
  </outline>
</glyph>
<glyph name="percent" format="2">
  <advance width="660"/>
  <unicode hex="0025"/>
  <outline>
    <contour>
      <point x="231" y="410" type="curve" smooth="yes"/>
      <point x="347" y="410"/>
      <point x="400" y="535"/>
      <point x="400" y="611" type="curve" smooth="yes"/>
      <point x="400" y="671"/>
      <point x="366" y="712"/>
      <point x="306" y="712" type="curve" smooth="yes"/>
      <point x="192" y="712"/>
      <point x="135" y="597"/>
      <point x="135" y="515" type="curve" smooth="yes"/>
      <point x="135" y="453"/>
      <point x="169" y="410"/>
    </contour>
    <contour>
      <point x="234" y="437" type="curve" smooth="yes"/>
      <point x="190" y="437"/>
      <point x="165" y="468"/>
      <point x="165" y="516" type="curve" smooth="yes"/>
      <point x="165" y="583"/>
      <point x="214" y="685"/>
      <point x="301" y="685" type="curve" smooth="yes"/>
      <point x="345" y="685"/>
      <point x="369" y="655"/>
      <point x="369" y="609" type="curve" smooth="yes"/>
      <point x="369" y="542"/>
      <point x="324" y="437"/>
    </contour>
    <contour>
      <point x="62" y="-10" type="curve"/>
      <point x="699" y="689" type="line" smooth="yes"/>
      <point x="704" y="695"/>
      <point x="703" y="703"/>
      <point x="698" y="708" type="curve"/>
      <point x="690" y="714"/>
      <point x="684" y="713"/>
      <point x="678" y="706" type="curve"/>
      <point x="41" y="7" type="line" smooth="yes"/>
      <point x="34" y="0"/>
      <point x="35" y="-7"/>
      <point x="42" y="-12" type="curve" smooth="yes"/>
      <point x="49" y="-18"/>
      <point x="55" y="-17"/>
    </contour>
    <contour>
      <point x="444" y="-15" type="curve" smooth="yes"/>
      <point x="560" y="-15"/>
      <point x="613" y="110"/>
      <point x="613" y="186" type="curve" smooth="yes"/>
      <point x="613" y="246"/>
      <point x="579" y="287"/>
      <point x="519" y="287" type="curve" smooth="yes"/>
      <point x="405" y="287"/>
      <point x="348" y="172"/>
      <point x="348" y="90" type="curve" smooth="yes"/>
      <point x="348" y="28"/>
      <point x="382" y="-15"/>
    </contour>
    <contour>
      <point x="447" y="12" type="curve" smooth="yes"/>
      <point x="403" y="12"/>
      <point x="378" y="43"/>
      <point x="378" y="91" type="curve" smooth="yes"/>
      <point x="378" y="158"/>
      <point x="427" y="260"/>
      <point x="514" y="260" type="curve" smooth="yes"/>
      <point x="558" y="260"/>
      <point x="582" y="230"/>
      <point x="582" y="184" type="curve" smooth="yes"/>
      <point x="582" y="117"/>
      <point x="537" y="12"/>
    </contour>
  </outline>
</glyph>
<glyph name="ampersand" format="2">
  <advance width="853"/>
  <unicode hex="0026"/>
  <outline>
    <contour>
      <point x="94" y="205" type="curve" smooth="yes"/>
      <point x="94" y="79"/>
      <point x="171" y="-19"/>
      <point x="304" y="-19" type="curve" smooth="yes"/>
      <point x="498" y="-19"/>
      <point x="689" y="164"/>
      <point x="780" y="446" type="curve" smooth="yes"/>
      <point x="784" y="458"/>
      <point x="780" y="461"/>
      <point x="766" y="461" type="curve" smooth="yes"/>
      <point x="753" y="461"/>
      <point x="746" y="458"/>
      <point x="743" y="446" type="curve" smooth="yes"/>
      <point x="658" y="186"/>
      <point x="476" y="19"/>
      <point x="308" y="19" type="curve" smooth="yes"/>
      <point x="196" y="19"/>
      <point x="134" y="94"/>
      <point x="134" y="205" type="curve" smooth="yes"/>
      <point x="134" y="530"/>
      <point x="689" y="451"/>
      <point x="689" y="740" type="curve" smooth="yes"/>
      <point x="689" y="834"/>
      <point x="616" y="890"/>
      <point x="525" y="890" type="curve" smooth="yes"/>
      <point x="384" y="890"/>
      <point x="298" y="778"/>
      <point x="298" y="661" type="curve" smooth="yes"/>
      <point x="298" y="581"/>
      <point x="330" y="518"/>
      <point x="369" y="458" type="curve" smooth="yes"/>
      <point x="670" y="-9" type="line" smooth="yes"/>
      <point x="675" y="-17"/>
      <point x="680" y="-20"/>
      <point x="693" y="-12" type="curve" smooth="yes"/>
      <point x="705" y="-5"/>
      <point x="705" y="4"/>
      <point x="700" y="13" type="curve" smooth="yes"/>
      <point x="399" y="479" type="line" smooth="yes"/>
      <point x="365" y="531"/>
      <point x="338" y="590"/>
      <point x="338" y="663" type="curve" smooth="yes"/>
      <point x="338" y="765"/>
      <point x="403" y="853"/>
      <point x="520" y="853" type="curve" smooth="yes"/>
      <point x="596" y="853"/>
      <point x="649" y="808"/>
      <point x="649" y="739" type="curve" smooth="yes"/>
      <point x="649" y="478"/>
      <point x="94" y="558"/>
    </contour>
  </outline>
</glyph>
<glyph name="parenright" format="2">
	<unicode hex="0029"/>
	<advance width="229"/>
	<outline>
		<contour>
			<point x="-23" y="-43" type="curve" smooth="yes"/>
			<point x="-30" y="-52"/>
			<point x="-30" y="-56"/>
			<point x="-21" y="-60" type="curve"/>
			<point x="-13" y="-64"/>
			<point x="-9" y="-63"/>
			<point x="-3" y="-55" type="curve" smooth="yes"/>
			<point x="153" y="150"/>
			<point x="255" y="365"/>
			<point x="255" y="609" type="curve" smooth="yes"/>
			<point x="255" y="654"/>
			<point x="253" y="709"/>
			<point x="245" y="755" type="curve" smooth="yes"/>
			<point x="244" y="761"/>
			<point x="239" y="762"/>
			<point x="229" y="760" type="curve" smooth="yes"/>
			<point x="219" y="758"/>
			<point x="215" y="755"/>
			<point x="217" y="743" type="curve" smooth="yes"/>
			<point x="223" y="703"/>
			<point x="226" y="652"/>
			<point x="226" y="611" type="curve" smooth="yes"/>
			<point x="226" y="376"/>
			<point x="128" y="157"/>
		</contour>
	</outline>
</glyph>
<glyph name="asterisk" format="2">
  <advance width="358"/>
  <unicode hex="002A"/>
  <outline>
    <contour>
      <point x="270" y="519" type="curve" smooth="yes"/>
      <point x="283" y="518"/>
      <point x="288" y="523"/>
      <point x="291" y="534" type="curve" smooth="yes"/>
      <point x="395" y="876" type="line" smooth="yes"/>
      <point x="398" y="886"/>
      <point x="395" y="893"/>
      <point x="383" y="894" type="curve" smooth="yes"/>
      <point x="370" y="895"/>
      <point x="364" y="888"/>
      <point x="361" y="879" type="curve" smooth="yes"/>
      <point x="258" y="540" type="line" smooth="yes"/>
      <point x="254" y="526"/>
      <point x="258" y="520"/>
    </contour>
    <contour>
      <point x="136" y="661" type="curve" smooth="yes"/>
      <point x="140" y="646"/>
      <point x="148" y="646"/>
      <point x="161" y="650" type="curve" smooth="yes"/>
      <point x="500" y="730" type="line" smooth="yes"/>
      <point x="513" y="733"/>
      <point x="519" y="738"/>
      <point x="516" y="750" type="curve" smooth="yes"/>
      <point x="513" y="766"/>
      <point x="506" y="765"/>
      <point x="494" y="763" type="curve" smooth="yes"/>
      <point x="151" y="683" type="line" smooth="yes"/>
      <point x="138" y="679"/>
      <point x="133" y="674"/>
    </contour>
    <contour>
      <point x="460" y="564" type="curve" smooth="yes"/>
      <point x="471" y="575"/>
      <point x="468" y="581"/>
      <point x="459" y="590" type="curve" smooth="yes"/>
      <point x="215" y="849" type="line" smooth="yes"/>
      <point x="208" y="856"/>
      <point x="201" y="858"/>
      <point x="193" y="849" type="curve" smooth="yes"/>
      <point x="181" y="838"/>
      <point x="188" y="829"/>
      <point x="193" y="824" type="curve" smooth="yes"/>
      <point x="434" y="568" type="line" smooth="yes"/>
      <point x="443" y="559"/>
      <point x="449" y="553"/>
    </contour>
  </outline>
</glyph>
<glyph name="comma" format="2">
	<unicode hex="002C"/>
	<advance width="250"/>
	<outline>
		<contour>
			<point x="-6" y="-130" type="curve" smooth="yes"/>
			<point x="0" y="-130"/>
			<point x="7" y="-124"/>
			<point x="14" y="-118" type="curve" smooth="yes"/>
			<point x="74" y="-59"/>
			<point x="95" y="12"/>
			<point x="95" y="40" type="curve" smooth="yes"/>
			<point x="95" y="51"/>
			<point x="89" y="57"/>
			<point x="73" y="57" type="curve" smooth="yes"/>
			<point x="57" y="57"/>
			<point x="49" y="50"/>
			<point x="46" y="37" type="curve" smooth="yes"/>
			<point x="32" y="-31"/>
			<point x="16" y="-60"/>
			<point x="-18" y="-102" type="curve" smooth="yes"/>
			<point x="-22" y="-107"/>
			<point x="-24" y="-110"/>
			<point x="-24" y="-113" type="curve" smooth="yes"/>
			<point x="-24" y="-120"/>
			<point x="-13" y="-130"/>
		</contour>
	</outline>
</glyph>
<glyph name="slash" format="2">
	<unicode hex="002F"/>
	<advance width="258"/>
	<outline>
		<contour>
			<point x="-54" y="-60" type="curve"/>
			<point x="-44" y="-63"/>
			<point x="-39" y="-61"/>
			<point x="-34" y="-52" type="curve" smooth="yes"/>
			<point x="417" y="745" type="line"/>
			<point x="421" y="753"/>
			<point x="418" y="757"/>
			<point x="410" y="760" type="curve"/>
			<point x="400" y="763"/>
			<point x="395" y="761"/>
			<point x="390" y="752" type="curve" smooth="yes"/>
			<point x="-61" y="-45" type="line"/>
			<point x="-65" y="-53"/>
			<point x="-63" y="-57"/>
		</contour>
	</outline>
</glyph>
<glyph name="zero" format="2">
	<unicode hex="0030"/>
	<advance width="610"/>
	<outline>
		<contour>
			<point x="253" y="-15" type="curve" smooth="yes"/>
			<point x="493" y="-15"/>
			<point x="625" y="287"/>
			<point x="625" y="502" type="curve" smooth="yes"/>
			<point x="625" y="647"/>
			<point x="555" y="712"/>
			<point x="455" y="712" type="curve" smooth="yes"/>
			<point x="215" y="712"/>
			<point x="81" y="410"/>
			<point x="81" y="195" type="curve" smooth="yes"/>
			<point x="81" y="50"/>
			<point x="153" y="-15"/>
		</contour>
		<contour>
			<point x="262" y="15" type="curve" smooth="yes"/>
			<point x="177" y="15"/>
			<point x="114" y="59"/>
			<point x="114" y="200" type="curve" smooth="yes"/>
			<point x="114" y="395"/>
			<point x="246" y="682"/>
			<point x="446" y="682" type="curve" smooth="yes"/>
			<point x="531" y="682"/>
			<point x="592" y="637"/>
			<point x="592" y="497" type="curve" smooth="yes"/>
			<point x="592" y="302"/>
			<point x="462" y="15"/>
		</contour>
	</outline>
</glyph>
<glyph name="one" format="2">
	<unicode hex="0031"/>
	<advance width="360"/>
	<outline>
		<contour>
			<point x="131" y="-11" type="curve" smooth="yes"/>
			<point x="142" y="-11"/>
			<point x="146" y="-8"/>
			<point x="149" y="1" type="curve" smooth="yes"/>
			<point x="374" y="697" type="line" smooth="yes"/>
			<point x="377" y="708"/>
			<point x="372" y="712"/>
			<point x="361" y="712" type="curve" smooth="yes"/>
			<point x="352" y="712"/>
			<point x="347" y="710"/>
			<point x="334" y="700" type="curve" smooth="yes"/>
			<point x="281" y="657"/>
			<point x="214" y="614"/>
			<point x="160" y="587" type="curve" smooth="yes"/>
			<point x="150" y="582"/>
			<point x="146" y="577"/>
			<point x="150" y="568" type="curve" smooth="yes"/>
			<point x="154" y="559"/>
			<point x="163" y="558"/>
			<point x="174" y="564" type="curve" smooth="yes"/>
			<point x="217" y="585"/>
			<point x="278" y="623"/>
			<point x="333" y="664" type="curve"/>
			<point x="119" y="4" type="line" smooth="yes"/>
			<point x="116" y="-5"/>
			<point x="120" y="-11"/>
		</contour>
	</outline>
</glyph>
<glyph name="two" format="2">
  <advance width="530"/>
  <unicode hex="0032"/>
  <outline>
    <contour>
      <point x="1" y="0" type="curve" smooth="yes"/>
      <point x="395" y="0" type="line" smooth="yes"/>
      <point x="400" y="0"/>
      <point x="408" y="3"/>
      <point x="410" y="13" type="curve" smooth="yes"/>
      <point x="412" y="24"/>
      <point x="408" y="28"/>
      <point x="400" y="28" type="curve" smooth="yes"/>
      <point x="46" y="28" type="line"/>
      <point x="171" y="128" type="line" smooth="yes"/>
      <point x="491" y="384"/>
      <point x="577" y="466"/>
      <point x="577" y="570" type="curve" smooth="yes"/>
      <point x="577" y="662"/>
      <point x="509" y="712"/>
      <point x="412" y="712" type="curve" smooth="yes"/>
      <point x="328" y="712"/>
      <point x="258" y="675"/>
      <point x="206" y="624" type="curve" smooth="yes"/>
      <point x="197" y="615"/>
      <point x="195" y="608"/>
      <point x="203" y="600" type="curve" smooth="yes"/>
      <point x="210" y="593"/>
      <point x="216" y="593"/>
      <point x="227" y="603" type="curve" smooth="yes"/>
      <point x="280" y="651"/>
      <point x="332" y="682"/>
      <point x="409" y="682" type="curve" smooth="yes"/>
      <point x="493" y="682"/>
      <point x="545" y="643"/>
      <point x="545" y="567" type="curve" smooth="yes"/>
      <point x="545" y="476"/>
      <point x="479" y="414"/>
      <point x="157" y="152" type="curve" smooth="yes"/>
      <point x="-4" y="21" type="line" smooth="yes"/>
      <point x="-12" y="14"/>
      <point x="-12" y="0"/>
    </contour>
  </outline>
</glyph>
<glyph name="three" format="2">
  <advance width="530"/>
  <unicode hex="0033"/>
  <outline>
    <contour>
      <point x="224" y="-15" type="curve" smooth="yes"/>
      <point x="370" y="-15"/>
      <point x="474" y="98"/>
      <point x="474" y="232" type="curve" smooth="yes"/>
      <point x="474" y="300"/>
      <point x="431" y="356"/>
      <point x="367" y="374" type="curve"/>
      <point x="487" y="398"/>
      <point x="549" y="473"/>
      <point x="549" y="571" type="curve" smooth="yes"/>
      <point x="549" y="665"/>
      <point x="474" y="712"/>
      <point x="391" y="712" type="curve" smooth="yes"/>
      <point x="325" y="712"/>
      <point x="251" y="681"/>
      <point x="199" y="629" type="curve" smooth="yes"/>
      <point x="187" y="617"/>
      <point x="187" y="613"/>
      <point x="195" y="605" type="curve" smooth="yes"/>
      <point x="201" y="599"/>
      <point x="206" y="595"/>
      <point x="218" y="607" type="curve" smooth="yes"/>
      <point x="273" y="660"/>
      <point x="328" y="683"/>
      <point x="390" y="683" type="curve" smooth="yes"/>
      <point x="458" y="683"/>
      <point x="516" y="647"/>
      <point x="516" y="569" type="curve" smooth="yes"/>
      <point x="516" y="454"/>
      <point x="426" y="391"/>
      <point x="306" y="391" type="curve" smooth="yes"/>
      <point x="251" y="391" type="line" smooth="yes"/>
      <point x="246" y="391"/>
      <point x="240" y="387"/>
      <point x="237" y="377" type="curve" smooth="yes"/>
      <point x="234" y="367"/>
      <point x="237" y="363"/>
      <point x="242" y="363" type="curve" smooth="yes"/>
      <point x="294" y="363" type="line" smooth="yes"/>
      <point x="388" y="363"/>
      <point x="440" y="309"/>
      <point x="440" y="227" type="curve" smooth="yes"/>
      <point x="440" y="114"/>
      <point x="350" y="15"/>
      <point x="227" y="15" type="curve" smooth="yes"/>
      <point x="137" y="15"/>
      <point x="79" y="65"/>
      <point x="56" y="143" type="curve" smooth="yes"/>
      <point x="53" y="153"/>
      <point x="50" y="158"/>
      <point x="37" y="154" type="curve" smooth="yes"/>
      <point x="27" y="151"/>
      <point x="25" y="145"/>
      <point x="28" y="133" type="curve" smooth="yes"/>
      <point x="50" y="45"/>
      <point x="128" y="-15"/>
    </contour>
  </outline>
</glyph>
<glyph name="four" format="2">
	<unicode hex="0034"/>
	<advance width="540"/>
	<outline>
		<contour>
			<point x="53" y="196" type="curve" smooth="yes"/>
			<point x="498" y="196" type="line" smooth="yes"/>
			<point x="507" y="196"/>
			<point x="511" y="199"/>
			<point x="514" y="210" type="curve" smooth="yes"/>
			<point x="517" y="221"/>
			<point x="515" y="224"/>
			<point x="506" y="224" type="curve" smooth="yes"/>
			<point x="90" y="224" type="line"/>
			<point x="494" y="691" type="line" smooth="yes"/>
			<point x="503" y="702"/>
			<point x="500" y="706"/>
			<point x="490" y="712" type="curve" smooth="yes"/>
			<point x="478" y="719"/>
			<point x="473" y="712"/>
			<point x="462" y="700" type="curve" smooth="yes"/>
			<point x="48" y="217" type="line" smooth="yes"/>
			<point x="36" y="203"/>
			<point x="42" y="196"/>
		</contour>
		<contour>
			<point x="333" y="-11" type="curve" smooth="yes"/>
			<point x="344" y="-11"/>
			<point x="349" y="-8"/>
			<point x="352" y="1" type="curve" smooth="yes"/>
			<point x="514" y="500" type="line" smooth="yes"/>
			<point x="517" y="509"/>
			<point x="513" y="512"/>
			<point x="502" y="512" type="curve" smooth="yes"/>
			<point x="491" y="512"/>
			<point x="486" y="509"/>
			<point x="483" y="500" type="curve" smooth="yes"/>
			<point x="321" y="1" type="line" smooth="yes"/>
			<point x="318" y="-8"/>
			<point x="322" y="-11"/>
		</contour>
	</outline>
</glyph>
<glyph name="five" format="2">
  <advance width="663"/>
  <unicode hex="0035"/>
  <outline>
    <contour>
      <point x="291" y="-19" type="curve" smooth="yes"/>
      <point x="461" y="-19"/>
      <point x="616" y="108"/>
      <point x="616" y="330" type="curve" smooth="yes"/>
      <point x="616" y="441"/>
      <point x="550" y="540"/>
      <point x="418" y="540" type="curve" smooth="yes"/>
      <point x="348" y="540"/>
      <point x="263" y="505"/>
      <point x="211" y="458" type="curve"/>
      <point x="344" y="840" type="line"/>
      <point x="719" y="840" type="line" smooth="yes"/>
      <point x="725" y="840"/>
      <point x="734" y="844"/>
      <point x="738" y="856" type="curve" smooth="yes"/>
      <point x="741" y="869"/>
      <point x="736" y="875"/>
      <point x="730" y="875" type="curve" smooth="yes"/>
      <point x="336" y="875" type="line" smooth="yes"/>
      <point x="323" y="875"/>
      <point x="316" y="871"/>
      <point x="313" y="860" type="curve" smooth="yes"/>
      <point x="156" y="408" type="line" smooth="yes"/>
      <point x="151" y="394"/>
      <point x="174" y="383"/>
      <point x="188" y="395" type="curve" smooth="yes"/>
      <point x="253" y="456"/>
      <point x="326" y="504"/>
      <point x="411" y="504" type="curve" smooth="yes"/>
      <point x="519" y="504"/>
      <point x="576" y="426"/>
      <point x="576" y="323" type="curve" smooth="yes"/>
      <point x="576" y="138"/>
      <point x="448" y="19"/>
      <point x="298" y="19" type="curve" smooth="yes"/>
      <point x="183" y="19"/>
      <point x="110" y="76"/>
      <point x="74" y="181" type="curve" smooth="yes"/>
      <point x="70" y="193"/>
      <point x="64" y="199"/>
      <point x="49" y="193" type="curve" smooth="yes"/>
      <point x="35" y="186"/>
      <point x="34" y="178"/>
      <point x="39" y="163" type="curve" smooth="yes"/>
      <point x="76" y="41"/>
      <point x="178" y="-19"/>
    </contour>
  </outline>
</glyph>
<glyph name="six" format="2">
  <advance width="570"/>
  <unicode hex="0036"/>
  <outline>
    <contour>
      <point x="282" y="-15" type="curve" smooth="yes"/>
      <point x="422" y="-15"/>
      <point x="533" y="101"/>
      <point x="533" y="262" type="curve" smooth="yes"/>
      <point x="533" y="356"/>
      <point x="466" y="422"/>
      <point x="377" y="422" type="curve" smooth="yes"/>
      <point x="281" y="422"/>
      <point x="184" y="344"/>
      <point x="127" y="248" type="curve"/>
      <point x="128" y="206" type="line"/>
      <point x="173" y="283"/>
      <point x="272" y="395"/>
      <point x="373" y="393" type="curve" smooth="yes"/>
      <point x="446" y="391"/>
      <point x="500" y="344"/>
      <point x="500" y="255" type="curve" smooth="yes"/>
      <point x="500" y="125"/>
      <point x="410" y="15"/>
      <point x="282" y="15" type="curve" smooth="yes"/>
      <point x="200" y="15"/>
      <point x="135" y="66"/>
      <point x="135" y="201" type="curve" smooth="yes"/>
      <point x="135" y="465"/>
      <point x="322" y="657"/>
      <point x="568" y="686" type="curve" smooth="yes"/>
      <point x="579" y="687"/>
      <point x="584" y="690"/>
      <point x="583" y="701" type="curve" smooth="yes"/>
      <point x="582" y="714"/>
      <point x="577" y="713"/>
      <point x="561" y="711" type="curve" smooth="yes"/>
      <point x="297" y="681"/>
      <point x="102" y="468"/>
      <point x="104" y="200" type="curve" smooth="yes"/>
      <point x="105" y="58"/>
      <point x="172" y="-15"/>
    </contour>
  </outline>
</glyph>
<glyph name="seven" format="2">
  <advance width="538"/>
  <unicode hex="0037"/>
  <outline>
    <contour>
      <point x="58" y="-14" type="curve" smooth="yes"/>
      <point x="70" y="-14"/>
      <point x="78" y="-9"/>
      <point x="89" y="6" type="curve" smooth="yes"/>
      <point x="691" y="856" type="line" smooth="yes"/>
      <point x="700" y="869"/>
      <point x="691" y="875"/>
      <point x="683" y="875" type="curve" smooth="yes"/>
      <point x="214" y="875" type="line" smooth="yes"/>
      <point x="208" y="875"/>
      <point x="199" y="871"/>
      <point x="195" y="859" type="curve" smooth="yes"/>
      <point x="191" y="846"/>
      <point x="196" y="840"/>
      <point x="203" y="840" type="curve" smooth="yes"/>
      <point x="631" y="840" type="line"/>
      <point x="49" y="20" type="line" smooth="yes"/>
      <point x="34" y="-1"/>
      <point x="36" y="-14"/>
    </contour>
  </outline>
</glyph>
<glyph name="eight" format="2">
  <advance width="530"/>
  <unicode hex="0038"/>
  <outline>
    <contour>
      <point x="217" y="-15" type="curve" smooth="yes"/>
      <point x="357" y="-15"/>
      <point x="474" y="59"/>
      <point x="474" y="201" type="curve" smooth="yes"/>
      <point x="474" y="277"/>
      <point x="416" y="331"/>
      <point x="351" y="376" type="curve"/>
      <point x="457" y="419"/>
      <point x="561" y="478"/>
      <point x="561" y="580" type="curve" smooth="yes"/>
      <point x="561" y="665"/>
      <point x="488" y="712"/>
      <point x="395" y="712" type="curve" smooth="yes"/>
      <point x="268" y="712"/>
      <point x="179" y="647"/>
      <point x="179" y="536" type="curve" smooth="yes"/>
      <point x="179" y="481"/>
      <point x="213" y="429"/>
      <point x="288" y="380" type="curve"/>
      <point x="154" y="330"/>
      <point x="32" y="260"/>
      <point x="32" y="134" type="curve" smooth="yes"/>
      <point x="32" y="49"/>
      <point x="104" y="-15"/>
    </contour>
    <contour>
      <point x="226" y="15" type="curve" smooth="yes"/>
      <point x="125" y="15"/>
      <point x="65" y="64"/>
      <point x="65" y="134" type="curve" smooth="yes"/>
      <point x="65" y="252"/>
      <point x="181" y="312"/>
      <point x="317" y="361" type="curve"/>
      <point x="394" y="312"/>
      <point x="441" y="269"/>
      <point x="441" y="199" type="curve" smooth="yes"/>
      <point x="441" y="80"/>
      <point x="341" y="15"/>
    </contour>
    <contour>
      <point x="323" y="393" type="curve"/>
      <point x="259" y="434"/>
      <point x="211" y="474"/>
      <point x="211" y="538" type="curve" smooth="yes"/>
      <point x="211" y="635"/>
      <point x="290" y="683"/>
      <point x="387" y="683" type="curve" smooth="yes"/>
      <point x="470" y="683"/>
      <point x="529" y="649"/>
      <point x="529" y="578" type="curve" smooth="yes"/>
      <point x="529" y="490"/>
      <point x="436" y="437"/>
    </contour>
  </outline>
</glyph>
<glyph name="less" format="2">
  <advance width="763"/>
  <unicode hex="003C"/>
  <outline>
    <contour>
      <point x="618" y="179" type="line" smooth="yes"/>
      <point x="628" y="174"/>
      <point x="636" y="175"/>
      <point x="643" y="186" type="curve" smooth="yes"/>
      <point x="649" y="196"/>
      <point x="644" y="205"/>
      <point x="636" y="209" type="curve" smooth="yes"/>
      <point x="206" y="433" type="line"/>
      <point x="796" y="661" type="line" smooth="yes"/>
      <point x="809" y="666"/>
      <point x="810" y="673"/>
      <point x="806" y="685" type="curve" smooth="yes"/>
      <point x="803" y="698"/>
      <point x="798" y="699"/>
      <point x="785" y="694" type="curve" smooth="yes"/>
      <point x="203" y="468" type="line" smooth="yes"/>
      <point x="178" y="458"/>
      <point x="168" y="454"/>
      <point x="161" y="436" type="curve" smooth="yes"/>
      <point x="156" y="420"/>
      <point x="163" y="415"/>
      <point x="183" y="405" type="curve" smooth="yes"/>
    </contour>
  </outline>
</glyph>
<glyph name="greater" format="2">
	<unicode hex="003E"/>
	<advance width="610"/>
	<outline>
		<contour>
			<point x="78" y="143" type="curve" smooth="yes"/>
			<point x="544" y="324" type="line" smooth="yes"/>
			<point x="564" y="332"/>
			<point x="572" y="335"/>
			<point x="577" y="349" type="curve" smooth="yes"/>
			<point x="581" y="362"/>
			<point x="576" y="366"/>
			<point x="560" y="374" type="curve" smooth="yes"/>
			<point x="212" y="555" type="line" smooth="yes"/>
			<point x="204" y="559"/>
			<point x="197" y="558"/>
			<point x="192" y="549" type="curve" smooth="yes"/>
			<point x="187" y="541"/>
			<point x="191" y="534"/>
			<point x="197" y="531" type="curve" smooth="yes"/>
			<point x="541" y="352" type="line"/>
			<point x="69" y="169" type="line" smooth="yes"/>
			<point x="59" y="165"/>
			<point x="58" y="160"/>
			<point x="61" y="150" type="curve" smooth="yes"/>
			<point x="64" y="140"/>
			<point x="68" y="139"/>
		</contour>
	</outline>
</glyph>
<glyph name="question" format="2">
  <advance width="489"/>
  <unicode hex="003F"/>
  <outline>
    <contour>
      <point x="165" y="216" type="curve" smooth="yes"/>
      <point x="179" y="216"/>
      <point x="185" y="220"/>
      <point x="189" y="231" type="curve" smooth="yes"/>
      <point x="239" y="393" type="line"/>
      <point x="435" y="426"/>
      <point x="613" y="518"/>
      <point x="613" y="710" type="curve" smooth="yes"/>
      <point x="613" y="821"/>
      <point x="520" y="890"/>
      <point x="418" y="890" type="curve" smooth="yes"/>
      <point x="333" y="890"/>
      <point x="238" y="853"/>
      <point x="174" y="784" type="curve" smooth="yes"/>
      <point x="160" y="769"/>
      <point x="159" y="765"/>
      <point x="168" y="756" type="curve" smooth="yes"/>
      <point x="175" y="749"/>
      <point x="181" y="744"/>
      <point x="196" y="759" type="curve" smooth="yes"/>
      <point x="265" y="825"/>
      <point x="333" y="853"/>
      <point x="408" y="853" type="curve" smooth="yes"/>
      <point x="496" y="853"/>
      <point x="571" y="803"/>
      <point x="571" y="711" type="curve" smooth="yes"/>
      <point x="571" y="534"/>
      <point x="409" y="453"/>
      <point x="225" y="424" type="curve" smooth="yes"/>
      <point x="216" y="423"/>
      <point x="209" y="419"/>
      <point x="205" y="406" type="curve" smooth="yes"/>
      <point x="150" y="231" type="line" smooth="yes"/>
      <point x="146" y="220"/>
      <point x="151" y="216"/>
    </contour>
    <contour>
      <point x="111" y="-14" type="curve" smooth="yes"/>
      <point x="141" y="-14"/>
      <point x="164" y="11"/>
      <point x="164" y="46" type="curve" smooth="yes"/>
      <point x="164" y="65"/>
      <point x="150" y="76"/>
      <point x="128" y="76" type="curve" smooth="yes"/>
      <point x="98" y="76"/>
      <point x="75" y="51"/>
      <point x="75" y="16" type="curve" smooth="yes"/>
      <point x="75" y="-2"/>
      <point x="89" y="-14"/>
    </contour>
  </outline>
</glyph>
<glyph name="at" format="2">
  <advance width="702"/>
  <unicode hex="0040"/>
  <outline>
    <contour>
      <point x="197" y="134" type="curve" smooth="yes"/>
      <point x="197" y="78"/>
      <point x="225" y="42"/>
      <point x="266" y="42" type="curve" smooth="yes"/>
      <point x="315" y="42"/>
      <point x="370" y="85"/>
      <point x="433" y="195" type="curve"/>
      <point x="424" y="168"/>
      <point x="417" y="147"/>
      <point x="406" y="112" type="curve" smooth="yes"/>
      <point x="392" y="70"/>
      <point x="410" y="42"/>
      <point x="446" y="42" type="curve" smooth="yes"/>
      <point x="562" y="42"/>
      <point x="668" y="158"/>
      <point x="668" y="296" type="curve" smooth="yes"/>
      <point x="668" y="431"/>
      <point x="561" y="515"/>
      <point x="412" y="515" type="curve" smooth="yes"/>
      <point x="191" y="515"/>
      <point x="54" y="339"/>
      <point x="54" y="141" type="curve" smooth="yes"/>
      <point x="54" y="-4"/>
      <point x="140" y="-107"/>
      <point x="286" y="-107" type="curve" smooth="yes"/>
      <point x="349" y="-107"/>
      <point x="403" y="-98"/>
      <point x="462" y="-77" type="curve" smooth="yes"/>
      <point x="470" y="-74"/>
      <point x="473" y="-70"/>
      <point x="470" y="-60" type="curve" smooth="yes"/>
      <point x="468" y="-52"/>
      <point x="462" y="-49"/>
      <point x="454" y="-52" type="curve" smooth="yes"/>
      <point x="397" y="-72"/>
      <point x="345" y="-81"/>
      <point x="290" y="-81" type="curve" smooth="yes"/>
      <point x="159" y="-81"/>
      <point x="81" y="11"/>
      <point x="81" y="143" type="curve" smooth="yes"/>
      <point x="81" y="330"/>
      <point x="208" y="489"/>
      <point x="408" y="489" type="curve" smooth="yes"/>
      <point x="544" y="489"/>
      <point x="640" y="421"/>
      <point x="640" y="295" type="curve" smooth="yes"/>
      <point x="640" y="166"/>
      <point x="548" y="68"/>
      <point x="451" y="68" type="curve" smooth="yes"/>
      <point x="433" y="68"/>
      <point x="424" y="82"/>
      <point x="433" y="110" type="curve" smooth="yes"/>
      <point x="514" y="356" type="line" smooth="yes"/>
      <point x="516" y="363"/>
      <point x="515" y="370"/>
      <point x="502" y="370" type="curve" smooth="yes"/>
      <point x="493" y="370"/>
      <point x="489" y="368"/>
      <point x="486" y="360" type="curve" smooth="yes"/>
      <point x="482" y="349" type="line"/>
      <point x="460" y="363"/>
      <point x="430" y="373"/>
      <point x="401" y="373" type="curve" smooth="yes"/>
      <point x="274" y="373"/>
      <point x="197" y="228"/>
    </contour>
    <contour>
      <point x="226" y="135" type="curve" smooth="yes"/>
      <point x="226" y="217"/>
      <point x="293" y="347"/>
      <point x="397" y="347" type="curve" smooth="yes"/>
      <point x="419" y="347"/>
      <point x="443" y="343"/>
      <point x="474" y="325" type="curve"/>
      <point x="465" y="295" type="line"/>
      <point x="394" y="145"/>
      <point x="322" y="68"/>
      <point x="272" y="68" type="curve" smooth="yes"/>
      <point x="242" y="68"/>
      <point x="226" y="95"/>
    </contour>
  </outline>
</glyph>
<glyph name="B" format="2">
  <advance width="724"/>
  <unicode hex="0042"/>
  <anchor x="280" y="0" name="bottom"/>
  <anchor x="169" y="258" name="center"/>
  <anchor x="554" y="838" name="top"/>
  <outline>
    <contour>
      <point x="88" y="0" type="curve" smooth="yes"/>
      <point x="283" y="0" type="line" smooth="yes"/>
      <point x="485" y="0"/>
      <point x="684" y="104"/>
      <point x="684" y="313" type="curve" smooth="yes"/>
      <point x="684" y="413"/>
      <point x="607" y="458"/>
      <point x="505" y="463" type="curve"/>
      <point x="507" y="466" type="line"/>
      <point x="665" y="483"/>
      <point x="788" y="581"/>
      <point x="788" y="728" type="curve" smooth="yes"/>
      <point x="788" y="820"/>
      <point x="715" y="875"/>
      <point x="570" y="875" type="curve" smooth="yes"/>
      <point x="373" y="875" type="line" smooth="yes"/>
      <point x="359" y="875"/>
      <point x="352" y="871"/>
      <point x="348" y="860" type="curve" smooth="yes"/>
      <point x="74" y="15" type="line" smooth="yes"/>
      <point x="70" y="4"/>
      <point x="74" y="0"/>
    </contour>
    <contour>
      <point x="118" y="35" type="line"/>
      <point x="252" y="445" type="line"/>
      <point x="435" y="445" type="line" smooth="yes"/>
      <point x="560" y="445"/>
      <point x="640" y="401"/>
      <point x="640" y="308" type="curve" smooth="yes"/>
      <point x="640" y="144"/>
      <point x="493" y="35"/>
      <point x="273" y="35" type="curve" smooth="yes"/>
    </contour>
    <contour>
      <point x="262" y="480" type="line"/>
      <point x="379" y="840" type="line"/>
      <point x="562" y="840" type="line" smooth="yes"/>
      <point x="684" y="840"/>
      <point x="748" y="801"/>
      <point x="748" y="721" type="curve" smooth="yes"/>
      <point x="748" y="568"/>
      <point x="579" y="480"/>
      <point x="424" y="480" type="curve" smooth="yes"/>
    </contour>
  </outline>
</glyph>
<glyph name="C" format="2">
	<unicode hex="0043"/>
	<advance width="620"/>
	<outline>
		<contour>
			<point x="312" y="-15" type="curve" smooth="yes"/>
			<point x="414" y="-15"/>
			<point x="510" y="51"/>
			<point x="585" y="148" type="curve" smooth="yes"/>
			<point x="592" y="157"/>
			<point x="591" y="165"/>
			<point x="584" y="170" type="curve" smooth="yes"/>
			<point x="575" y="177"/>
			<point x="570" y="176"/>
			<point x="564" y="168" type="curve" smooth="yes"/>
			<point x="496" y="83"/>
			<point x="412" y="15"/>
			<point x="314" y="15" type="curve" smooth="yes"/>
			<point x="207" y="15"/>
			<point x="139" y="94"/>
			<point x="139" y="234" type="curve" smooth="yes"/>
			<point x="139" y="430"/>
			<point x="279" y="682"/>
			<point x="508" y="682" type="curve" smooth="yes"/>
			<point x="574" y="682"/>
			<point x="628" y="663"/>
			<point x="664" y="622" type="curve" smooth="yes"/>
			<point x="675" y="610"/>
			<point x="677" y="607"/>
			<point x="686" y="611" type="curve" smooth="yes"/>
			<point x="698" y="617"/>
			<point x="702" y="624"/>
			<point x="696" y="633" type="curve" smooth="yes"/>
			<point x="658" y="686"/>
			<point x="593" y="712"/>
			<point x="510" y="712" type="curve" smooth="yes"/>
			<point x="256" y="712"/>
			<point x="106" y="443"/>
			<point x="106" y="234" type="curve" smooth="yes"/>
			<point x="106" y="75"/>
			<point x="186" y="-15"/>
		</contour>
	</outline>
	<anchor name="bottom" x="285" y="0"/>
	<anchor name="top" x="492" y="670"/>
</glyph>
<glyph name="D" format="2">
	<unicode hex="0044"/>
	<advance width="695"/>
	<outline>
		<contour>
			<point x="73" y="0" type="curve" smooth="yes"/>
			<point x="232" y="0" type="line" smooth="yes"/>
			<point x="496" y="0"/>
			<point x="687" y="200"/>
			<point x="687" y="477" type="curve" smooth="yes"/>
			<point x="687" y="633"/>
			<point x="589" y="700"/>
			<point x="448" y="700" type="curve" smooth="yes"/>
			<point x="298" y="700" type="line" smooth="yes"/>
			<point x="285" y="700"/>
			<point x="282" y="697"/>
			<point x="279" y="688" type="curve" smooth="yes"/>
			<point x="61" y="12" type="line" smooth="yes"/>
			<point x="58" y="3"/>
			<point x="63" y="0"/>
		</contour>
		<contour>
			<point x="97" y="28" type="line"/>
			<point x="305" y="672" type="line"/>
			<point x="446" y="672" type="line" smooth="yes"/>
			<point x="574" y="672"/>
			<point x="654" y="616"/>
			<point x="654" y="477" type="curve" smooth="yes"/>
			<point x="654" y="217"/>
			<point x="477" y="28"/>
			<point x="232" y="28" type="curve" smooth="yes"/>
		</contour>
	</outline>
	<anchor name="bottom" x="278" y="0"/>
	<anchor name="center" x="235" y="350"/>
	<anchor name="top" x="464" y="670"/>
</glyph>
<glyph name="E" format="2">
  <advance width="662"/>
  <unicode hex="0045"/>
  <anchor x="315" y="0" name="bottom"/>
  <anchor x="534" y="13" name="ogonek"/>
  <anchor x="557" y="838" name="top"/>
  <outline>
    <contour>
      <point x="90" y="0" type="curve" smooth="yes"/>
      <point x="517" y="0" type="line" smooth="yes"/>
      <point x="529" y="0"/>
      <point x="534" y="4"/>
      <point x="538" y="18" type="curve" smooth="yes"/>
      <point x="540" y="29"/>
      <point x="540" y="35"/>
      <point x="527" y="35" type="curve" smooth="yes"/>
      <point x="120" y="35" type="line"/>
      <point x="252" y="445" type="line"/>
      <point x="598" y="445" type="line" smooth="yes"/>
      <point x="610" y="445"/>
      <point x="615" y="449"/>
      <point x="619" y="463" type="curve" smooth="yes"/>
      <point x="622" y="474"/>
      <point x="622" y="480"/>
      <point x="608" y="480" type="curve" smooth="yes"/>
      <point x="263" y="480" type="line"/>
      <point x="379" y="840" type="line"/>
      <point x="789" y="840" type="line" smooth="yes"/>
      <point x="802" y="840"/>
      <point x="807" y="844"/>
      <point x="810" y="858" type="curve" smooth="yes"/>
      <point x="813" y="869"/>
      <point x="813" y="875"/>
      <point x="799" y="875" type="curve" smooth="yes"/>
      <point x="372" y="875" type="line" smooth="yes"/>
      <point x="355" y="875"/>
      <point x="352" y="871"/>
      <point x="348" y="860" type="curve" smooth="yes"/>
      <point x="75" y="15" type="line" smooth="yes"/>
      <point x="72" y="4"/>
      <point x="78" y="0"/>
    </contour>
  </outline>
</glyph>
<glyph name="F" format="2">
	<unicode hex="0046"/>
	<advance width="500"/>
	<outline>
		<contour>
			<point x="71" y="-11" type="curve" smooth="yes"/>
			<point x="83" y="-11"/>
			<point x="87" y="-8"/>
			<point x="90" y="1" type="curve" smooth="yes"/>
			<point x="197" y="336" type="line"/>
			<point x="465" y="336" type="line" smooth="yes"/>
			<point x="475" y="336"/>
			<point x="479" y="339"/>
			<point x="482" y="350" type="curve" smooth="yes"/>
			<point x="484" y="359"/>
			<point x="484" y="364"/>
			<point x="473" y="364" type="curve" smooth="yes"/>
			<point x="206" y="364" type="line"/>
			<point x="304" y="672" type="line"/>
			<point x="624" y="672" type="line" smooth="yes"/>
			<point x="634" y="672"/>
			<point x="638" y="675"/>
			<point x="641" y="686" type="curve" smooth="yes"/>
			<point x="643" y="695"/>
			<point x="643" y="700"/>
			<point x="632" y="700" type="curve" smooth="yes"/>
			<point x="298" y="700" type="line" smooth="yes"/>
			<point x="285" y="700"/>
			<point x="282" y="697"/>
			<point x="279" y="688" type="curve" smooth="yes"/>
			<point x="59" y="1" type="line" smooth="yes"/>
			<point x="56" y="-8"/>
			<point x="61" y="-11"/>
		</contour>
	</outline>
</glyph>
<glyph name="G" format="2">
	<unicode hex="0047"/>
	<advance width="700"/>
	<outline>
		<contour>
			<point x="310" y="-15" type="curve" smooth="yes"/>
			<point x="463" y="-15"/>
			<point x="583" y="108"/>
			<point x="666" y="350" type="curve" smooth="yes"/>
			<point x="669" y="359"/>
			<point x="666" y="362"/>
			<point x="655" y="362" type="curve" smooth="yes"/>
			<point x="439" y="362" type="line" smooth="yes"/>
			<point x="430" y="362"/>
			<point x="426" y="358"/>
			<point x="423" y="349" type="curve" smooth="yes"/>
			<point x="421" y="343"/>
			<point x="419" y="334"/>
			<point x="430" y="334" type="curve" smooth="yes"/>
			<point x="628" y="334" type="line"/>
			<point x="550" y="123"/>
			<point x="443" y="15"/>
			<point x="310" y="15" type="curve" smooth="yes"/>
			<point x="206" y="15"/>
			<point x="136" y="94"/>
			<point x="136" y="224" type="curve" smooth="yes"/>
			<point x="136" y="430"/>
			<point x="280" y="682"/>
			<point x="513" y="682" type="curve" smooth="yes"/>
			<point x="571" y="682"/>
			<point x="619" y="662"/>
			<point x="654" y="622" type="curve" smooth="yes"/>
			<point x="665" y="610"/>
			<point x="668" y="607"/>
			<point x="677" y="611" type="curve" smooth="yes"/>
			<point x="689" y="617"/>
			<point x="693" y="624"/>
			<point x="687" y="633" type="curve" smooth="yes"/>
			<point x="650" y="685"/>
			<point x="590" y="712"/>
			<point x="515" y="712" type="curve" smooth="yes"/>
			<point x="258" y="712"/>
			<point x="103" y="443"/>
			<point x="103" y="224" type="curve" smooth="yes"/>
			<point x="103" y="76"/>
			<point x="183" y="-15"/>
		</contour>
	</outline>
	<anchor name="bottom" x="295" y="0"/>
	<anchor name="top" x="495" y="670"/>
</glyph>
<glyph name="H" format="2">
	<unicode hex="0048"/>
	<advance width="710"/>
	<outline>
		<contour>
			<point x="68" y="-11" type="curve" smooth="yes"/>
			<point x="81" y="-11"/>
			<point x="84" y="-8"/>
			<point x="87" y="1" type="curve" smooth="yes"/>
			<point x="201" y="353" type="line"/>
			<point x="606" y="353" type="line"/>
			<point x="494" y="1" type="line" smooth="yes"/>
			<point x="491" y="-8"/>
			<point x="496" y="-11"/>
			<point x="506" y="-11" type="curve" smooth="yes"/>
			<point x="519" y="-11"/>
			<point x="522" y="-8"/>
			<point x="525" y="1" type="curve" smooth="yes"/>
			<point x="750" y="700" type="line" smooth="yes"/>
			<point x="753" y="709"/>
			<point x="748" y="712"/>
			<point x="738" y="712" type="curve" smooth="yes"/>
			<point x="725" y="712"/>
			<point x="722" y="709"/>
			<point x="719" y="700" type="curve" smooth="yes"/>
			<point x="615" y="381" type="line"/>
			<point x="210" y="381" type="line"/>
			<point x="313" y="700" type="line" smooth="yes"/>
			<point x="316" y="709"/>
			<point x="311" y="712"/>
			<point x="301" y="712" type="curve" smooth="yes"/>
			<point x="288" y="712"/>
			<point x="285" y="709"/>
			<point x="282" y="700" type="curve" smooth="yes"/>
			<point x="56" y="1" type="line" smooth="yes"/>
			<point x="53" y="-8"/>
			<point x="58" y="-11"/>
		</contour>
	</outline>
	<anchor name="bottom" x="290" y="0"/>
	<anchor name="center" x="467" y="541"/>
	<anchor name="top" x="494" y="670"/>
</glyph>
<glyph name="I" format="2">
	<unicode hex="0049"/>
	<advance width="270"/>
	<outline>
		<contour>
			<point x="67" y="-11" type="curve" smooth="yes"/>
			<point x="80" y="-11"/>
			<point x="83" y="-8"/>
			<point x="86" y="1" type="curve" smooth="yes"/>
			<point x="312" y="700" type="line" smooth="yes"/>
			<point x="315" y="709"/>
			<point x="310" y="712"/>
			<point x="300" y="712" type="curve" smooth="yes"/>
			<point x="287" y="712"/>
			<point x="284" y="709"/>
			<point x="281" y="700" type="curve" smooth="yes"/>
			<point x="55" y="1" type="line" smooth="yes"/>
			<point x="52" y="-8"/>
			<point x="57" y="-11"/>
		</contour>
	</outline>
	<anchor name="bottom" x="70" y="0"/>
	<anchor name="ogonek" x="83" y="-5"/>
	<anchor name="top" x="282" y="670"/>
</glyph>
<glyph name="J" format="2">
	<unicode hex="004A"/>
	<advance width="520"/>
	<outline>
		<contour>
			<point x="202" y="-15" type="curve" smooth="yes"/>
			<point x="314" y="-15"/>
			<point x="366" y="53"/>
			<point x="423" y="228" type="curve" smooth="yes"/>
			<point x="576" y="700" type="line" smooth="yes"/>
			<point x="579" y="708"/>
			<point x="576" y="712"/>
			<point x="564" y="712" type="curve" smooth="yes"/>
			<point x="551" y="712"/>
			<point x="548" y="709"/>
			<point x="545" y="700" type="curve" smooth="yes"/>
			<point x="391" y="226" type="line" smooth="yes"/>
			<point x="341" y="73"/>
			<point x="294" y="15"/>
			<point x="205" y="15" type="curve" smooth="yes"/>
			<point x="129" y="15"/>
			<point x="91" y="59"/>
			<point x="66" y="131" type="curve" smooth="yes"/>
			<point x="63" y="140"/>
			<point x="59" y="146"/>
			<point x="47" y="143" type="curve" smooth="yes"/>
			<point x="38" y="140"/>
			<point x="32" y="137"/>
			<point x="36" y="123" type="curve" smooth="yes"/>
			<point x="61" y="37"/>
			<point x="118" y="-15"/>
		</contour>
	</outline>
	<anchor name="bottom" x="195" y="0"/>
	<anchor name="top" x="546" y="670"/>
</glyph>
<glyph name="K" format="2">
	<unicode hex="004B"/>
	<advance width="550"/>
	<outline>
		<contour>
			<point x="66" y="-11" type="curve" smooth="yes"/>
			<point x="77" y="-11"/>
			<point x="84" y="-8"/>
			<point x="87" y="1" type="curve" smooth="yes"/>
			<point x="205" y="365" type="line"/>
			<point x="275" y="217"/>
			<point x="354" y="109"/>
			<point x="448" y="0" type="curve" smooth="yes"/>
			<point x="458" y="-12"/>
			<point x="464" y="-16"/>
			<point x="474" y="-9" type="curve" smooth="yes"/>
			<point x="483" y="-2"/>
			<point x="483" y="4"/>
			<point x="476" y="12" type="curve" smooth="yes"/>
			<point x="383" y="120"/>
			<point x="303" y="228"/>
			<point x="239" y="365" type="curve"/>
			<point x="654" y="684" type="line" smooth="yes"/>
			<point x="662" y="690"/>
			<point x="663" y="695"/>
			<point x="656" y="704" type="curve" smooth="yes"/>
			<point x="648" y="713"/>
			<point x="643" y="711"/>
			<point x="631" y="701" type="curve" smooth="yes"/>
			<point x="208" y="375" type="line"/>
			<point x="314" y="700" type="line" smooth="yes"/>
			<point x="317" y="709"/>
			<point x="312" y="712"/>
			<point x="301" y="712" type="curve" smooth="yes"/>
			<point x="290" y="712"/>
			<point x="285" y="709"/>
			<point x="282" y="700" type="curve" smooth="yes"/>
			<point x="55" y="1" type="line" smooth="yes"/>
			<point x="52" y="-8"/>
			<point x="55" y="-11"/>
		</contour>
	</outline>
	<anchor name="bottom" x="240" y="0"/>
	<anchor name="top" x="459" y="670"/>
</glyph>
<glyph name="L" format="2">
	<unicode hex="004C"/>
	<advance width="500"/>
	<outline>
		<contour>
			<point x="71" y="0" type="curve" smooth="yes"/>
			<point x="399" y="0" type="line" smooth="yes"/>
			<point x="409" y="0"/>
			<point x="413" y="3"/>
			<point x="416" y="14" type="curve" smooth="yes"/>
			<point x="418" y="23"/>
			<point x="418" y="28"/>
			<point x="407" y="28" type="curve" smooth="yes"/>
			<point x="95" y="28" type="line"/>
			<point x="313" y="700" type="line" smooth="yes"/>
			<point x="316" y="709"/>
			<point x="311" y="712"/>
			<point x="301" y="712" type="curve" smooth="yes"/>
			<point x="288" y="712"/>
			<point x="285" y="709"/>
			<point x="282" y="700" type="curve" smooth="yes"/>
			<point x="59" y="12" type="line" smooth="yes"/>
			<point x="56" y="3"/>
			<point x="61" y="0"/>
		</contour>
	</outline>
	<anchor name="bottom" x="235" y="0"/>
	<anchor name="center" x="184" y="360"/>
	<anchor name="centerCase" x="204" y="360"/>
	<anchor name="top" x="287" y="670"/>
	<anchor name="topright" x="333" y="700"/>
</glyph>
<glyph name="M" format="2">
  <advance width="840"/>
  <unicode hex="004D"/>
  <anchor x="365" y="0" name="bottom"/>
  <anchor x="564" y="670" name="top"/>
  <outline>
    <contour>
      <point x="67" y="-11" type="curve" smooth="yes"/>
      <point x="80" y="-11"/>
      <point x="83" y="-8"/>
      <point x="86" y="1" type="curve" smooth="yes"/>
      <point x="298" y="656" type="line"/>
      <point x="409" y="224" type="line" smooth="yes"/>
      <point x="412" y="214"/>
      <point x="416" y="212"/>
      <point x="425" y="212" type="curve" smooth="yes"/>
      <point x="433" y="212"/>
      <point x="437" y="213"/>
      <point x="447" y="224" type="curve" smooth="yes"/>
      <point x="837" y="656" type="line"/>
      <point x="625" y="1" type="line" smooth="yes"/>
      <point x="622" y="-8"/>
      <point x="627" y="-11"/>
      <point x="637" y="-11" type="curve" smooth="yes"/>
      <point x="649" y="-11"/>
      <point x="652" y="-8"/>
      <point x="655" y="1" type="curve" smooth="yes"/>
      <point x="880" y="697" type="line" smooth="yes"/>
      <point x="884" y="708"/>
      <point x="878" y="712"/>
      <point x="868" y="712" type="curve" smooth="yes"/>
      <point x="853" y="712"/>
      <point x="849" y="710"/>
      <point x="842" y="702" type="curve" smooth="yes"/>
      <point x="431" y="247" type="line"/>
      <point x="314" y="702" type="line" smooth="yes"/>
      <point x="312" y="710"/>
      <point x="309" y="712"/>
      <point x="301" y="712" type="curve" smooth="yes"/>
      <point x="288" y="712"/>
      <point x="285" y="709"/>
      <point x="282" y="700" type="curve" smooth="yes"/>
      <point x="56" y="1" type="line" smooth="yes"/>
      <point x="53" y="-8"/>
      <point x="58" y="-11"/>
    </contour>
  </outline>
</glyph>
<glyph name="N" format="2">
  <advance width="710"/>
  <unicode hex="004E"/>
  <anchor x="290" y="0" name="bottom"/>
  <anchor x="509" y="670" name="top"/>
  <outline>
    <contour>
      <point x="68" y="-11" type="curve" smooth="yes"/>
      <point x="81" y="-11"/>
      <point x="84" y="-8"/>
      <point x="87" y="1" type="curve" smooth="yes"/>
      <point x="298" y="656" type="line"/>
      <point x="493" y="-3" type="line" smooth="yes"/>
      <point x="495" y="-9"/>
      <point x="499" y="-11"/>
      <point x="509" y="-11" type="curve" smooth="yes"/>
      <point x="519" y="-11"/>
      <point x="522" y="-8"/>
      <point x="525" y="1" type="curve" smooth="yes"/>
      <point x="750" y="700" type="line" smooth="yes"/>
      <point x="753" y="709"/>
      <point x="748" y="712"/>
      <point x="738" y="712" type="curve" smooth="yes"/>
      <point x="726" y="712"/>
      <point x="723" y="709"/>
      <point x="720" y="700" type="curve" smooth="yes"/>
      <point x="509" y="45" type="line"/>
      <point x="314" y="704" type="line" smooth="yes"/>
      <point x="312" y="710"/>
      <point x="308" y="712"/>
      <point x="298" y="712" type="curve" smooth="yes"/>
      <point x="288" y="712"/>
      <point x="285" y="709"/>
      <point x="282" y="700" type="curve" smooth="yes"/>
      <point x="56" y="1" type="line" smooth="yes"/>
      <point x="53" y="-8"/>
      <point x="58" y="-11"/>
    </contour>
  </outline>
</glyph>
<glyph name="O" format="2">
	<unicode hex="004F"/>
	<advance width="740"/>
	<outline>
		<contour>
			<point x="332" y="-15" type="curve" smooth="yes"/>
			<point x="589" y="-15"/>
			<point x="735" y="273"/>
			<point x="735" y="479" type="curve" smooth="yes"/>
			<point x="735" y="624"/>
			<point x="649" y="712"/>
			<point x="510" y="712" type="curve" smooth="yes"/>
			<point x="256" y="712"/>
			<point x="106" y="443"/>
			<point x="106" y="234" type="curve" smooth="yes"/>
			<point x="106" y="75"/>
			<point x="194" y="-15"/>
		</contour>
		<contour>
			<point x="334" y="15" type="curve" smooth="yes"/>
			<point x="214" y="15"/>
			<point x="139" y="94"/>
			<point x="139" y="234" type="curve" smooth="yes"/>
			<point x="139" y="430"/>
			<point x="279" y="682"/>
			<point x="508" y="682" type="curve" smooth="yes"/>
			<point x="627" y="682"/>
			<point x="702" y="611"/>
			<point x="702" y="479" type="curve" smooth="yes"/>
			<point x="702" y="287"/>
			<point x="564" y="15"/>
		</contour>
	</outline>
	<anchor name="bottom" x="305" y="0"/>
	<anchor name="center" x="419" y="350"/>
	<anchor name="ogonek" x="604" y="10"/>
	<anchor name="top" x="504" y="670"/>
	<anchor name="topright" x="591" y="700"/>
</glyph>
<glyph name="P" format="2">
	<unicode hex="0050"/>
	<advance width="560"/>
	<outline>
		<contour>
			<point x="68" y="-11" type="curve" smooth="yes"/>
			<point x="80" y="-11"/>
			<point x="83" y="-8"/>
			<point x="86" y="1" type="curve" smooth="yes"/>
			<point x="182" y="294" type="line"/>
			<point x="231" y="296"/>
			<point x="284" y="299"/>
			<point x="333" y="305" type="curve" smooth="yes"/>
			<point x="509" y="327"/>
			<point x="627" y="409"/>
			<point x="627" y="559" type="curve" smooth="yes"/>
			<point x="627" y="663"/>
			<point x="562" y="700"/>
			<point x="435" y="700" type="curve" smooth="yes"/>
			<point x="298" y="700" type="line" smooth="yes"/>
			<point x="285" y="700"/>
			<point x="282" y="697"/>
			<point x="279" y="688" type="curve" smooth="yes"/>
			<point x="56" y="1" type="line" smooth="yes"/>
			<point x="53" y="-8"/>
			<point x="58" y="-11"/>
		</contour>
		<contour>
			<point x="191" y="322" type="curve"/>
			<point x="304" y="672" type="line"/>
			<point x="435" y="672" type="line" smooth="yes"/>
			<point x="541" y="672"/>
			<point x="595" y="643"/>
			<point x="595" y="558" type="curve" smooth="yes"/>
			<point x="595" y="425"/>
			<point x="490" y="354"/>
			<point x="333" y="333" type="curve" smooth="yes"/>
			<point x="287" y="327"/>
			<point x="238" y="323"/>
		</contour>
	</outline>
</glyph>
<glyph name="Q" format="2">
	<unicode hex="0051"/>
	<advance width="740"/>
	<outline>
		<contour>
			<point x="466" y="-135" type="curve" smooth="yes"/>
			<point x="477" y="-133"/>
			<point x="481" y="-128"/>
			<point x="477" y="-117" type="curve" smooth="yes"/>
			<point x="395" y="129" type="line" smooth="yes"/>
			<point x="392" y="139"/>
			<point x="387" y="142"/>
			<point x="378" y="140" type="curve" smooth="yes"/>
			<point x="367" y="138"/>
			<point x="363" y="133"/>
			<point x="367" y="122" type="curve" smooth="yes"/>
			<point x="449" y="-124" type="line" smooth="yes"/>
			<point x="452" y="-134"/>
			<point x="457" y="-137"/>
		</contour>
		<component base="O"/>
	</outline>
	<anchor name="bottom" x="305" y="0"/>
	<anchor name="center" x="419" y="350"/>
	<anchor name="ogonek" x="604" y="10"/>
	<anchor name="top" x="504" y="670"/>
	<anchor name="topright" x="591" y="700"/>
</glyph>
<glyph name="R" format="2">
	<unicode hex="0052"/>
	<advance width="555"/>
	<outline>
		<contour>
			<point x="68" y="-11" type="curve" smooth="yes"/>
			<point x="81" y="-11"/>
			<point x="84" y="-8"/>
			<point x="87" y="1" type="curve" smooth="yes"/>
			<point x="193" y="327" type="line"/>
			<point x="255" y="217"/>
			<point x="327" y="107"/>
			<point x="420" y="0" type="curve" smooth="yes"/>
			<point x="430" y="-12"/>
			<point x="436" y="-16"/>
			<point x="446" y="-9" type="curve" smooth="yes"/>
			<point x="455" y="-2"/>
			<point x="455" y="4"/>
			<point x="448" y="12" type="curve" smooth="yes"/>
			<point x="358" y="115"/>
			<point x="287" y="221"/>
			<point x="228" y="325" type="curve"/>
			<point x="414" y="334"/>
			<point x="607" y="397"/>
			<point x="607" y="566" type="curve" smooth="yes"/>
			<point x="607" y="667"/>
			<point x="545" y="700"/>
			<point x="423" y="700" type="curve" smooth="yes"/>
			<point x="298" y="700" type="line" smooth="yes"/>
			<point x="285" y="700"/>
			<point x="282" y="697"/>
			<point x="279" y="688" type="curve" smooth="yes"/>
			<point x="56" y="1" type="line" smooth="yes"/>
			<point x="53" y="-8"/>
			<point x="58" y="-11"/>
		</contour>
		<contour>
			<point x="202" y="352" type="curve"/>
			<point x="305" y="672" type="line"/>
			<point x="423" y="672" type="line" smooth="yes"/>
			<point x="523" y="672"/>
			<point x="575" y="648"/>
			<point x="575" y="566" type="curve" smooth="yes"/>
			<point x="575" y="383"/>
			<point x="325" y="352"/>
		</contour>
	</outline>
	<anchor name="bottom" x="243" y="0"/>
	<anchor name="top" x="430" y="670"/>
</glyph>
<glyph name="S" format="2">
  <advance width="688"/>
  <unicode hex="0053"/>
  <anchor x="286" y="0" name="bottom"/>
  <anchor x="484" y="838" name="top"/>
  <outline>
    <contour>
      <point x="313" y="-19" type="curve" smooth="yes"/>
      <point x="479" y="-19"/>
      <point x="614" y="91"/>
      <point x="614" y="245" type="curve" smooth="yes"/>
      <point x="614" y="371"/>
      <point x="515" y="416"/>
      <point x="423" y="471" type="curve" smooth="yes"/>
      <point x="326" y="529"/>
      <point x="265" y="568"/>
      <point x="265" y="663" type="curve" smooth="yes"/>
      <point x="265" y="778"/>
      <point x="360" y="853"/>
      <point x="480" y="853" type="curve" smooth="yes"/>
      <point x="579" y="853"/>
      <point x="638" y="811"/>
      <point x="686" y="761" type="curve" smooth="yes"/>
      <point x="696" y="751"/>
      <point x="705" y="750"/>
      <point x="713" y="756" type="curve" smooth="yes"/>
      <point x="721" y="764"/>
      <point x="725" y="770"/>
      <point x="716" y="781" type="curve" smooth="yes"/>
      <point x="663" y="844"/>
      <point x="590" y="890"/>
      <point x="484" y="890" type="curve" smooth="yes"/>
      <point x="338" y="890"/>
      <point x="225" y="800"/>
      <point x="225" y="661" type="curve" smooth="yes"/>
      <point x="225" y="540"/>
      <point x="310" y="491"/>
      <point x="398" y="443" type="curve" smooth="yes"/>
      <point x="509" y="380"/>
      <point x="574" y="340"/>
      <point x="574" y="243" type="curve" smooth="yes"/>
      <point x="574" y="110"/>
      <point x="461" y="19"/>
      <point x="313" y="19" type="curve" smooth="yes"/>
      <point x="199" y="19"/>
      <point x="116" y="76"/>
      <point x="78" y="130" type="curve" smooth="yes"/>
      <point x="74" y="135"/>
      <point x="68" y="143"/>
      <point x="54" y="133" type="curve" smooth="yes"/>
      <point x="43" y="125"/>
      <point x="44" y="118"/>
      <point x="49" y="109" type="curve" smooth="yes"/>
      <point x="76" y="65"/>
      <point x="165" y="-19"/>
    </contour>
  </outline>
</glyph>
<glyph name="V" format="2">
  <advance width="580"/>
  <unicode hex="0056"/>
  <outline>
    <contour>
      <point x="245" y="-11" type="curve" smooth="yes"/>
      <point x="255" y="-11"/>
      <point x="259" y="-8"/>
      <point x="263" y="-1" type="curve" smooth="yes"/>
      <point x="713" y="693" type="line" smooth="yes"/>
      <point x="719" y="702"/>
      <point x="715" y="712"/>
      <point x="702" y="712" type="curve" smooth="yes"/>
      <point x="692" y="712"/>
      <point x="689" y="709"/>
      <point x="683" y="700" type="curve" smooth="yes"/>
      <point x="256" y="37" type="line"/>
      <point x="219" y="698" type="line" smooth="yes"/>
      <point x="218" y="709"/>
      <point x="215" y="712"/>
      <point x="204" y="712" type="curve" smooth="yes"/>
      <point x="193" y="712"/>
      <point x="189" y="709"/>
      <point x="190" y="697" type="curve" smooth="yes"/>
      <point x="231" y="1" type="line" smooth="yes"/>
      <point x="232" y="-8"/>
      <point x="235" y="-11"/>
    </contour>
  </outline>
</glyph>
<glyph name="W" format="2">
  <advance width="1201"/>
  <unicode hex="0057"/>
  <anchor x="566" y="0" name="bottom"/>
  <anchor x="779" y="838" name="top"/>
  <outline>
    <contour>
      <point x="281" y="-14" type="curve" smooth="yes"/>
      <point x="294" y="-14"/>
      <point x="299" y="-10"/>
      <point x="304" y="-1" type="curve" smooth="yes"/>
      <point x="791" y="830" type="line"/>
      <point x="789" y="1" type="line" smooth="yes"/>
      <point x="789" y="-10"/>
      <point x="794" y="-14"/>
      <point x="806" y="-14" type="curve" smooth="yes"/>
      <point x="819" y="-14"/>
      <point x="824" y="-10"/>
      <point x="829" y="-1" type="curve" smooth="yes"/>
      <point x="1367" y="866" type="line" smooth="yes"/>
      <point x="1377" y="883"/>
      <point x="1369" y="890"/>
      <point x="1354" y="890" type="curve" smooth="yes"/>
      <point x="1344" y="890"/>
      <point x="1336" y="886"/>
      <point x="1330" y="875" type="curve" smooth="yes"/>
      <point x="821" y="48" type="line"/>
      <point x="826" y="873" type="line" smooth="yes"/>
      <point x="826" y="886"/>
      <point x="821" y="890"/>
      <point x="802" y="890" type="curve" smooth="yes"/>
      <point x="790" y="890"/>
      <point x="784" y="886"/>
      <point x="777" y="875" type="curve" smooth="yes"/>
      <point x="297" y="49" type="line"/>
      <point x="274" y="873" type="line" smooth="yes"/>
      <point x="274" y="886"/>
      <point x="269" y="890"/>
      <point x="256" y="890" type="curve" smooth="yes"/>
      <point x="242" y="890"/>
      <point x="237" y="886"/>
      <point x="237" y="871" type="curve" smooth="yes"/>
      <point x="264" y="1" type="line" smooth="yes"/>
      <point x="264" y="-10"/>
      <point x="269" y="-14"/>
    </contour>
  </outline>
</glyph>
<glyph name="X" format="2">
  <advance width="550"/>
  <unicode hex="0058"/>
  <outline>
    <contour>
      <point x="438" y="-10" type="curve" smooth="yes"/>
      <point x="447" y="-7"/>
      <point x="449" y="-3"/>
      <point x="445" y="10" type="curve" smooth="yes"/>
      <point x="338" y="354" type="line"/>
      <point x="643" y="685" type="line" smooth="yes"/>
      <point x="651" y="694"/>
      <point x="654" y="698"/>
      <point x="646" y="706" type="curve" smooth="yes"/>
      <point x="638" y="714"/>
      <point x="634" y="713"/>
      <point x="627" y="706" type="curve" smooth="yes"/>
      <point x="330" y="382" type="line"/>
      <point x="231" y="699" type="line" smooth="yes"/>
      <point x="227" y="711"/>
      <point x="225" y="715"/>
      <point x="213" y="712" type="curve" smooth="yes"/>
      <point x="202" y="709"/>
      <point x="198" y="705"/>
      <point x="202" y="693" type="curve" smooth="yes"/>
      <point x="305" y="362" type="line"/>
      <point x="-17" y="15" type="line" smooth="yes"/>
      <point x="-25" y="6"/>
      <point x="-28" y="2"/>
      <point x="-20" y="-6" type="curve" smooth="yes"/>
      <point x="-12" y="-14"/>
      <point x="-8" y="-13"/>
      <point x="-1" y="-6" type="curve" smooth="yes"/>
      <point x="314" y="334" type="line"/>
      <point x="417" y="4" type="line" smooth="yes"/>
      <point x="421" y="-8"/>
      <point x="424" y="-14"/>
    </contour>
  </outline>
</glyph>
<glyph name="Y" format="2">
  <advance width="613"/>
  <unicode hex="0059"/>
  <anchor x="236" y="0" name="bottom"/>
  <anchor x="470" y="838" name="top"/>
  <outline>
    <contour>
      <point x="230" y="-14" type="curve" smooth="yes"/>
      <point x="244" y="-14"/>
      <point x="251" y="-10"/>
      <point x="255" y="1" type="curve" smooth="yes"/>
      <point x="379" y="383" type="line"/>
      <point x="795" y="863" type="line" smooth="yes"/>
      <point x="804" y="873"/>
      <point x="803" y="879"/>
      <point x="795" y="886" type="curve" smooth="yes"/>
      <point x="784" y="896"/>
      <point x="778" y="894"/>
      <point x="761" y="875" type="curve" smooth="yes"/>
      <point x="368" y="419" type="line"/>
      <point x="254" y="875" type="line" smooth="yes"/>
      <point x="251" y="886"/>
      <point x="248" y="890"/>
      <point x="234" y="890" type="curve" smooth="yes"/>
      <point x="224" y="890"/>
      <point x="215" y="885"/>
      <point x="220" y="866" type="curve" smooth="yes"/>
      <point x="341" y="384" type="line"/>
      <point x="216" y="1" type="line" smooth="yes"/>
      <point x="213" y="-10"/>
      <point x="216" y="-14"/>
    </contour>
  </outline>
</glyph>
<glyph name="backslash" format="2">
  <advance width="258"/>
  <unicode hex="005C"/>
  <outline>
    <contour>
      <point x="211" y="-61" type="curve" smooth="yes"/>
      <point x="222" y="-60"/>
      <point x="223" y="-54"/>
      <point x="222" y="-45" type="curve" smooth="yes"/>
      <point x="165" y="747" type="line" smooth="yes"/>
      <point x="164" y="760"/>
      <point x="159" y="761"/>
      <point x="149" y="760" type="curve" smooth="yes"/>
      <point x="138" y="759"/>
      <point x="137" y="753"/>
      <point x="138" y="744" type="curve" smooth="yes"/>
      <point x="195" y="-48" type="line" smooth="yes"/>
      <point x="196" y="-61"/>
      <point x="201" y="-62"/>
    </contour>
  </outline>
</glyph>
<glyph name="bracketright" format="2">
	<unicode hex="005D"/>
	<advance width="300"/>
	<outline>
		<contour>
			<point x="-5" y="-46" type="curve" smooth="yes"/>
			<point x="-8" y="-56"/>
			<point x="-5" y="-60"/>
			<point x="0" y="-60" type="curve" smooth="yes"/>
			<point x="116" y="-60" type="line" smooth="yes"/>
			<point x="127" y="-60"/>
			<point x="132" y="-57"/>
			<point x="134" y="-48" type="curve"/>
			<point x="378" y="748" type="line"/>
			<point x="380" y="757"/>
			<point x="377" y="760"/>
			<point x="366" y="760" type="curve" smooth="yes"/>
			<point x="250" y="760" type="line" smooth="yes"/>
			<point x="245" y="760"/>
			<point x="240" y="756"/>
			<point x="237" y="746" type="curve" smooth="yes"/>
			<point x="234" y="736"/>
			<point x="237" y="732"/>
			<point x="242" y="732" type="curve" smooth="yes"/>
			<point x="343" y="732" type="line"/>
			<point x="109" y="-32" type="line"/>
			<point x="8" y="-32" type="line" smooth="yes"/>
			<point x="3" y="-32"/>
			<point x="-2" y="-36"/>
		</contour>
	</outline>
</glyph>
<glyph name="asciicircum" format="2">
  <advance width="610"/>
  <unicode hex="005E"/>
  <outline>
    <contour>
      <point x="168" y="401" type="line" smooth="yes"/>
      <point x="160" y="393"/>
      <point x="159" y="386"/>
      <point x="167" y="380" type="curve" smooth="yes"/>
      <point x="175" y="374"/>
      <point x="182" y="375"/>
      <point x="189" y="383" type="curve" smooth="yes"/>
      <point x="460" y="680" type="line"/>
      <point x="539" y="387" type="line" smooth="yes"/>
      <point x="541" y="379"/>
      <point x="546" y="375"/>
      <point x="557" y="379" type="curve" smooth="yes"/>
      <point x="569" y="383"/>
      <point x="570" y="390"/>
      <point x="568" y="398" type="curve" smooth="yes"/>
      <point x="489" y="687" type="line" smooth="yes"/>
      <point x="484" y="704"/>
      <point x="482" y="712"/>
      <point x="468" y="712" type="curve" smooth="yes"/>
      <point x="455" y="712"/>
      <point x="447" y="704"/>
      <point x="431" y="687" type="curve" smooth="yes"/>
    </contour>
  </outline>
</glyph>
<glyph name="a" format="2">
  <advance width="623"/>
  <unicode hex="0061"/>
  <anchor x="230" y="0" name="bottom"/>
  <anchor x="508" y="13" name="ogonek"/>
  <anchor x="371" y="500" name="top"/>
  <outline>
    <contour>
      <point x="163" y="-17" type="curve" smooth="yes"/>
      <point x="248" y="-17"/>
      <point x="340" y="63"/>
      <point x="440" y="245" type="curve"/>
      <point x="424" y="193"/>
      <point x="406" y="141"/>
      <point x="390" y="89" type="curve" smooth="yes"/>
      <point x="366" y="16"/>
      <point x="386" y="-17"/>
      <point x="433" y="-17" type="curve" smooth="yes"/>
      <point x="493" y="-17"/>
      <point x="550" y="49"/>
      <point x="576" y="86" type="curve" smooth="yes"/>
      <point x="581" y="93"/>
      <point x="583" y="99"/>
      <point x="573" y="106" type="curve" smooth="yes"/>
      <point x="565" y="113"/>
      <point x="560" y="113"/>
      <point x="553" y="104" type="curve" smooth="yes"/>
      <point x="526" y="70"/>
      <point x="478" y="18"/>
      <point x="440" y="18" type="curve" smooth="yes"/>
      <point x="413" y="18"/>
      <point x="413" y="44"/>
      <point x="428" y="90" type="curve" smooth="yes"/>
      <point x="560" y="495" type="line" smooth="yes"/>
      <point x="564" y="506"/>
      <point x="559" y="515"/>
      <point x="545" y="515" type="curve" smooth="yes"/>
      <point x="531" y="515"/>
      <point x="525" y="511"/>
      <point x="521" y="500" type="curve" smooth="yes"/>
      <point x="515" y="479" type="line"/>
      <point x="475" y="505"/>
      <point x="425" y="519"/>
      <point x="381" y="519" type="curve" smooth="yes"/>
      <point x="175" y="519"/>
      <point x="50" y="284"/>
      <point x="50" y="131" type="curve" smooth="yes"/>
      <point x="50" y="40"/>
      <point x="95" y="-17"/>
    </contour>
    <contour>
      <point x="89" y="131" type="curve" smooth="yes"/>
      <point x="89" y="271"/>
      <point x="203" y="484"/>
      <point x="375" y="484" type="curve" smooth="yes"/>
      <point x="413" y="484"/>
      <point x="453" y="478"/>
      <point x="504" y="446" type="curve"/>
      <point x="488" y="395" type="line"/>
      <point x="370" y="143"/>
      <point x="251" y="18"/>
      <point x="169" y="18" type="curve" smooth="yes"/>
      <point x="115" y="18"/>
      <point x="89" y="64"/>
    </contour>
  </outline>
</glyph>
<glyph name="b" format="2">
  <advance width="478"/>
  <unicode hex="0062"/>
  <anchor x="193" y="0" name="bottom"/>
  <anchor x="258" y="200" name="center"/>
  <anchor x="323" y="400" name="top"/>
  <outline>
    <contour>
      <point x="42" y="-11" type="curve" smooth="yes"/>
      <point x="53" y="-11"/>
      <point x="57" y="-8"/>
      <point x="60" y="1" type="curve" smooth="yes"/>
      <point x="66" y="20" type="line"/>
      <point x="97" y="-3"/>
      <point x="138" y="-14"/>
      <point x="172" y="-14" type="curve" smooth="yes"/>
      <point x="338" y="-14"/>
      <point x="438" y="174"/>
      <point x="438" y="296" type="curve" smooth="yes"/>
      <point x="438" y="369"/>
      <point x="402" y="415"/>
      <point x="348" y="415" type="curve" smooth="yes"/>
      <point x="281" y="415"/>
      <point x="207" y="352"/>
      <point x="128" y="210" type="curve"/>
      <point x="288" y="701" type="line" smooth="yes"/>
      <point x="291" y="709"/>
      <point x="284" y="713"/>
      <point x="274" y="713" type="curve" smooth="yes"/>
      <point x="262" y="713"/>
      <point x="259" y="710"/>
      <point x="256" y="701" type="curve" smooth="yes"/>
      <point x="30" y="6" type="line" smooth="yes"/>
      <point x="27" y="-3"/>
      <point x="29" y="-11"/>
    </contour>
    <contour>
      <point x="74" y="43" type="curve"/>
      <point x="89" y="89" type="line"/>
      <point x="182" y="288"/>
      <point x="277" y="387"/>
      <point x="343" y="387" type="curve" smooth="yes"/>
      <point x="386" y="387"/>
      <point x="407" y="350"/>
      <point x="407" y="296" type="curve" smooth="yes"/>
      <point x="407" y="183"/>
      <point x="316" y="14"/>
      <point x="177" y="14" type="curve" smooth="yes"/>
      <point x="147" y="14"/>
      <point x="115" y="19"/>
    </contour>
  </outline>
</glyph>
<glyph name="d" format="2">
	<unicode hex="0064"/>
	<advance width="503"/>
	<outline>
		<contour>
			<point x="130" y="-14" type="curve" smooth="yes"/>
			<point x="198" y="-14"/>
			<point x="272" y="50"/>
			<point x="353" y="196" type="curve"/>
			<point x="340" y="155"/>
			<point x="326" y="114"/>
			<point x="313" y="73" type="curve" smooth="yes"/>
			<point x="295" y="16"/>
			<point x="310" y="-12"/>
			<point x="347" y="-12" type="curve" smooth="yes"/>
			<point x="396" y="-12"/>
			<point x="442" y="41"/>
			<point x="463" y="71" type="curve" smooth="yes"/>
			<point x="467" y="76"/>
			<point x="468" y="81"/>
			<point x="460" y="87" type="curve" smooth="yes"/>
			<point x="454" y="92"/>
			<point x="450" y="92"/>
			<point x="444" y="85" type="curve" smooth="yes"/>
			<point x="423" y="58"/>
			<point x="384" y="16"/>
			<point x="353" y="16" type="curve" smooth="yes"/>
			<point x="331" y="16"/>
			<point x="331" y="38"/>
			<point x="343" y="74" type="curve" smooth="yes"/>
			<point x="546" y="696" type="line" smooth="yes"/>
			<point x="549" y="705"/>
			<point x="545" y="712"/>
			<point x="534" y="712" type="curve" smooth="yes"/>
			<point x="523" y="712"/>
			<point x="518" y="709"/>
			<point x="515" y="700" type="curve" smooth="yes"/>
			<point x="413" y="383" type="line"/>
			<point x="382" y="404"/>
			<point x="341" y="415"/>
			<point x="306" y="415" type="curve" smooth="yes"/>
			<point x="140" y="415"/>
			<point x="40" y="227"/>
			<point x="40" y="105" type="curve" smooth="yes"/>
			<point x="40" y="32"/>
			<point x="76" y="-14"/>
		</contour>
		<contour>
			<point x="71" y="105" type="curve" smooth="yes"/>
			<point x="71" y="218"/>
			<point x="162" y="387"/>
			<point x="301" y="387" type="curve" smooth="yes"/>
			<point x="331" y="387"/>
			<point x="363" y="382"/>
			<point x="405" y="357" type="curve"/>
			<point x="391" y="316" type="line"/>
			<point x="297" y="114"/>
			<point x="201" y="14"/>
			<point x="135" y="14" type="curve" smooth="yes"/>
			<point x="92" y="14"/>
			<point x="71" y="51"/>
		</contour>
	</outline>
	<anchor name="bottom" x="137" y="0"/>
	<anchor name="center" x="466" y="558"/>
	<anchor name="top" x="274" y="400"/>
	<anchor name="topright" x="547" y="700"/>
</glyph>
<glyph name="e" format="2">
  <advance width="526"/>
  <unicode hex="0065"/>
  <anchor x="206" y="0" name="bottom"/>
  <anchor x="340" y="13" name="ogonek"/>
  <anchor x="345" y="500" name="top"/>
  <outline>
    <contour>
      <point x="221" y="-19" type="curve" smooth="yes"/>
      <point x="326" y="-19"/>
      <point x="414" y="60"/>
      <point x="456" y="110" type="curve" smooth="yes"/>
      <point x="464" y="120"/>
      <point x="460" y="128"/>
      <point x="454" y="133" type="curve" smooth="yes"/>
      <point x="446" y="139"/>
      <point x="440" y="139"/>
      <point x="431" y="130" type="curve" smooth="yes"/>
      <point x="395" y="90"/>
      <point x="320" y="15"/>
      <point x="230" y="15" type="curve" smooth="yes"/>
      <point x="144" y="15"/>
      <point x="104" y="68"/>
      <point x="104" y="168" type="curve" smooth="yes"/>
      <point x="104" y="329"/>
      <point x="210" y="485"/>
      <point x="369" y="485" type="curve" smooth="yes"/>
      <point x="426" y="485"/>
      <point x="460" y="460"/>
      <point x="460" y="411" type="curve" smooth="yes"/>
      <point x="460" y="289"/>
      <point x="253" y="241"/>
      <point x="98" y="223" type="curve"/>
      <point x="96" y="190" type="line"/>
      <point x="238" y="209"/>
      <point x="501" y="251"/>
      <point x="501" y="418" type="curve" smooth="yes"/>
      <point x="501" y="471"/>
      <point x="468" y="519"/>
      <point x="374" y="519" type="curve" smooth="yes"/>
      <point x="199" y="519"/>
      <point x="65" y="360"/>
      <point x="65" y="165" type="curve" smooth="yes"/>
      <point x="65" y="48"/>
      <point x="120" y="-19"/>
    </contour>
  </outline>
</glyph>
<glyph name="f" format="2">
	<unicode hex="0066"/>
	<advance width="293"/>
	<outline>
		<contour>
			<point x="-91" y="-315" type="curve" smooth="yes"/>
			<point x="-47" y="-315"/>
			<point x="-9" y="-287"/>
			<point x="12" y="-221" type="curve" smooth="yes"/>
			<point x="206" y="374" type="line"/>
			<point x="334" y="374" type="line" smooth="yes"/>
			<point x="339" y="374"/>
			<point x="345" y="379"/>
			<point x="347" y="388" type="curve" smooth="yes"/>
			<point x="349" y="397"/>
			<point x="345" y="400"/>
			<point x="340" y="400" type="curve" smooth="yes"/>
			<point x="215" y="400" type="line"/>
			<point x="277" y="591" type="line" smooth="yes"/>
			<point x="300" y="663"/>
			<point x="334" y="688"/>
			<point x="379" y="688" type="curve" smooth="yes"/>
			<point x="413" y="688"/>
			<point x="437" y="670"/>
			<point x="450" y="655" type="curve" smooth="yes"/>
			<point x="455" y="650"/>
			<point x="463" y="649"/>
			<point x="469" y="654" type="curve" smooth="yes"/>
			<point x="477" y="660"/>
			<point x="479" y="665"/>
			<point x="476" y="671" type="curve" smooth="yes"/>
			<point x="462" y="694"/>
			<point x="428" y="715"/>
			<point x="383" y="715" type="curve" smooth="yes"/>
			<point x="324" y="715"/>
			<point x="274" y="687"/>
			<point x="248" y="607" type="curve" smooth="yes"/>
			<point x="181" y="400" type="line"/>
			<point x="99" y="400" type="line" smooth="yes"/>
			<point x="94" y="400"/>
			<point x="89" y="396"/>
			<point x="87" y="387" type="curve" smooth="yes"/>
			<point x="85" y="378"/>
			<point x="89" y="374"/>
			<point x="94" y="374" type="curve" smooth="yes"/>
			<point x="172" y="374" type="line"/>
			<point x="-17" y="-210" type="line" smooth="yes"/>
			<point x="-35" y="-266"/>
			<point x="-58" y="-288"/>
			<point x="-89" y="-288" type="curve" smooth="yes"/>
			<point x="-121" y="-288"/>
			<point x="-143" y="-261"/>
			<point x="-160" y="-243" type="curve" smooth="yes"/>
			<point x="-166" y="-236"/>
			<point x="-170" y="-233"/>
			<point x="-178" y="-238" type="curve" smooth="yes"/>
			<point x="-187" y="-243"/>
			<point x="-193" y="-251"/>
			<point x="-187" y="-258" type="curve" smooth="yes"/>
			<point x="-169" y="-282"/>
			<point x="-135" y="-315"/>
		</contour>
	</outline>
</glyph>
<glyph name="g" format="2">
  <advance width="598"/>
  <unicode hex="0067"/>
  <anchor x="359" y="500" name="top"/>
  <outline>
    <contour>
      <point x="141" y="-394" type="curve" smooth="yes"/>
      <point x="253" y="-394"/>
      <point x="295" y="-322"/>
      <point x="340" y="-185" type="curve" smooth="yes"/>
      <point x="560" y="494" type="line" smooth="yes"/>
      <point x="564" y="505"/>
      <point x="561" y="515"/>
      <point x="545" y="515" type="curve" smooth="yes"/>
      <point x="531" y="515"/>
      <point x="526" y="511"/>
      <point x="523" y="500" type="curve" smooth="yes"/>
      <point x="301" y="-182" type="line" smooth="yes"/>
      <point x="264" y="-299"/>
      <point x="230" y="-359"/>
      <point x="145" y="-359" type="curve" smooth="yes"/>
      <point x="83" y="-359"/>
      <point x="31" y="-327"/>
      <point x="-21" y="-270" type="curve" smooth="yes"/>
      <point x="-27" y="-264"/>
      <point x="-34" y="-262"/>
      <point x="-44" y="-272" type="curve" smooth="yes"/>
      <point x="-55" y="-281"/>
      <point x="-54" y="-291"/>
      <point x="-47" y="-299" type="curve" smooth="yes"/>
      <point x="6" y="-357"/>
      <point x="68" y="-394"/>
    </contour>
    <contour>
      <point x="163" y="-17" type="curve" smooth="yes"/>
      <point x="264" y="-17"/>
      <point x="378" y="98"/>
      <point x="501" y="365" type="curve"/>
      <point x="493" y="403" type="line"/>
      <point x="374" y="145"/>
      <point x="253" y="18"/>
      <point x="169" y="18" type="curve" smooth="yes"/>
      <point x="115" y="18"/>
      <point x="89" y="64"/>
      <point x="89" y="131" type="curve" smooth="yes"/>
      <point x="89" y="273"/>
      <point x="203" y="484"/>
      <point x="376" y="484" type="curve" smooth="yes"/>
      <point x="415" y="484"/>
      <point x="458" y="478"/>
      <point x="513" y="443" type="curve"/>
      <point x="524" y="474" type="line"/>
      <point x="484" y="503"/>
      <point x="429" y="519"/>
      <point x="383" y="519" type="curve" smooth="yes"/>
      <point x="175" y="519"/>
      <point x="50" y="284"/>
      <point x="50" y="131" type="curve" smooth="yes"/>
      <point x="50" y="40"/>
      <point x="95" y="-17"/>
    </contour>
  </outline>
</glyph>
<glyph name="h" format="2">
  <advance width="652"/>
  <unicode hex="0068"/>
  <anchor x="255" y="0" name="bottom"/>
  <anchor x="309" y="698" name="center"/>
  <anchor x="331" y="838" name="top"/>
  <outline>
    <contour>
      <point x="461" y="-15" type="curve" smooth="yes"/>
      <point x="522" y="-15"/>
      <point x="581" y="51"/>
      <point x="607" y="89" type="curve" smooth="yes"/>
      <point x="612" y="95"/>
      <point x="614" y="101"/>
      <point x="604" y="109" type="curve" smooth="yes"/>
      <point x="596" y="115"/>
      <point x="591" y="115"/>
      <point x="584" y="106" type="curve" smooth="yes"/>
      <point x="557" y="73"/>
      <point x="510" y="20"/>
      <point x="469" y="20" type="curve" smooth="yes"/>
      <point x="441" y="20"/>
      <point x="441" y="46"/>
      <point x="460" y="103" type="curve" smooth="yes"/>
      <point x="545" y="350" type="line" smooth="yes"/>
      <point x="587" y="474"/>
      <point x="536" y="519"/>
      <point x="469" y="519" type="curve" smooth="yes"/>
      <point x="390" y="519"/>
      <point x="267" y="451"/>
      <point x="152" y="234" type="curve"/>
      <point x="361" y="874" type="line" smooth="yes"/>
      <point x="365" y="884"/>
      <point x="357" y="890"/>
      <point x="345" y="890" type="curve" smooth="yes"/>
      <point x="330" y="890"/>
      <point x="325" y="886"/>
      <point x="321" y="875" type="curve" smooth="yes"/>
      <point x="36" y="0" type="line" smooth="yes"/>
      <point x="32" y="-10"/>
      <point x="41" y="-15"/>
      <point x="54" y="-15" type="curve" smooth="yes"/>
      <point x="69" y="-15"/>
      <point x="72" y="-11"/>
      <point x="76" y="0" type="curve" smooth="yes"/>
      <point x="94" y="54" type="line"/>
      <point x="235" y="396"/>
      <point x="379" y="484"/>
      <point x="464" y="484" type="curve" smooth="yes"/>
      <point x="520" y="484"/>
      <point x="539" y="443"/>
      <point x="505" y="344" type="curve" smooth="yes"/>
      <point x="422" y="101" type="line" smooth="yes"/>
      <point x="395" y="19"/>
      <point x="415" y="-15"/>
    </contour>
  </outline>
</glyph>
<glyph name="j" format="2">
	<unicode hex="006A"/>
	<advance width="214"/>
	<outline>
		<contour>
			<point x="-110" y="-314" type="curve" smooth="yes"/>
			<point x="-58" y="-314"/>
			<point x="-37" y="-288"/>
			<point x="-15" y="-219" type="curve" smooth="yes"/>
			<point x="186" y="399" type="line" smooth="yes"/>
			<point x="188" y="406"/>
			<point x="183" y="412"/>
			<point x="173" y="412" type="curve" smooth="yes"/>
			<point x="161" y="412"/>
			<point x="158" y="409"/>
			<point x="155" y="400" type="curve" smooth="yes"/>
			<point x="-45" y="-216" type="line" smooth="yes"/>
			<point x="-62" y="-270"/>
			<point x="-76" y="-284"/>
			<point x="-108" y="-284" type="curve" smooth="yes"/>
			<point x="-138" y="-284"/>
			<point x="-163" y="-266"/>
			<point x="-184" y="-245" type="curve" smooth="yes"/>
			<point x="-191" y="-238"/>
			<point x="-199" y="-235"/>
			<point x="-207" y="-243" type="curve" smooth="yes"/>
			<point x="-217" y="-252"/>
			<point x="-215" y="-260"/>
			<point x="-209" y="-266" type="curve" smooth="yes"/>
			<point x="-184" y="-293"/>
			<point x="-145" y="-314"/>
		</contour>
		<contour>
			<point x="219" y="552" type="curve" smooth="yes"/>
			<point x="244" y="552"/>
			<point x="259" y="574"/>
			<point x="259" y="597" type="curve" smooth="yes"/>
			<point x="259" y="613"/>
			<point x="247" y="620"/>
			<point x="230" y="620" type="curve" smooth="yes"/>
			<point x="205" y="620"/>
			<point x="190" y="598"/>
			<point x="190" y="575" type="curve" smooth="yes"/>
			<point x="190" y="559"/>
			<point x="201" y="552"/>
		</contour>
	</outline>
</glyph>
<glyph name="l" format="2">
	<unicode hex="006C"/>
	<advance width="239"/>
	<outline>
		<contour>
			<point x="81" y="-12" type="curve" smooth="yes"/>
			<point x="131" y="-12"/>
			<point x="178" y="41"/>
			<point x="199" y="71" type="curve" smooth="yes"/>
			<point x="203" y="76"/>
			<point x="204" y="81"/>
			<point x="196" y="87" type="curve" smooth="yes"/>
			<point x="190" y="92"/>
			<point x="186" y="92"/>
			<point x="180" y="85" type="curve" smooth="yes"/>
			<point x="159" y="58"/>
			<point x="121" y="16"/>
			<point x="87" y="16" type="curve" smooth="yes"/>
			<point x="65" y="16"/>
			<point x="66" y="39"/>
			<point x="80" y="82" type="curve" smooth="yes"/>
			<point x="284" y="698" type="line" smooth="yes"/>
			<point x="287" y="706"/>
			<point x="281" y="712"/>
			<point x="271" y="712" type="curve" smooth="yes"/>
			<point x="259" y="712"/>
			<point x="256" y="709"/>
			<point x="253" y="700" type="curve" smooth="yes"/>
			<point x="49" y="81" type="line" smooth="yes"/>
			<point x="28" y="18"/>
			<point x="44" y="-12"/>
		</contour>
	</outline>
	<anchor name="bottom" x="93" y="0"/>
	<anchor name="center" x="154" y="350"/>
	<anchor name="top" x="260" y="670"/>
	<anchor name="topright" x="283" y="699"/>
</glyph>
<glyph name="m" format="2">
  <advance width="964"/>
  <unicode hex="006D"/>
  <anchor x="388" y="0" name="bottom"/>
  <anchor x="539" y="500" name="top"/>
  <outline>
    <contour>
      <point x="773" y="-15" type="curve" smooth="yes"/>
      <point x="834" y="-15"/>
      <point x="893" y="51"/>
      <point x="919" y="89" type="curve" smooth="yes"/>
      <point x="924" y="95"/>
      <point x="925" y="101"/>
      <point x="915" y="109" type="curve" smooth="yes"/>
      <point x="908" y="115"/>
      <point x="903" y="115"/>
      <point x="895" y="106" type="curve" smooth="yes"/>
      <point x="869" y="73"/>
      <point x="821" y="20"/>
      <point x="780" y="20" type="curve" smooth="yes"/>
      <point x="753" y="20"/>
      <point x="753" y="46"/>
      <point x="771" y="103" type="curve" smooth="yes"/>
      <point x="856" y="350" type="line" smooth="yes"/>
      <point x="899" y="474"/>
      <point x="851" y="519"/>
      <point x="789" y="519" type="curve" smooth="yes"/>
      <point x="684" y="519"/>
      <point x="515" y="371"/>
      <point x="409" y="48" type="curve"/>
      <point x="424" y="48" type="line"/>
      <point x="566" y="395"/>
      <point x="708" y="484"/>
      <point x="784" y="484" type="curve" smooth="yes"/>
      <point x="835" y="484"/>
      <point x="850" y="443"/>
      <point x="816" y="344" type="curve" smooth="yes"/>
      <point x="734" y="101" type="line" smooth="yes"/>
      <point x="705" y="19"/>
      <point x="725" y="-15"/>
    </contour>
    <contour>
      <point x="49" y="-15" type="curve" smooth="yes"/>
      <point x="64" y="-15"/>
      <point x="68" y="-11"/>
      <point x="71" y="0" type="curve" smooth="yes"/>
      <point x="89" y="55" type="line"/>
      <point x="231" y="396"/>
      <point x="371" y="484"/>
      <point x="450" y="484" type="curve" smooth="yes"/>
      <point x="505" y="484"/>
      <point x="520" y="443"/>
      <point x="486" y="344" type="curve" smooth="yes"/>
      <point x="369" y="0" type="line" smooth="yes"/>
      <point x="365" y="-10"/>
      <point x="374" y="-15"/>
      <point x="386" y="-15" type="curve" smooth="yes"/>
      <point x="401" y="-15"/>
      <point x="405" y="-11"/>
      <point x="409" y="0" type="curve" smooth="yes"/>
      <point x="526" y="350" type="line" smooth="yes"/>
      <point x="568" y="474"/>
      <point x="521" y="519"/>
      <point x="455" y="519" type="curve" smooth="yes"/>
      <point x="381" y="519"/>
      <point x="262" y="451"/>
      <point x="147" y="234" type="curve"/>
      <point x="233" y="498" type="line" smooth="yes"/>
      <point x="236" y="508"/>
      <point x="229" y="515"/>
      <point x="216" y="515" type="curve" smooth="yes"/>
      <point x="201" y="515"/>
      <point x="198" y="511"/>
      <point x="194" y="500" type="curve" smooth="yes"/>
      <point x="31" y="0" type="line" smooth="yes"/>
      <point x="28" y="-10"/>
      <point x="36" y="-15"/>
    </contour>
  </outline>
</glyph>
<glyph name="p" format="2">
  <advance width="478"/>
  <unicode hex="0070"/>
  <outline>
    <contour>
      <point x="-56" y="-312" type="curve" smooth="yes"/>
      <point x="-45" y="-312"/>
      <point x="-41" y="-309"/>
      <point x="-38" y="-300" type="curve" smooth="yes"/>
      <point x="66" y="20" type="line"/>
      <point x="97" y="-3"/>
      <point x="138" y="-14"/>
      <point x="172" y="-14" type="curve" smooth="yes"/>
      <point x="338" y="-14"/>
      <point x="438" y="174"/>
      <point x="438" y="297" type="curve" smooth="yes"/>
      <point x="438" y="370"/>
      <point x="402" y="415"/>
      <point x="348" y="415" type="curve" smooth="yes"/>
      <point x="281" y="415"/>
      <point x="208" y="352"/>
      <point x="128" y="210" type="curve"/>
      <point x="190" y="400" type="line" smooth="yes"/>
      <point x="193" y="408"/>
      <point x="186" y="412"/>
      <point x="176" y="412" type="curve" smooth="yes"/>
      <point x="164" y="412"/>
      <point x="161" y="409"/>
      <point x="158" y="400" type="curve" smooth="yes"/>
      <point x="-68" y="-295" type="line" smooth="yes"/>
      <point x="-71" y="-304"/>
      <point x="-69" y="-312"/>
    </contour>
    <contour>
      <point x="74" y="43" type="curve"/>
      <point x="89" y="89" type="line"/>
      <point x="182" y="288"/>
      <point x="277" y="387"/>
      <point x="343" y="387" type="curve" smooth="yes"/>
      <point x="386" y="387"/>
      <point x="407" y="350"/>
      <point x="407" y="296" type="curve" smooth="yes"/>
      <point x="407" y="183"/>
      <point x="316" y="14"/>
      <point x="177" y="14" type="curve" smooth="yes"/>
      <point x="147" y="14"/>
      <point x="115" y="19"/>
    </contour>
  </outline>
</glyph>
<glyph name="q" format="2">
  <advance width="478"/>
  <unicode hex="0071"/>
  <outline>
    <contour>
      <point x="132" y="-14" type="curve" smooth="yes"/>
      <point x="199" y="-14"/>
      <point x="273" y="49"/>
      <point x="352" y="191" type="curve"/>
      <point x="192" y="-300" type="line" smooth="yes"/>
      <point x="189" y="-308"/>
      <point x="196" y="-312"/>
      <point x="206" y="-312" type="curve" smooth="yes"/>
      <point x="218" y="-312"/>
      <point x="221" y="-309"/>
      <point x="224" y="-300" type="curve" smooth="yes"/>
      <point x="450" y="395" type="line" smooth="yes"/>
      <point x="453" y="404"/>
      <point x="451" y="412"/>
      <point x="438" y="412" type="curve" smooth="yes"/>
      <point x="427" y="412"/>
      <point x="423" y="409"/>
      <point x="420" y="400" type="curve" smooth="yes"/>
      <point x="415" y="383" type="line"/>
      <point x="383" y="404"/>
      <point x="343" y="415"/>
      <point x="308" y="415" type="curve" smooth="yes"/>
      <point x="142" y="415"/>
      <point x="42" y="227"/>
      <point x="42" y="105" type="curve" smooth="yes"/>
      <point x="42" y="32"/>
      <point x="78" y="-14"/>
    </contour>
    <contour>
      <point x="73" y="105" type="curve" smooth="yes"/>
      <point x="73" y="218"/>
      <point x="164" y="387"/>
      <point x="303" y="387" type="curve" smooth="yes"/>
      <point x="333" y="387"/>
      <point x="365" y="382"/>
      <point x="406" y="358" type="curve"/>
      <point x="391" y="312" type="line"/>
      <point x="298" y="113"/>
      <point x="203" y="14"/>
      <point x="137" y="14" type="curve" smooth="yes"/>
      <point x="94" y="14"/>
      <point x="73" y="51"/>
    </contour>
  </outline>
</glyph>
<glyph name="r" format="2">
  <advance width="363"/>
  <unicode hex="0072"/>
  <anchor x="41" y="0" name="bottom"/>
  <anchor x="268" y="400" name="top"/>
  <outline>
    <contour>
      <point x="35" y="-12" type="curve" smooth="yes"/>
      <point x="45" y="-12"/>
      <point x="51" y="-9"/>
      <point x="54" y="0" type="curve" smooth="yes"/>
      <point x="68" y="43" type="line"/>
      <point x="193" y="325"/>
      <point x="267" y="388"/>
      <point x="331" y="388" type="curve" smooth="yes"/>
      <point x="358" y="388"/>
      <point x="375" y="374"/>
      <point x="385" y="364" type="curve" smooth="yes"/>
      <point x="391" y="358"/>
      <point x="397" y="359"/>
      <point x="404" y="365" type="curve" smooth="yes"/>
      <point x="409" y="370"/>
      <point x="412" y="375"/>
      <point x="409" y="380" type="curve" smooth="yes"/>
      <point x="399" y="399"/>
      <point x="371" y="415"/>
      <point x="339" y="415" type="curve" smooth="yes"/>
      <point x="282" y="415"/>
      <point x="211" y="380"/>
      <point x="117" y="191" type="curve"/>
      <point x="185" y="398" type="line" smooth="yes"/>
      <point x="188" y="407"/>
      <point x="183" y="412"/>
      <point x="173" y="412" type="curve" smooth="yes"/>
      <point x="163" y="412"/>
      <point x="158" y="409"/>
      <point x="155" y="400" type="curve" smooth="yes"/>
      <point x="25" y="0" type="line" smooth="yes"/>
      <point x="22" y="-9"/>
      <point x="25" y="-12"/>
    </contour>
  </outline>
</glyph>
<glyph name="t" format="2">
  <advance width="388"/>
  <unicode hex="0074"/>
  <anchor x="140" y="0" name="bottom"/>
  <anchor x="200" y="294" name="center"/>
  <anchor x="306" y="698" name="top"/>
  <anchor x="354" y="781" name="topright"/>
  <outline>
    <contour>
      <point x="140" y="-15" type="curve" smooth="yes"/>
      <point x="194" y="-15"/>
      <point x="258" y="29"/>
      <point x="309" y="101" type="curve" smooth="yes"/>
      <point x="314" y="108"/>
      <point x="315" y="114"/>
      <point x="305" y="121" type="curve" smooth="yes"/>
      <point x="298" y="128"/>
      <point x="293" y="128"/>
      <point x="285" y="119" type="curve" smooth="yes"/>
      <point x="238" y="58"/>
      <point x="189" y="20"/>
      <point x="150" y="20" type="curve" smooth="yes"/>
      <point x="108" y="20"/>
      <point x="108" y="46"/>
      <point x="130" y="114" type="curve" smooth="yes"/>
      <point x="246" y="468" type="line"/>
      <point x="378" y="468" type="line" smooth="yes"/>
      <point x="390" y="468"/>
      <point x="395" y="471"/>
      <point x="399" y="484" type="curve" smooth="yes"/>
      <point x="403" y="494"/>
      <point x="401" y="500"/>
      <point x="388" y="500" type="curve" smooth="yes"/>
      <point x="258" y="500" type="line"/>
      <point x="328" y="714" type="line" smooth="yes"/>
      <point x="331" y="724"/>
      <point x="324" y="730"/>
      <point x="311" y="730" type="curve" smooth="yes"/>
      <point x="296" y="730"/>
      <point x="291" y="726"/>
      <point x="288" y="715" type="curve" smooth="yes"/>
      <point x="218" y="500" type="line"/>
      <point x="141" y="500" type="line" smooth="yes"/>
      <point x="129" y="500"/>
      <point x="124" y="496"/>
      <point x="120" y="485" type="curve" smooth="yes"/>
      <point x="116" y="474"/>
      <point x="118" y="468"/>
      <point x="131" y="468" type="curve" smooth="yes"/>
      <point x="208" y="468" type="line"/>
      <point x="91" y="113" type="line" smooth="yes"/>
      <point x="60" y="15"/>
      <point x="85" y="-15"/>
    </contour>
  </outline>
</glyph>
<glyph name="u" format="2">
  <advance width="646"/>
  <unicode hex="0075"/>
  <guideline x="311" y="401" angle="72"/>
  <anchor x="219" y="0" name="bottom"/>
  <anchor x="524" y="13" name="ogonek"/>
  <anchor x="381" y="500" name="top"/>
  <anchor x="553" y="514" name="topright"/>
  <outline>
    <contour>
      <point x="154" y="-17" type="curve" smooth="yes"/>
      <point x="238" y="-17"/>
      <point x="383" y="70"/>
      <point x="510" y="366" type="curve"/>
      <point x="526" y="456" type="line"/>
      <point x="384" y="106"/>
      <point x="239" y="18"/>
      <point x="159" y="18" type="curve" smooth="yes"/>
      <point x="106" y="18"/>
      <point x="89" y="59"/>
      <point x="121" y="158" type="curve" smooth="yes"/>
      <point x="234" y="498" type="line" smooth="yes"/>
      <point x="238" y="508"/>
      <point x="230" y="515"/>
      <point x="218" y="515" type="curve" smooth="yes"/>
      <point x="203" y="515"/>
      <point x="199" y="511"/>
      <point x="195" y="500" type="curve" smooth="yes"/>
      <point x="80" y="151" type="line" smooth="yes"/>
      <point x="39" y="28"/>
      <point x="90" y="-17"/>
    </contour>
    <contour>
      <point x="449" y="-17" type="curve" smooth="yes"/>
      <point x="510" y="-17"/>
      <point x="569" y="49"/>
      <point x="595" y="86" type="curve" smooth="yes"/>
      <point x="600" y="93"/>
      <point x="601" y="99"/>
      <point x="591" y="106" type="curve" smooth="yes"/>
      <point x="584" y="113"/>
      <point x="579" y="113"/>
      <point x="571" y="104" type="curve" smooth="yes"/>
      <point x="545" y="70"/>
      <point x="498" y="18"/>
      <point x="456" y="18" type="curve" smooth="yes"/>
      <point x="429" y="18"/>
      <point x="429" y="44"/>
      <point x="448" y="100" type="curve" smooth="yes"/>
      <point x="580" y="501" type="line"/>
      <point x="584" y="511"/>
      <point x="575" y="516"/>
      <point x="563" y="516" type="curve" smooth="yes"/>
      <point x="548" y="516"/>
      <point x="544" y="513"/>
      <point x="540" y="501" type="curve" smooth="yes"/>
      <point x="410" y="99" type="line" smooth="yes"/>
      <point x="383" y="15"/>
      <point x="403" y="-17"/>
    </contour>
  </outline>
</glyph>
<glyph name="x" format="2">
	<unicode hex="0078"/>
	<advance width="427"/>
	<outline>
		<contour>
			<point x="319" y="9" type="curve" smooth="yes"/>
			<point x="232" y="199" type="line"/>
			<point x="443" y="388" type="line" smooth="yes"/>
			<point x="455" y="399"/>
			<point x="441" y="412"/>
			<point x="432" y="412" type="curve" smooth="yes"/>
			<point x="427" y="412"/>
			<point x="422" y="408"/>
			<point x="417" y="403" type="curve" smooth="yes"/>
			<point x="220" y="226" type="line"/>
			<point x="140" y="400" type="line" smooth="yes"/>
			<point x="137" y="408"/>
			<point x="133" y="412"/>
			<point x="127" y="412" type="curve" smooth="yes"/>
			<point x="115" y="412"/>
			<point x="106" y="404"/>
			<point x="112" y="391" type="curve" smooth="yes"/>
			<point x="196" y="206" type="line"/>
			<point x="-17" y="16" type="line" smooth="yes"/>
			<point x="-32" y="4"/>
			<point x="-20" y="-11"/>
			<point x="-9" y="-11" type="curve" smooth="yes"/>
			<point x="-5" y="-11"/>
			<point x="0" y="-8"/>
			<point x="5" y="-3" type="curve" smooth="yes"/>
			<point x="208" y="178" type="line"/>
			<point x="290" y="-2" type="line" smooth="yes"/>
			<point x="292" y="-6"/>
			<point x="295" y="-11"/>
			<point x="303" y="-11" type="curve" smooth="yes"/>
			<point x="314" y="-11"/>
			<point x="324" y="-3"/>
		</contour>
	</outline>
</glyph>
<glyph name="y" format="2">
  <advance width="492"/>
  <unicode hex="0079"/>
  <anchor x="181" y="0" name="bottom"/>
  <anchor x="297" y="400" name="top"/>
  <outline>
    <contour>
      <point x="123" y="-12" type="curve" smooth="yes"/>
      <point x="180" y="-12"/>
      <point x="280" y="43"/>
      <point x="373" y="218" type="curve"/>
      <point x="255" y="-146" type="line" smooth="yes"/>
      <point x="225" y="-239"/>
      <point x="198" y="-287"/>
      <point x="130" y="-287" type="curve" smooth="yes"/>
      <point x="80" y="-287"/>
      <point x="39" y="-262"/>
      <point x="-3" y="-216" type="curve" smooth="yes"/>
      <point x="-8" y="-211"/>
      <point x="-13" y="-210"/>
      <point x="-21" y="-218" type="curve" smooth="yes"/>
      <point x="-30" y="-225"/>
      <point x="-29" y="-233"/>
      <point x="-24" y="-239" type="curve" smooth="yes"/>
      <point x="19" y="-286"/>
      <point x="68" y="-315"/>
      <point x="127" y="-315" type="curve" smooth="yes"/>
      <point x="216" y="-315"/>
      <point x="250" y="-258"/>
      <point x="286" y="-148" type="curve" smooth="yes"/>
      <point x="462" y="395" type="line" smooth="yes"/>
      <point x="465" y="404"/>
      <point x="463" y="412"/>
      <point x="450" y="412" type="curve" smooth="yes"/>
      <point x="439" y="412"/>
      <point x="435" y="409"/>
      <point x="432" y="400" type="curve" smooth="yes"/>
      <point x="419" y="361" type="line"/>
      <point x="306" y="86"/>
      <point x="189" y="16"/>
      <point x="127" y="16" type="curve" smooth="yes"/>
      <point x="85" y="16"/>
      <point x="72" y="49"/>
      <point x="98" y="128" type="curve" smooth="yes"/>
      <point x="188" y="398" type="line" smooth="yes"/>
      <point x="191" y="406"/>
      <point x="185" y="412"/>
      <point x="175" y="412" type="curve" smooth="yes"/>
      <point x="163" y="412"/>
      <point x="160" y="409"/>
      <point x="157" y="400" type="curve" smooth="yes"/>
      <point x="65" y="123" type="line" smooth="yes"/>
      <point x="32" y="24"/>
      <point x="72" y="-12"/>
    </contour>
  </outline>
</glyph>
<glyph name="bar" format="2">
  <advance width="388"/>
  <unicode hex="007C"/>
  <outline>
    <contour>
      <point x="88" y="-76" type="curve" smooth="yes"/>
      <point x="101" y="-76"/>
      <point x="108" y="-72"/>
      <point x="111" y="-61" type="curve" smooth="yes"/>
      <point x="436" y="939" type="line" smooth="yes"/>
      <point x="440" y="950"/>
      <point x="435" y="954"/>
      <point x="423" y="954" type="curve" smooth="yes"/>
      <point x="409" y="954"/>
      <point x="403" y="950"/>
      <point x="399" y="939" type="curve" smooth="yes"/>
      <point x="74" y="-61" type="line" smooth="yes"/>
      <point x="70" y="-72"/>
      <point x="74" y="-76"/>
    </contour>
  </outline>
</glyph>
<glyph name="cent" format="2">
  <advance width="424"/>
  <unicode hex="00A2"/>
  <outline>
    <contour>
      <point x="184" y="-15" type="curve" smooth="yes"/>
      <point x="251" y="-15"/>
      <point x="320" y="27"/>
      <point x="369" y="88" type="curve" smooth="yes"/>
      <point x="374" y="94"/>
      <point x="373" y="101"/>
      <point x="368" y="105" type="curve" smooth="yes"/>
      <point x="364" y="109"/>
      <point x="358" y="112"/>
      <point x="351" y="105" type="curve" smooth="yes"/>
      <point x="299" y="48"/>
      <point x="249" y="12"/>
      <point x="187" y="12" type="curve" smooth="yes"/>
      <point x="123" y="12"/>
      <point x="89" y="55"/>
      <point x="89" y="134" type="curve" smooth="yes"/>
      <point x="89" y="265"/>
      <point x="173" y="388"/>
      <point x="294" y="388" type="curve" smooth="yes"/>
      <point x="347" y="388"/>
      <point x="375" y="370"/>
      <point x="396" y="345" type="curve" smooth="yes"/>
      <point x="401" y="338"/>
      <point x="407" y="336"/>
      <point x="413" y="341" type="curve" smooth="yes"/>
      <point x="423" y="348"/>
      <point x="422" y="352"/>
      <point x="420" y="357" type="curve" smooth="yes"/>
      <point x="404" y="388"/>
      <point x="356" y="415"/>
      <point x="298" y="415" type="curve" smooth="yes"/>
      <point x="161" y="415"/>
      <point x="58" y="289"/>
      <point x="58" y="134" type="curve" smooth="yes"/>
      <point x="58" y="41"/>
      <point x="101" y="-15"/>
    </contour>
    <contour>
      <point x="127" y="-101" type="curve" smooth="yes"/>
      <point x="138" y="-101"/>
      <point x="143" y="-98"/>
      <point x="146" y="-89" type="curve" smooth="yes"/>
      <point x="337" y="500" type="line" smooth="yes"/>
      <point x="340" y="509"/>
      <point x="336" y="512"/>
      <point x="326" y="512" type="curve" smooth="yes"/>
      <point x="315" y="512"/>
      <point x="310" y="509"/>
      <point x="307" y="500" type="curve" smooth="yes"/>
      <point x="116" y="-89" type="line" smooth="yes"/>
      <point x="113" y="-98"/>
      <point x="116" y="-101"/>
    </contour>
  </outline>
</glyph>
<glyph name="sterling" format="2">
  <advance width="540"/>
  <unicode hex="00A3"/>
  <outline>
    <contour>
      <point x="99" y="15" type="line"/>
      <point x="129" y="15" type="line"/>
      <point x="305" y="557" type="line" smooth="yes"/>
      <point x="331" y="638"/>
      <point x="379" y="682"/>
      <point x="444" y="682" type="curve" smooth="yes"/>
      <point x="503" y="682"/>
      <point x="552" y="659"/>
      <point x="593" y="620" type="curve" smooth="yes"/>
      <point x="599" y="614"/>
      <point x="605" y="613"/>
      <point x="615" y="621" type="curve" smooth="yes"/>
      <point x="624" y="629"/>
      <point x="623" y="637"/>
      <point x="617" y="643" type="curve" smooth="yes"/>
      <point x="577" y="684"/>
      <point x="516" y="712"/>
      <point x="448" y="712" type="curve" smooth="yes"/>
      <point x="363" y="712"/>
      <point x="309" y="660"/>
      <point x="276" y="559" type="curve" smooth="yes"/>
    </contour>
    <contour>
      <point x="95" y="288" type="curve" smooth="yes"/>
      <point x="401" y="288" type="line" smooth="yes"/>
      <point x="406" y="288"/>
      <point x="412" y="293"/>
      <point x="415" y="303" type="curve" smooth="yes"/>
      <point x="418" y="313"/>
      <point x="415" y="316"/>
      <point x="410" y="316" type="curve" smooth="yes"/>
      <point x="104" y="316" type="line" smooth="yes"/>
      <point x="99" y="316"/>
      <point x="94" y="312"/>
      <point x="90" y="302" type="curve" smooth="yes"/>
      <point x="87" y="292"/>
      <point x="90" y="288"/>
    </contour>
    <contour>
      <point x="437" y="0" type="line" smooth="yes"/>
      <point x="442" y="0"/>
      <point x="448" y="5"/>
      <point x="451" y="15" type="curve" smooth="yes"/>
      <point x="454" y="25"/>
      <point x="451" y="28"/>
      <point x="446" y="28" type="curve" smooth="yes"/>
      <point x="-9" y="28" type="line" smooth="yes"/>
      <point x="-14" y="28"/>
      <point x="-19" y="25"/>
      <point x="-22" y="15" type="curve" smooth="yes"/>
      <point x="-25" y="5"/>
      <point x="-23" y="0"/>
      <point x="-18" y="0" type="curve" smooth="yes"/>
    </contour>
  </outline>
</glyph>
<glyph name="yen" format="2">
  <advance width="668"/>
  <unicode hex="00A5"/>
  <outline>
    <contour>
      <point x="255" y="-14" type="curve" smooth="yes"/>
      <point x="269" y="-14"/>
      <point x="276" y="-10"/>
      <point x="280" y="1" type="curve" smooth="yes"/>
      <point x="404" y="383" type="line"/>
      <point x="820" y="863" type="line" smooth="yes"/>
      <point x="829" y="873"/>
      <point x="828" y="879"/>
      <point x="820" y="886" type="curve" smooth="yes"/>
      <point x="809" y="896"/>
      <point x="803" y="894"/>
      <point x="786" y="875" type="curve" smooth="yes"/>
      <point x="393" y="419" type="line"/>
      <point x="279" y="875" type="line" smooth="yes"/>
      <point x="276" y="886"/>
      <point x="273" y="890"/>
      <point x="259" y="890" type="curve" smooth="yes"/>
      <point x="249" y="890"/>
      <point x="240" y="885"/>
      <point x="245" y="866" type="curve" smooth="yes"/>
      <point x="366" y="384" type="line"/>
      <point x="241" y="1" type="line" smooth="yes"/>
      <point x="238" y="-10"/>
      <point x="241" y="-14"/>
    </contour>
    <contour>
      <point x="141" y="373" type="curve" smooth="yes"/>
      <point x="619" y="373" type="line" smooth="yes"/>
      <point x="625" y="373"/>
      <point x="633" y="379"/>
      <point x="636" y="391" type="curve" smooth="yes"/>
      <point x="640" y="404"/>
      <point x="636" y="408"/>
      <point x="630" y="408" type="curve" smooth="yes"/>
      <point x="153" y="408" type="line" smooth="yes"/>
      <point x="146" y="408"/>
      <point x="140" y="403"/>
      <point x="136" y="390" type="curve" smooth="yes"/>
      <point x="133" y="378"/>
      <point x="135" y="373"/>
    </contour>
    <contour>
      <point x="100" y="243" type="curve" smooth="yes"/>
      <point x="578" y="243" type="line" smooth="yes"/>
      <point x="584" y="243"/>
      <point x="590" y="249"/>
      <point x="594" y="261" type="curve" smooth="yes"/>
      <point x="599" y="274"/>
      <point x="595" y="278"/>
      <point x="589" y="278" type="curve" smooth="yes"/>
      <point x="111" y="278" type="line" smooth="yes"/>
      <point x="105" y="278"/>
      <point x="98" y="273"/>
      <point x="94" y="260" type="curve" smooth="yes"/>
      <point x="90" y="248"/>
      <point x="94" y="243"/>
    </contour>
  </outline>
</glyph>
<glyph name="section" format="2">
  <advance width="666"/>
  <unicode hex="00A7"/>
  <outline>
    <contour>
      <point x="610" y="248" type="curve" smooth="yes"/>
      <point x="610" y="443"/>
      <point x="303" y="485"/>
      <point x="303" y="680" type="curve" smooth="yes"/>
      <point x="303" y="786"/>
      <point x="374" y="853"/>
      <point x="481" y="853" type="curve" smooth="yes"/>
      <point x="553" y="853"/>
      <point x="620" y="816"/>
      <point x="684" y="754" type="curve" smooth="yes"/>
      <point x="690" y="746"/>
      <point x="696" y="741"/>
      <point x="708" y="751" type="curve" smooth="yes"/>
      <point x="719" y="759"/>
      <point x="719" y="764"/>
      <point x="710" y="775" type="curve" smooth="yes"/>
      <point x="659" y="838"/>
      <point x="568" y="890"/>
      <point x="481" y="890" type="curve" smooth="yes"/>
      <point x="353" y="890"/>
      <point x="263" y="811"/>
      <point x="263" y="678" type="curve" smooth="yes"/>
      <point x="263" y="456"/>
      <point x="570" y="421"/>
      <point x="570" y="244" type="curve" smooth="yes"/>
      <point x="570" y="134"/>
      <point x="479" y="68"/>
      <point x="348" y="26" type="curve"/>
      <point x="379" y="1" type="line"/>
      <point x="514" y="45"/>
      <point x="610" y="124"/>
    </contour>
    <contour>
      <point x="110" y="286" type="curve" smooth="yes"/>
      <point x="110" y="98"/>
      <point x="415" y="54"/>
      <point x="415" y="-160" type="curve" smooth="yes"/>
      <point x="415" y="-294"/>
      <point x="298" y="-356"/>
      <point x="203" y="-356" type="curve" smooth="yes"/>
      <point x="110" y="-356"/>
      <point x="35" y="-309"/>
      <point x="-5" y="-257" type="curve" smooth="yes"/>
      <point x="-12" y="-247"/>
      <point x="-19" y="-241"/>
      <point x="-31" y="-250" type="curve" smooth="yes"/>
      <point x="-44" y="-259"/>
      <point x="-41" y="-266"/>
      <point x="-36" y="-275" type="curve" smooth="yes"/>
      <point x="-9" y="-319"/>
      <point x="79" y="-394"/>
      <point x="199" y="-394" type="curve" smooth="yes"/>
      <point x="325" y="-394"/>
      <point x="455" y="-314"/>
      <point x="455" y="-156" type="curve" smooth="yes"/>
      <point x="455" y="78"/>
      <point x="150" y="125"/>
      <point x="150" y="290" type="curve" smooth="yes"/>
      <point x="150" y="400"/>
      <point x="229" y="464"/>
      <point x="360" y="508" type="curve"/>
      <point x="329" y="531" type="line"/>
      <point x="194" y="485"/>
      <point x="110" y="410"/>
    </contour>
  </outline>
</glyph>
<glyph name="copyright" format="2">
  <advance width="724"/>
  <unicode hex="00A9"/>
  <outline>
    <contour>
      <point x="411" y="58" type="curve" smooth="yes"/>
      <point x="571" y="58"/>
      <point x="698" y="185"/>
      <point x="698" y="345" type="curve" smooth="yes"/>
      <point x="698" y="505"/>
      <point x="571" y="632"/>
      <point x="411" y="632" type="curve" smooth="yes"/>
      <point x="251" y="632"/>
      <point x="124" y="505"/>
      <point x="124" y="345" type="curve" smooth="yes"/>
      <point x="124" y="185"/>
      <point x="251" y="58"/>
    </contour>
    <contour>
      <point x="411" y="82" type="curve" smooth="yes"/>
      <point x="266" y="82"/>
      <point x="148" y="200"/>
      <point x="148" y="345" type="curve" smooth="yes"/>
      <point x="148" y="490"/>
      <point x="266" y="608"/>
      <point x="411" y="608" type="curve" smooth="yes"/>
      <point x="556" y="608"/>
      <point x="674" y="490"/>
      <point x="674" y="345" type="curve" smooth="yes"/>
      <point x="674" y="200"/>
      <point x="556" y="82"/>
    </contour>
    <contour>
      <point x="406" y="183" type="curve" smooth="yes"/>
      <point x="451" y="183"/>
      <point x="491" y="214"/>
      <point x="514" y="255" type="curve" smooth="yes"/>
      <point x="517" y="260"/>
      <point x="517" y="265"/>
      <point x="510" y="269" type="curve" smooth="yes"/>
      <point x="503" y="274"/>
      <point x="498" y="274"/>
      <point x="494" y="268" type="curve" smooth="yes"/>
      <point x="477" y="243"/>
      <point x="447" y="211"/>
      <point x="406" y="211" type="curve" smooth="yes"/>
      <point x="353" y="211"/>
      <point x="312" y="257"/>
      <point x="312" y="343" type="curve" smooth="yes"/>
      <point x="312" y="428"/>
      <point x="357" y="483"/>
      <point x="419" y="483" type="curve" smooth="yes"/>
      <point x="448" y="483"/>
      <point x="470" y="473"/>
      <point x="488" y="454" type="curve" smooth="yes"/>
      <point x="492" y="450"/>
      <point x="499" y="451"/>
      <point x="504" y="456" type="curve" smooth="yes"/>
      <point x="508" y="459"/>
      <point x="511" y="464"/>
      <point x="507" y="469" type="curve" smooth="yes"/>
      <point x="484" y="502"/>
      <point x="452" y="510"/>
      <point x="419" y="510" type="curve" smooth="yes"/>
      <point x="336" y="510"/>
      <point x="282" y="438"/>
      <point x="282" y="343" type="curve" smooth="yes"/>
      <point x="282" y="247"/>
      <point x="332" y="183"/>
    </contour>
  </outline>
</glyph>
<glyph name="ordfeminine" format="2">
  <advance width="383"/>
  <unicode hex="00AA"/>
  <outline>
    <contour>
      <point x="213" y="389" type="curve" smooth="yes"/>
      <point x="262" y="389"/>
      <point x="317" y="432"/>
      <point x="380" y="542" type="curve"/>
      <point x="371" y="515"/>
      <point x="364" y="494"/>
      <point x="353" y="459" type="curve" smooth="yes"/>
      <point x="339" y="417"/>
      <point x="348" y="389"/>
      <point x="381" y="389" type="curve" smooth="yes"/>
      <point x="420" y="389"/>
      <point x="454" y="430"/>
      <point x="470" y="453" type="curve" smooth="yes"/>
      <point x="473" y="457"/>
      <point x="474" y="461"/>
      <point x="466" y="467" type="curve" smooth="yes"/>
      <point x="461" y="471"/>
      <point x="457" y="471"/>
      <point x="452" y="465" type="curve" smooth="yes"/>
      <point x="429" y="436"/>
      <point x="406" y="415"/>
      <point x="387" y="415" type="curve" smooth="yes"/>
      <point x="372" y="415"/>
      <point x="371" y="429"/>
      <point x="380" y="457" type="curve" smooth="yes"/>
      <point x="461" y="703" type="line" smooth="yes"/>
      <point x="463" y="710"/>
      <point x="462" y="717"/>
      <point x="449" y="717" type="curve" smooth="yes"/>
      <point x="440" y="717"/>
      <point x="436" y="715"/>
      <point x="433" y="707" type="curve" smooth="yes"/>
      <point x="429" y="696" type="line"/>
      <point x="407" y="710"/>
      <point x="377" y="720"/>
      <point x="348" y="720" type="curve" smooth="yes"/>
      <point x="221" y="720"/>
      <point x="144" y="575"/>
      <point x="144" y="481" type="curve" smooth="yes"/>
      <point x="144" y="425"/>
      <point x="172" y="389"/>
    </contour>
    <contour>
      <point x="173" y="482" type="curve" smooth="yes"/>
      <point x="173" y="564"/>
      <point x="240" y="694"/>
      <point x="344" y="694" type="curve" smooth="yes"/>
      <point x="366" y="694"/>
      <point x="390" y="690"/>
      <point x="421" y="672" type="curve"/>
      <point x="412" y="642" type="line"/>
      <point x="341" y="492"/>
      <point x="269" y="415"/>
      <point x="219" y="415" type="curve" smooth="yes"/>
      <point x="189" y="415"/>
      <point x="173" y="442"/>
    </contour>
  </outline>
</glyph>
<glyph name="logicalnot" format="2">
	<unicode hex="00AC"/>
	<advance width="610"/>
	<outline>
		<contour>
			<point x="498" y="136" type="curve" smooth="yes"/>
			<point x="508" y="136"/>
			<point x="514" y="139"/>
			<point x="517" y="148" type="curve" smooth="yes"/>
			<point x="579" y="350" type="line" smooth="yes"/>
			<point x="582" y="359"/>
			<point x="581" y="364"/>
			<point x="570" y="364" type="curve" smooth="yes"/>
			<point x="146" y="364" type="line" smooth="yes"/>
			<point x="136" y="364"/>
			<point x="132" y="361"/>
			<point x="129" y="351" type="curve" smooth="yes"/>
			<point x="126" y="341"/>
			<point x="127" y="336"/>
			<point x="138" y="336" type="curve" smooth="yes"/>
			<point x="546" y="336" type="line"/>
			<point x="488" y="148" type="line" smooth="yes"/>
			<point x="485" y="139"/>
			<point x="489" y="136"/>
		</contour>
	</outline>
</glyph>
<glyph name="registered" format="2">
  <advance width="683"/>
  <unicode hex="00AE"/>
  <outline>
    <contour>
      <point x="479" y="428" type="curve" smooth="yes"/>
      <point x="636" y="428"/>
      <point x="760" y="551"/>
      <point x="760" y="709" type="curve" smooth="yes"/>
      <point x="760" y="866"/>
      <point x="636" y="990"/>
      <point x="479" y="990" type="curve" smooth="yes"/>
      <point x="321" y="990"/>
      <point x="198" y="866"/>
      <point x="198" y="709" type="curve" smooth="yes"/>
      <point x="198" y="551"/>
      <point x="321" y="428"/>
    </contour>
    <contour>
      <point x="479" y="458" type="curve" smooth="yes"/>
      <point x="339" y="458"/>
      <point x="228" y="569"/>
      <point x="228" y="709" type="curve" smooth="yes"/>
      <point x="228" y="849"/>
      <point x="339" y="960"/>
      <point x="479" y="960" type="curve" smooth="yes"/>
      <point x="619" y="960"/>
      <point x="730" y="849"/>
      <point x="730" y="709" type="curve" smooth="yes"/>
      <point x="730" y="569"/>
      <point x="619" y="458"/>
    </contour>
    <contour>
      <point x="399" y="536" type="curve" smooth="yes"/>
      <point x="409" y="536"/>
      <point x="416" y="539"/>
      <point x="416" y="546" type="curve" smooth="yes"/>
      <point x="416" y="694" type="line"/>
      <point x="461" y="641"/>
      <point x="510" y="591"/>
      <point x="574" y="539" type="curve" smooth="yes"/>
      <point x="581" y="533"/>
      <point x="589" y="534"/>
      <point x="595" y="540" type="curve" smooth="yes"/>
      <point x="604" y="549"/>
      <point x="601" y="558"/>
      <point x="596" y="561" type="curve" smooth="yes"/>
      <point x="543" y="604"/>
      <point x="500" y="645"/>
      <point x="453" y="699" type="curve"/>
      <point x="539" y="705"/>
      <point x="586" y="749"/>
      <point x="586" y="806" type="curve" smooth="yes"/>
      <point x="586" y="869"/>
      <point x="548" y="891"/>
      <point x="465" y="891" type="curve" smooth="yes"/>
      <point x="400" y="891" type="line" smooth="yes"/>
      <point x="388" y="891"/>
      <point x="383" y="888"/>
      <point x="383" y="881" type="curve" smooth="yes"/>
      <point x="383" y="546" type="line" smooth="yes"/>
      <point x="383" y="539"/>
      <point x="389" y="536"/>
    </contour>
    <contour>
      <point x="416" y="725" type="curve"/>
      <point x="416" y="861" type="line"/>
      <point x="470" y="861" type="line" smooth="yes"/>
      <point x="526" y="861"/>
      <point x="551" y="846"/>
      <point x="551" y="806" type="curve" smooth="yes"/>
      <point x="551" y="754"/>
      <point x="508" y="726"/>
    </contour>
  </outline>
</glyph>
<glyph name="degree" format="2">
  <advance width="326"/>
  <unicode hex="00B0"/>
  <outline>
    <contour>
      <point x="292" y="501" type="curve" smooth="yes"/>
      <point x="353" y="501"/>
      <point x="396" y="544"/>
      <point x="396" y="607" type="curve" smooth="yes"/>
      <point x="396" y="669"/>
      <point x="353" y="712"/>
      <point x="292" y="712" type="curve" smooth="yes"/>
      <point x="231" y="712"/>
      <point x="188" y="669"/>
      <point x="188" y="607" type="curve" smooth="yes"/>
      <point x="188" y="544"/>
      <point x="231" y="501"/>
    </contour>
    <contour>
      <point x="292" y="531" type="curve" smooth="yes"/>
      <point x="251" y="531"/>
      <point x="220" y="561"/>
      <point x="220" y="607" type="curve" smooth="yes"/>
      <point x="220" y="652"/>
      <point x="251" y="682"/>
      <point x="292" y="682" type="curve" smooth="yes"/>
      <point x="333" y="682"/>
      <point x="364" y="652"/>
      <point x="364" y="607" type="curve" smooth="yes"/>
      <point x="364" y="561"/>
      <point x="333" y="531"/>
    </contour>
  </outline>
</glyph>
<glyph name="paragraph" format="2">
  <advance width="737"/>
  <unicode hex="00B6"/>
  <outline>
    <contour>
      <point x="198" y="-311" type="curve" smooth="yes"/>
      <point x="209" y="-311"/>
      <point x="214" y="-308"/>
      <point x="217" y="-299" type="curve" smooth="yes"/>
      <point x="532" y="672" type="line"/>
      <point x="677" y="672" type="line"/>
      <point x="362" y="-299" type="line" smooth="yes"/>
      <point x="359" y="-308"/>
      <point x="362" y="-311"/>
      <point x="373" y="-311" type="curve" smooth="yes"/>
      <point x="384" y="-311"/>
      <point x="389" y="-308"/>
      <point x="392" y="-299" type="curve" smooth="yes"/>
      <point x="707" y="672" type="line"/>
      <point x="807" y="672" type="line" smooth="yes"/>
      <point x="812" y="672"/>
      <point x="818" y="677"/>
      <point x="821" y="687" type="curve" smooth="yes"/>
      <point x="824" y="697"/>
      <point x="821" y="700"/>
      <point x="816" y="700" type="curve" smooth="yes"/>
      <point x="511" y="700" type="line"/>
      <point x="187" y="-299" type="line" smooth="yes"/>
      <point x="184" y="-308"/>
      <point x="187" y="-311"/>
    </contour>
    <contour>
      <point x="346" y="229" type="curve"/>
      <point x="373" y="229" type="line"/>
      <point x="532" y="700" type="line"/>
      <point x="439" y="700" type="line" smooth="yes"/>
      <point x="260" y="700"/>
      <point x="161" y="563"/>
      <point x="161" y="424" type="curve" smooth="yes"/>
      <point x="161" y="300"/>
      <point x="242" y="229"/>
    </contour>
  </outline>
</glyph>
<glyph name="AE" format="2">
  <advance width="965"/>
  <unicode hex="00C6"/>
  <anchor x="834" y="838" name="top"/>
  <outline>
    <contour>
      <point x="819" y="0" type="line" smooth="yes"/>
      <point x="831" y="0"/>
      <point x="836" y="4"/>
      <point x="840" y="18" type="curve" smooth="yes"/>
      <point x="843" y="29"/>
      <point x="843" y="35"/>
      <point x="829" y="35" type="curve" smooth="yes"/>
      <point x="473" y="35" type="line"/>
      <point x="731" y="840" type="line"/>
      <point x="1091" y="840" type="line" smooth="yes"/>
      <point x="1104" y="840"/>
      <point x="1109" y="844"/>
      <point x="1113" y="858" type="curve" smooth="yes"/>
      <point x="1115" y="869"/>
      <point x="1115" y="875"/>
      <point x="1101" y="875" type="curve" smooth="yes"/>
      <point x="698" y="875" type="line"/>
      <point x="685" y="876"/>
      <point x="680" y="874"/>
      <point x="674" y="866" type="curve" smooth="yes"/>
      <point x="-47" y="16" type="line" smooth="yes"/>
      <point x="-59" y="3"/>
      <point x="-57" y="-5"/>
      <point x="-46" y="-11" type="curve" smooth="yes"/>
      <point x="-35" y="-17"/>
      <point x="-26" y="-14"/>
      <point x="-16" y="-1" type="curve" smooth="yes"/>
      <point x="693" y="838" type="line"/>
      <point x="428" y="15" type="line" smooth="yes"/>
      <point x="424" y="4"/>
      <point x="430" y="0"/>
      <point x="443" y="0" type="curve" smooth="yes"/>
    </contour>
    <contour>
      <point x="896" y="420" type="line" smooth="yes"/>
      <point x="903" y="420"/>
      <point x="909" y="425"/>
      <point x="914" y="438" type="curve" smooth="yes"/>
      <point x="918" y="450"/>
      <point x="914" y="455"/>
      <point x="908" y="455" type="curve" smooth="yes"/>
      <point x="345" y="455" type="line"/>
      <point x="315" y="420" type="line"/>
    </contour>
  </outline>
</glyph>
<glyph name="germandbls" format="2">
  <advance width="560"/>
  <unicode hex="00DF"/>
  <outline>
    <contour>
      <point x="476" y="216" type="curve" smooth="yes"/>
      <point x="476" y="324"/>
      <point x="409" y="376"/>
      <point x="334" y="390" type="curve"/>
      <point x="332" y="380" type="line"/>
      <point x="456" y="392"/>
      <point x="557" y="478"/>
      <point x="557" y="594" type="curve" smooth="yes"/>
      <point x="557" y="666"/>
      <point x="507" y="715"/>
      <point x="433" y="715" type="curve" smooth="yes"/>
      <point x="309" y="715"/>
      <point x="246" y="619"/>
      <point x="197" y="468" type="curve" smooth="yes"/>
      <point x="-53" y="-300" type="line" smooth="yes"/>
      <point x="-56" y="-308"/>
      <point x="-53" y="-312"/>
      <point x="-43" y="-312" type="curve" smooth="yes"/>
      <point x="-32" y="-312"/>
      <point x="-27" y="-308"/>
      <point x="-24" y="-300" type="curve" smooth="yes"/>
      <point x="224" y="462" type="line" smooth="yes"/>
      <point x="269" y="599"/>
      <point x="318" y="688"/>
      <point x="429" y="688" type="curve" smooth="yes"/>
      <point x="491" y="688"/>
      <point x="527" y="648"/>
      <point x="527" y="592" type="curve" smooth="yes"/>
      <point x="527" y="497"/>
      <point x="440" y="400"/>
      <point x="309" y="400" type="curve" smooth="yes"/>
      <point x="304" y="400" type="line" smooth="yes"/>
      <point x="299" y="400"/>
      <point x="295" y="397"/>
      <point x="291" y="387" type="curve" smooth="yes"/>
      <point x="288" y="377"/>
      <point x="291" y="374"/>
      <point x="296" y="374" type="curve" smooth="yes"/>
      <point x="298" y="374" type="line" smooth="yes"/>
      <point x="376" y="374"/>
      <point x="447" y="320"/>
      <point x="447" y="218" type="curve" smooth="yes"/>
      <point x="447" y="122"/>
      <point x="381" y="12"/>
      <point x="246" y="12" type="curve" smooth="yes"/>
      <point x="201" y="12"/>
      <point x="169" y="20"/>
      <point x="143" y="32" type="curve" smooth="yes"/>
      <point x="134" y="36"/>
      <point x="129" y="34"/>
      <point x="125" y="25" type="curve" smooth="yes"/>
      <point x="120" y="14"/>
      <point x="123" y="9"/>
      <point x="132" y="5" type="curve" smooth="yes"/>
      <point x="158" y="-7"/>
      <point x="197" y="-15"/>
      <point x="243" y="-15" type="curve" smooth="yes"/>
      <point x="400" y="-15"/>
      <point x="476" y="107"/>
    </contour>
  </outline>
</glyph>
<glyph name="ae" format="2">
	<unicode hex="00E6"/>
	<advance width="715"/>
	<outline>
		<contour>
			<point x="46" y="109" type="curve" smooth="yes"/>
			<point x="46" y="38"/>
			<point x="71" y="-14"/>
			<point x="127" y="-14" type="curve" smooth="yes"/>
			<point x="191" y="-14"/>
			<point x="269" y="43"/>
			<point x="438" y="337" type="curve"/>
			<point x="419" y="350" type="line"/>
			<point x="257" y="77"/>
			<point x="184" y="14"/>
			<point x="130" y="14" type="curve" smooth="yes"/>
			<point x="88" y="14"/>
			<point x="80" y="58"/>
			<point x="80" y="110" type="curve" smooth="yes"/>
			<point x="80" y="241"/>
			<point x="157" y="388"/>
			<point x="295" y="388" type="curve" smooth="yes"/>
			<point x="346" y="388"/>
			<point x="394" y="373"/>
			<point x="433" y="356" type="curve"/>
			<point x="433" y="372" type="line"/>
			<point x="395" y="316"/>
			<point x="344" y="224"/>
			<point x="344" y="138" type="curve" smooth="yes"/>
			<point x="344" y="52"/>
			<point x="389" y="-15"/>
			<point x="473" y="-15" type="curve" smooth="yes"/>
			<point x="557" y="-15"/>
			<point x="625" y="48"/>
			<point x="659" y="88" type="curve" smooth="yes"/>
			<point x="665" y="96"/>
			<point x="662" y="102"/>
			<point x="657" y="106" type="curve" smooth="yes"/>
			<point x="651" y="111"/>
			<point x="646" y="111"/>
			<point x="639" y="104" type="curve" smooth="yes"/>
			<point x="610" y="72"/>
			<point x="548" y="12"/>
			<point x="474" y="12" type="curve" smooth="yes"/>
			<point x="419" y="12"/>
			<point x="375" y="52"/>
			<point x="375" y="137" type="curve" smooth="yes"/>
			<point x="375" y="220"/>
			<point x="419" y="301"/>
			<point x="470" y="373" type="curve"/>
			<point x="405" y="401"/>
			<point x="357" y="415"/>
			<point x="300" y="415" type="curve" smooth="yes"/>
			<point x="137" y="415"/>
			<point x="46" y="253"/>
		</contour>
		<contour>
			<point x="692" y="332" type="curve" smooth="yes"/>
			<point x="692" y="383"/>
			<point x="648" y="415"/>
			<point x="577" y="415" type="curve" smooth="yes"/>
			<point x="523" y="415"/>
			<point x="483" y="399"/>
			<point x="437" y="373" type="curve"/>
			<point x="446" y="345" type="line"/>
			<point x="489" y="372"/>
			<point x="529" y="388"/>
			<point x="573" y="388" type="curve" smooth="yes"/>
			<point x="622" y="388"/>
			<point x="659" y="368"/>
			<point x="659" y="329" type="curve" smooth="yes"/>
			<point x="659" y="231"/>
			<point x="498" y="193"/>
			<point x="374" y="178" type="curve"/>
			<point x="373" y="152" type="line"/>
			<point x="486" y="167"/>
			<point x="692" y="201"/>
		</contour>
	</outline>
	<anchor name="top" x="421" y="400"/>
</glyph>
<glyph name="eth" format="2">
  <advance width="482"/>
  <unicode hex="00F0"/>
  <outline>
    <contour>
      <point x="197" y="-15" type="curve" smooth="yes"/>
      <point x="336" y="-15"/>
      <point x="444" y="138"/>
      <point x="444" y="318" type="curve" smooth="yes"/>
      <point x="444" y="463"/>
      <point x="412" y="561"/>
      <point x="330" y="708" type="curve" smooth="yes"/>
      <point x="327" y="714"/>
      <point x="322" y="715"/>
      <point x="312" y="709" type="curve" smooth="yes"/>
      <point x="303" y="704"/>
      <point x="300" y="699"/>
      <point x="303" y="692" type="curve" smooth="yes"/>
      <point x="382" y="549"/>
      <point x="411" y="453"/>
      <point x="411" y="317" type="curve" smooth="yes"/>
      <point x="411" y="148"/>
      <point x="311" y="13"/>
      <point x="200" y="13" type="curve" smooth="yes"/>
      <point x="134" y="13"/>
      <point x="94" y="60"/>
      <point x="94" y="131" type="curve" smooth="yes"/>
      <point x="94" y="239"/>
      <point x="161" y="387"/>
      <point x="291" y="387" type="curve" smooth="yes"/>
      <point x="332" y="387"/>
      <point x="371" y="377"/>
      <point x="421" y="348" type="curve"/>
      <point x="427" y="375" type="line"/>
      <point x="378" y="403"/>
      <point x="340" y="415"/>
      <point x="295" y="415" type="curve" smooth="yes"/>
      <point x="139" y="415"/>
      <point x="62" y="256"/>
      <point x="62" y="131" type="curve" smooth="yes"/>
      <point x="62" y="44"/>
      <point x="112" y="-15"/>
    </contour>
    <contour>
      <point x="272" y="507" type="curve" smooth="yes"/>
      <point x="497" y="592" type="line" smooth="yes"/>
      <point x="505" y="595"/>
      <point x="506" y="600"/>
      <point x="504" y="609" type="curve" smooth="yes"/>
      <point x="501" y="620"/>
      <point x="495" y="623"/>
      <point x="487" y="620" type="curve" smooth="yes"/>
      <point x="263" y="535" type="line" smooth="yes"/>
      <point x="254" y="532"/>
      <point x="253" y="526"/>
      <point x="255" y="517" type="curve" smooth="yes"/>
      <point x="258" y="507"/>
      <point x="264" y="504"/>
    </contour>
  </outline>
</glyph>
<glyph name="thorn" format="2">
  <advance width="599"/>
  <unicode hex="00FE"/>
  <outline>
    <contour>
      <point x="-69" y="-390" type="curve" smooth="yes"/>
      <point x="-55" y="-390"/>
      <point x="-50" y="-386"/>
      <point x="-46" y="-375" type="curve" smooth="yes"/>
      <point x="84" y="25" type="line"/>
      <point x="122" y="-4"/>
      <point x="174" y="-17"/>
      <point x="216" y="-17" type="curve" smooth="yes"/>
      <point x="424" y="-17"/>
      <point x="549" y="218"/>
      <point x="549" y="371" type="curve" smooth="yes"/>
      <point x="549" y="463"/>
      <point x="504" y="519"/>
      <point x="436" y="519" type="curve" smooth="yes"/>
      <point x="352" y="519"/>
      <point x="261" y="440"/>
      <point x="161" y="263" type="curve"/>
      <point x="361" y="875" type="line" smooth="yes"/>
      <point x="365" y="885"/>
      <point x="356" y="890"/>
      <point x="344" y="890" type="curve" smooth="yes"/>
      <point x="329" y="890"/>
      <point x="325" y="886"/>
      <point x="321" y="875" type="curve" smooth="yes"/>
      <point x="-84" y="-369" type="line" smooth="yes"/>
      <point x="-88" y="-380"/>
      <point x="-85" y="-390"/>
    </contour>
    <contour>
      <point x="94" y="54" type="curve"/>
      <point x="112" y="111" type="line"/>
      <point x="229" y="360"/>
      <point x="347" y="484"/>
      <point x="430" y="484" type="curve" smooth="yes"/>
      <point x="484" y="484"/>
      <point x="510" y="438"/>
      <point x="510" y="370" type="curve" smooth="yes"/>
      <point x="510" y="229"/>
      <point x="396" y="18"/>
      <point x="222" y="18" type="curve" smooth="yes"/>
      <point x="185" y="18"/>
      <point x="145" y="24"/>
    </contour>
  </outline>
</glyph>
<glyph name="Eng" format="2">
  <advance width="885"/>
  <unicode hex="014A"/>
  <outline>
    <contour>
      <point x="610" y="-136" type="curve" smooth="yes"/>
      <point x="938" y="875" type="line"/>
      <point x="941" y="886"/>
      <point x="935" y="890"/>
      <point x="923" y="890" type="curve" smooth="yes"/>
      <point x="908" y="890"/>
      <point x="904" y="886"/>
      <point x="900" y="875" type="curve" smooth="yes"/>
      <point x="636" y="56" type="line"/>
      <point x="393" y="880" type="line" smooth="yes"/>
      <point x="390" y="888"/>
      <point x="385" y="890"/>
      <point x="373" y="890" type="curve" smooth="yes"/>
      <point x="360" y="890"/>
      <point x="356" y="886"/>
      <point x="353" y="875" type="curve" smooth="yes"/>
      <point x="70" y="1" type="line" smooth="yes"/>
      <point x="66" y="-10"/>
      <point x="73" y="-14"/>
      <point x="85" y="-14" type="curve" smooth="yes"/>
      <point x="101" y="-14"/>
      <point x="105" y="-10"/>
      <point x="109" y="1" type="curve" smooth="yes"/>
      <point x="373" y="820" type="line"/>
      <point x="615" y="0" type="line"/>
      <point x="573" y="-132" type="line" smooth="yes"/>
      <point x="551" y="-200"/>
      <point x="534" y="-217"/>
      <point x="494" y="-217" type="curve" smooth="yes"/>
      <point x="456" y="-217"/>
      <point x="425" y="-195"/>
      <point x="399" y="-169" type="curve" smooth="yes"/>
      <point x="390" y="-160"/>
      <point x="380" y="-156"/>
      <point x="370" y="-166" type="curve" smooth="yes"/>
      <point x="358" y="-177"/>
      <point x="360" y="-187"/>
      <point x="368" y="-195" type="curve" smooth="yes"/>
      <point x="399" y="-229"/>
      <point x="448" y="-255"/>
      <point x="491" y="-255" type="curve" smooth="yes"/>
      <point x="556" y="-255"/>
      <point x="583" y="-222"/>
    </contour>
  </outline>
</glyph>
<glyph name="jdotless" format="2">
  <advance width="268"/>
  <unicode hex="0237"/>
  <anchor x="211" y="500" name="top"/>
  <outline>
    <contour>
      <point x="-137" y="-392" type="curve" smooth="yes"/>
      <point x="-72" y="-392"/>
      <point x="-46" y="-360"/>
      <point x="-19" y="-274" type="curve" smooth="yes"/>
      <point x="233" y="499" type="line" smooth="yes"/>
      <point x="235" y="508"/>
      <point x="229" y="515"/>
      <point x="216" y="515" type="curve" smooth="yes"/>
      <point x="201" y="515"/>
      <point x="198" y="511"/>
      <point x="194" y="500" type="curve" smooth="yes"/>
      <point x="-56" y="-270" type="line" smooth="yes"/>
      <point x="-77" y="-337"/>
      <point x="-95" y="-355"/>
      <point x="-135" y="-355" type="curve" smooth="yes"/>
      <point x="-172" y="-355"/>
      <point x="-204" y="-332"/>
      <point x="-230" y="-306" type="curve" smooth="yes"/>
      <point x="-239" y="-297"/>
      <point x="-249" y="-294"/>
      <point x="-259" y="-304" type="curve" smooth="yes"/>
      <point x="-271" y="-315"/>
      <point x="-269" y="-325"/>
      <point x="-261" y="-332" type="curve" smooth="yes"/>
      <point x="-230" y="-366"/>
      <point x="-181" y="-392"/>
    </contour>
  </outline>
</glyph>
<glyph name="gravecomb" format="2">
	<unicode hex="0300"/>
	<outline>
		<contour>
			<point x="139" y="504" type="curve" smooth="yes"/>
			<point x="145" y="504"/>
			<point x="153" y="508"/>
			<point x="155" y="514" type="curve" smooth="yes"/>
			<point x="155" y="516"/>
			<point x="155" y="519"/>
			<point x="154" y="522" type="curve" smooth="yes"/>
			<point x="91" y="669" type="line" smooth="yes"/>
			<point x="89" y="673"/>
			<point x="87" y="675"/>
			<point x="83" y="675" type="curve" smooth="yes"/>
			<point x="75" y="675"/>
			<point x="61" y="669"/>
			<point x="58" y="661" type="curve" smooth="yes"/>
			<point x="57" y="658"/>
			<point x="57" y="656"/>
			<point x="58" y="653" type="curve" smooth="yes"/>
			<point x="132" y="509" type="line" smooth="yes"/>
			<point x="134" y="505"/>
			<point x="136" y="504"/>
		</contour>
	</outline>
	<anchor name="_top" x="65" y="400"/>
	<anchor name="top" x="136" y="619"/>
</glyph>
<glyph name="circumflexcomb" format="2">
	<unicode hex="0302"/>
	<outline>
		<contour>
			<point x="-15" y="504" type="curve" smooth="yes"/>
			<point x="-11" y="504"/>
			<point x="-8" y="505"/>
			<point x="-1" y="511" type="curve" smooth="yes"/>
			<point x="138" y="627" type="line"/>
			<point x="210" y="510" type="line" smooth="yes"/>
			<point x="213" y="506"/>
			<point x="216" y="504"/>
			<point x="221" y="504" type="curve" smooth="yes"/>
			<point x="227" y="504"/>
			<point x="235" y="509"/>
			<point x="235" y="517" type="curve" smooth="yes"/>
			<point x="235" y="520"/>
			<point x="233" y="524"/>
			<point x="231" y="527" type="curve" smooth="yes"/>
			<point x="156" y="662" type="line" smooth="yes"/>
			<point x="152" y="668"/>
			<point x="148" y="669"/>
			<point x="144" y="669" type="curve" smooth="yes"/>
			<point x="140" y="669"/>
			<point x="136" y="668"/>
			<point x="130" y="662" type="curve" smooth="yes"/>
			<point x="-23" y="527" type="line" smooth="yes"/>
			<point x="-27" y="523"/>
			<point x="-29" y="520"/>
			<point x="-29" y="516" type="curve" smooth="yes"/>
			<point x="-29" y="510"/>
			<point x="-22" y="504"/>
		</contour>
	</outline>
	<anchor name="_top" x="65" y="400"/>
	<anchor name="top" x="147" y="654"/>
</glyph>
<glyph name="tildecomb" format="2">
	<unicode hex="0303"/>
	<outline>
		<contour>
			<point x="-12" y="523" type="curve" smooth="yes"/>
			<point x="-2" y="523"/>
			<point x="2" y="527"/>
			<point x="5" y="537" type="curve" smooth="yes"/>
			<point x="16" y="580"/>
			<point x="27" y="597"/>
			<point x="48" y="597" type="curve" smooth="yes"/>
			<point x="93" y="597"/>
			<point x="138" y="526"/>
			<point x="195" y="526" type="curve" smooth="yes"/>
			<point x="239" y="526"/>
			<point x="257" y="554"/>
			<point x="271" y="612" type="curve" smooth="yes"/>
			<point x="274" y="623"/>
			<point x="270" y="627"/>
			<point x="259" y="627" type="curve" smooth="yes"/>
			<point x="249" y="627"/>
			<point x="245" y="624"/>
			<point x="242" y="613" type="curve" smooth="yes"/>
			<point x="232" y="572"/>
			<point x="222" y="554"/>
			<point x="199" y="554" type="curve" smooth="yes"/>
			<point x="154" y="554"/>
			<point x="111" y="625"/>
			<point x="51" y="625" type="curve" smooth="yes"/>
			<point x="10" y="625"/>
			<point x="-10" y="596"/>
			<point x="-23" y="538" type="curve" smooth="yes"/>
			<point x="-25" y="529"/>
			<point x="-21" y="523"/>
		</contour>
	</outline>
	<anchor name="_top" x="65" y="400"/>
	<anchor name="top" x="147" y="654"/>
</glyph>
<glyph name="brevecomb" format="2">
	<unicode hex="0306"/>
	<outline>
		<contour>
			<point x="109" y="504" type="curve" smooth="yes"/>
			<point x="183" y="504"/>
			<point x="248" y="559"/>
			<point x="270" y="656" type="curve" smooth="yes"/>
			<point x="272" y="665"/>
			<point x="268" y="669"/>
			<point x="258" y="669" type="curve" smooth="yes"/>
			<point x="248" y="669"/>
			<point x="243" y="665"/>
			<point x="241" y="656" type="curve" smooth="yes"/>
			<point x="223" y="578"/>
			<point x="173" y="536"/>
			<point x="109" y="536" type="curve" smooth="yes"/>
			<point x="53" y="536"/>
			<point x="31" y="578"/>
			<point x="44" y="656" type="curve" smooth="yes"/>
			<point x="46" y="665"/>
			<point x="43" y="669"/>
			<point x="33" y="669" type="curve" smooth="yes"/>
			<point x="23" y="669"/>
			<point x="18" y="665"/>
			<point x="16" y="656" type="curve" smooth="yes"/>
			<point x="-1" y="559"/>
			<point x="33" y="504"/>
		</contour>
	</outline>
	<anchor name="_top" x="65" y="400"/>
	<anchor name="top" x="147" y="654"/>
</glyph>
<glyph name="dotaccentcomb" format="2">
	<unicode hex="0307"/>
	<outline>
		<contour>
			<point x="120" y="552" type="curve" smooth="yes"/>
			<point x="145" y="552"/>
			<point x="160" y="574"/>
			<point x="160" y="597" type="curve" smooth="yes"/>
			<point x="160" y="613"/>
			<point x="148" y="620"/>
			<point x="131" y="620" type="curve" smooth="yes"/>
			<point x="106" y="620"/>
			<point x="91" y="598"/>
			<point x="91" y="575" type="curve" smooth="yes"/>
			<point x="91" y="559"/>
			<point x="102" y="552"/>
		</contour>
	</outline>
	<anchor name="_top" x="65" y="400"/>
	<anchor name="top" x="137" y="620"/>
</glyph>
<glyph name="dieresiscomb" format="2">
  <unicode hex="0308"/>
  <anchor x="81" y="500" name="_top"/>
  <anchor x="159" y="736" name="top"/>
  <outline>
    <contour>
      <point x="30" y="690" type="curve" smooth="yes"/>
      <point x="61" y="690"/>
      <point x="80" y="718"/>
      <point x="80" y="746" type="curve" smooth="yes"/>
      <point x="80" y="766"/>
      <point x="65" y="775"/>
      <point x="44" y="775" type="curve" smooth="yes"/>
      <point x="13" y="775"/>
      <point x="-6" y="748"/>
      <point x="-6" y="719" type="curve" smooth="yes"/>
      <point x="-6" y="699"/>
      <point x="8" y="690"/>
    </contour>
    <contour>
      <point x="270" y="690" type="curve" smooth="yes"/>
      <point x="301" y="690"/>
      <point x="320" y="718"/>
      <point x="320" y="746" type="curve" smooth="yes"/>
      <point x="320" y="766"/>
      <point x="305" y="775"/>
      <point x="284" y="775" type="curve" smooth="yes"/>
      <point x="253" y="775"/>
      <point x="234" y="748"/>
      <point x="234" y="719" type="curve" smooth="yes"/>
      <point x="234" y="699"/>
      <point x="248" y="690"/>
    </contour>
  </outline>
</glyph>
<glyph name="hookabovecomb" format="2">
  <unicode hex="0309"/>
  <anchor x="65" y="400" name="_top"/>
  <anchor x="136" y="619" name="top"/>
  <outline>
    <contour>
      <point x="127" y="670" type="curve" smooth="yes"/>
      <point x="104" y="670"/>
      <point x="75" y="662"/>
      <point x="57" y="650" type="curve" smooth="yes"/>
      <point x="49" y="644"/>
      <point x="47" y="637"/>
      <point x="50" y="630" type="curve" smooth="yes"/>
      <point x="54" y="623"/>
      <point x="61" y="621"/>
      <point x="69" y="626" type="curve" smooth="yes"/>
      <point x="87" y="637"/>
      <point x="106" y="642"/>
      <point x="123" y="642" type="curve" smooth="yes"/>
      <point x="142" y="642"/>
      <point x="154" y="632"/>
      <point x="154" y="616" type="curve" smooth="yes"/>
      <point x="154" y="604"/>
      <point x="147" y="594"/>
      <point x="126" y="579" type="curve" smooth="yes"/>
      <point x="105" y="565"/>
      <point x="87" y="549"/>
      <point x="85" y="517" type="curve" smooth="yes"/>
      <point x="84" y="502" type="line" smooth="yes"/>
      <point x="83" y="489"/>
      <point x="111" y="485"/>
      <point x="112" y="502" type="curve" smooth="yes"/>
      <point x="113" y="517" type="line" smooth="yes"/>
      <point x="114" y="530"/>
      <point x="123" y="544"/>
      <point x="141" y="556" type="curve" smooth="yes"/>
      <point x="172" y="577"/>
      <point x="185" y="595"/>
      <point x="185" y="620" type="curve" smooth="yes"/>
      <point x="185" y="648"/>
      <point x="163" y="670"/>
    </contour>
  </outline>
</glyph>
<glyph name="ringcomb" format="2">
  <unicode hex="030A"/>
  <anchor x="81" y="500" name="_top"/>
  <anchor x="184" y="818" name="top"/>
  <outline>
    <contour>
      <point x="130" y="610" type="curve" smooth="yes"/>
      <point x="211" y="610"/>
      <point x="273" y="676"/>
      <point x="273" y="750" type="curve" smooth="yes"/>
      <point x="273" y="814"/>
      <point x="225" y="849"/>
      <point x="173" y="849" type="curve" smooth="yes"/>
      <point x="91" y="849"/>
      <point x="30" y="780"/>
      <point x="30" y="709" type="curve" smooth="yes"/>
      <point x="30" y="644"/>
      <point x="78" y="610"/>
    </contour>
    <contour>
      <point x="130" y="645" type="curve" smooth="yes"/>
      <point x="98" y="645"/>
      <point x="70" y="666"/>
      <point x="70" y="709" type="curve" smooth="yes"/>
      <point x="70" y="760"/>
      <point x="111" y="814"/>
      <point x="173" y="814" type="curve" smooth="yes"/>
      <point x="205" y="814"/>
      <point x="233" y="793"/>
      <point x="233" y="750" type="curve" smooth="yes"/>
      <point x="233" y="698"/>
      <point x="190" y="645"/>
    </contour>
  </outline>
</glyph>
<glyph name="commaturnedabovecomb" format="2">
	<unicode hex="0312"/>
	<outline>
		<contour>
			<point x="171" y="666" type="curve" smooth="yes"/>
			<point x="164" y="673"/>
			<point x="156" y="669"/>
			<point x="151" y="664" type="curve" smooth="yes"/>
			<point x="99" y="610"/>
			<point x="81" y="552"/>
			<point x="81" y="517" type="curve" smooth="yes"/>
			<point x="81" y="508"/>
			<point x="86" y="504"/>
			<point x="96" y="504" type="curve" smooth="yes"/>
			<point x="106" y="504"/>
			<point x="112" y="508"/>
			<point x="113" y="519" type="curve" smooth="yes"/>
			<point x="117" y="577"/>
			<point x="141" y="610"/>
			<point x="172" y="647" type="curve" smooth="yes"/>
			<point x="178" y="654"/>
			<point x="177" y="660"/>
		</contour>
	</outline>
	<anchor name="_top" x="65" y="400"/>
	<anchor name="top" x="147" y="654"/>
</glyph>
<glyph name="horncomb" format="2">
	<unicode hex="031B"/>
	<outline>
		<contour>
			<point x="203" y="549" type="curve" smooth="yes"/>
			<point x="202" y="565"/>
			<point x="171" y="562"/>
			<point x="172" y="546" type="curve" smooth="yes"/>
			<point x="176" y="454"/>
			<point x="151" y="416"/>
			<point x="69" y="412" type="curve"/>
			<point x="62" y="391" type="line"/>
			<point x="166" y="388"/>
			<point x="212" y="440"/>
		</contour>
	</outline>
	<anchor name="_topright" x="69" y="412"/>
</glyph>
<glyph name="commaaccentcomb" format="2">
	<unicode hex="0326"/>
	<outline>
		<contour>
			<point x="-150" y="-216" type="curve" smooth="yes"/>
			<point x="-143" y="-223"/>
			<point x="-135" y="-219"/>
			<point x="-130" y="-214" type="curve" smooth="yes"/>
			<point x="-78" y="-160"/>
			<point x="-64" y="-102"/>
			<point x="-64" y="-77" type="curve" smooth="yes"/>
			<point x="-64" y="-68"/>
			<point x="-69" y="-64"/>
			<point x="-79" y="-64" type="curve" smooth="yes"/>
			<point x="-89" y="-64"/>
			<point x="-95" y="-68"/>
			<point x="-96" y="-79" type="curve" smooth="yes"/>
			<point x="-100" y="-127"/>
			<point x="-120" y="-160"/>
			<point x="-151" y="-197" type="curve" smooth="yes"/>
			<point x="-157" y="-204"/>
			<point x="-156" y="-210"/>
		</contour>
	</outline>
	<anchor name="_bottom" x="-65" y="0"/>
</glyph>
<glyph name="strokeshortcomb" format="2">
  <unicode hex="0335"/>
  <anchor x="25" y="274" name="_center"/>
  <outline>
    <contour>
      <point x="-91" y="260" type="curve" smooth="yes"/>
      <point x="133" y="260" type="line" smooth="yes"/>
      <point x="143" y="260"/>
      <point x="147" y="263"/>
      <point x="150" y="274" type="curve" smooth="yes"/>
      <point x="152" y="283"/>
      <point x="152" y="288"/>
      <point x="141" y="288" type="curve" smooth="yes"/>
      <point x="-83" y="288" type="line" smooth="yes"/>
      <point x="-93" y="288"/>
      <point x="-97" y="285"/>
      <point x="-100" y="275" type="curve" smooth="yes"/>
      <point x="-103" y="265"/>
      <point x="-102" y="260"/>
    </contour>
  </outline>
</glyph>
<glyph name="strokelongcomb" format="2">
  <unicode hex="0336"/>
  <anchor x="25" y="274" name="_center"/>
  <outline>
    <contour>
      <point x="-291" y="260" type="curve" smooth="yes"/>
      <point x="333" y="260" type="line" smooth="yes"/>
      <point x="343" y="260"/>
      <point x="347" y="263"/>
      <point x="350" y="274" type="curve" smooth="yes"/>
      <point x="352" y="283"/>
      <point x="352" y="288"/>
      <point x="341" y="288" type="curve" smooth="yes"/>
      <point x="-283" y="288" type="line" smooth="yes"/>
      <point x="-293" y="288"/>
      <point x="-297" y="285"/>
      <point x="-300" y="275" type="curve" smooth="yes"/>
      <point x="-303" y="265"/>
      <point x="-302" y="260"/>
    </contour>
  </outline>
</glyph>
<glyph name="slashshortcomb" format="2">
	<unicode hex="0337"/>
	<outline>
		<contour>
			<point x="-73" y="218" type="curve" smooth="yes"/>
			<point x="132" y="302" type="line" smooth="yes"/>
			<point x="142" y="306"/>
			<point x="146" y="311"/>
			<point x="143" y="321" type="curve" smooth="yes"/>
			<point x="140" y="330"/>
			<point x="136" y="334"/>
			<point x="126" y="330" type="curve" smooth="yes"/>
			<point x="-77" y="247" type="line" smooth="yes"/>
			<point x="-87" y="243"/>
			<point x="-91" y="239"/>
			<point x="-89" y="228" type="curve" smooth="yes"/>
			<point x="-87" y="218"/>
			<point x="-84" y="214"/>
		</contour>
	</outline>
	<anchor name="_center" x="25" y="274"/>
</glyph>
<glyph name="Germandbls" format="2">
  <advance width="710"/>
  <unicode hex="1E9E"/>
  <outline>
    <contour>
      <point x="395" y="-15" type="curve" smooth="yes"/>
      <point x="502" y="-15"/>
      <point x="608" y="57"/>
      <point x="608" y="192" type="curve" smooth="yes"/>
      <point x="608" y="361"/>
      <point x="458" y="421"/>
      <point x="458" y="541" type="curve" smooth="yes"/>
      <point x="458" y="623"/>
      <point x="543" y="683"/>
      <point x="646" y="683" type="curve" smooth="yes"/>
      <point x="657" y="683"/>
      <point x="662" y="687"/>
      <point x="665" y="697" type="curve" smooth="yes"/>
      <point x="669" y="707"/>
      <point x="666" y="711"/>
      <point x="655" y="711" type="curve" smooth="yes"/>
      <point x="628" y="711" type="line"/>
      <point x="329" y="711"/>
      <point x="244" y="590"/>
      <point x="184" y="407" type="curve" smooth="yes"/>
      <point x="52" y="2" type="line" smooth="yes"/>
      <point x="49" y="-7"/>
      <point x="53" y="-10"/>
      <point x="64" y="-10" type="curve" smooth="yes"/>
      <point x="75" y="-10"/>
      <point x="80" y="-7"/>
      <point x="83" y="2" type="curve" smooth="yes"/>
      <point x="215" y="409" type="line" smooth="yes"/>
      <point x="267" y="569"/>
      <point x="350" y="686"/>
      <point x="627" y="686" type="curve"/>
      <point x="632" y="700" type="line"/>
      <point x="525" y="700"/>
      <point x="426" y="636"/>
      <point x="426" y="537" type="curve" smooth="yes"/>
      <point x="426" y="407"/>
      <point x="576" y="351"/>
      <point x="576" y="190" type="curve" smooth="yes"/>
      <point x="576" y="74"/>
      <point x="481" y="15"/>
      <point x="399" y="15" type="curve" smooth="yes"/>
      <point x="335" y="15"/>
      <point x="294" y="29"/>
      <point x="242" y="54" type="curve" smooth="yes"/>
      <point x="230" y="60"/>
      <point x="225" y="57"/>
      <point x="220" y="48" type="curve" smooth="yes"/>
      <point x="215" y="39"/>
      <point x="216" y="32"/>
      <point x="227" y="27" type="curve" smooth="yes"/>
      <point x="282" y="0"/>
      <point x="329" y="-15"/>
    </contour>
  </outline>
</glyph>
<glyph name="bullet" format="2">
  <advance width="367"/>
  <unicode hex="2022"/>
  <outline>
    <contour>
      <point x="155" y="65" type="curve" smooth="yes"/>
      <point x="284" y="65"/>
      <point x="334" y="191"/>
      <point x="334" y="277" type="curve" smooth="yes"/>
      <point x="334" y="343"/>
      <point x="290" y="375"/>
      <point x="228" y="375" type="curve" smooth="yes"/>
      <point x="102" y="375"/>
      <point x="47" y="260"/>
      <point x="47" y="167" type="curve" smooth="yes"/>
      <point x="47" y="100"/>
      <point x="90" y="65"/>
    </contour>
  </outline>
</glyph>
<glyph name="minute" format="2">
  <advance width="240"/>
  <unicode hex="2032"/>
  <outline>
    <contour>
      <point x="232" y="660" type="curve" smooth="yes"/>
      <point x="246" y="660"/>
      <point x="250" y="667"/>
      <point x="253" y="671" type="curve" smooth="yes"/>
      <point x="365" y="860" type="line" smooth="yes"/>
      <point x="378" y="882"/>
      <point x="365" y="894"/>
      <point x="340" y="894" type="curve" smooth="yes"/>
      <point x="323" y="894"/>
      <point x="315" y="887"/>
      <point x="307" y="869" type="curve" smooth="yes"/>
      <point x="217" y="680" type="line" smooth="yes"/>
      <point x="212" y="669"/>
      <point x="217" y="660"/>
    </contour>
  </outline>
</glyph>
<glyph name="guilsinglright" format="2">
  <advance width="380"/>
  <unicode hex="203A"/>
  <outline>
    <contour>
      <point x="43" y="-7" type="curve" smooth="yes"/>
      <point x="51" y="-15"/>
      <point x="60" y="-11"/>
      <point x="68" y="-3" type="curve" smooth="yes"/>
      <point x="267" y="178" type="line" smooth="yes"/>
      <point x="280" y="190"/>
      <point x="286" y="195"/>
      <point x="286" y="203" type="curve" smooth="yes"/>
      <point x="286" y="208"/>
      <point x="283" y="214"/>
      <point x="278" y="225" type="curve" smooth="yes"/>
      <point x="193" y="402" type="line" smooth="yes"/>
      <point x="191" y="406"/>
      <point x="188" y="411"/>
      <point x="181" y="411" type="curve" smooth="yes"/>
      <point x="170" y="411"/>
      <point x="160" y="403"/>
      <point x="167" y="389" type="curve" smooth="yes"/>
      <point x="265" y="183" type="line"/>
      <point x="269" y="217" type="line"/>
      <point x="43" y="12" type="line" smooth="yes"/>
      <point x="36" y="5"/>
      <point x="37" y="-1"/>
    </contour>
  </outline>
</glyph>
<glyph name="euro" format="2">
  <advance width="602"/>
  <unicode hex="20AC"/>
  <outline>
    <contour>
      <point x="314" y="-15" type="curve" smooth="yes"/>
      <point x="392" y="-15"/>
      <point x="465" y="19"/>
      <point x="516" y="67" type="curve" smooth="yes"/>
      <point x="525" y="76"/>
      <point x="527" y="81"/>
      <point x="518" y="91" type="curve" smooth="yes"/>
      <point x="510" y="99"/>
      <point x="505" y="98"/>
      <point x="496" y="88" type="curve" smooth="yes"/>
      <point x="447" y="45"/>
      <point x="382" y="15"/>
      <point x="316" y="15" type="curve" smooth="yes"/>
      <point x="217" y="15"/>
      <point x="179" y="90"/>
      <point x="179" y="214" type="curve" smooth="yes"/>
      <point x="179" y="400"/>
      <point x="316" y="682"/>
      <point x="515" y="682" type="curve" smooth="yes"/>
      <point x="565" y="682"/>
      <point x="606" y="659"/>
      <point x="639" y="621" type="curve" smooth="yes"/>
      <point x="647" y="612"/>
      <point x="653" y="609"/>
      <point x="664" y="618" type="curve" smooth="yes"/>
      <point x="673" y="625"/>
      <point x="675" y="630"/>
      <point x="668" y="639" type="curve" smooth="yes"/>
      <point x="633" y="682"/>
      <point x="582" y="712"/>
      <point x="520" y="712" type="curve" smooth="yes"/>
      <point x="293" y="712"/>
      <point x="145" y="417"/>
      <point x="145" y="213" type="curve" smooth="yes"/>
      <point x="145" y="74"/>
      <point x="199" y="-15"/>
    </contour>
    <contour>
      <point x="113" y="392" type="curve" smooth="yes"/>
      <point x="508" y="392" type="line" smooth="yes"/>
      <point x="513" y="392"/>
      <point x="519" y="397"/>
      <point x="522" y="407" type="curve" smooth="yes"/>
      <point x="526" y="417"/>
      <point x="522" y="420"/>
      <point x="517" y="420" type="curve" smooth="yes"/>
      <point x="122" y="420" type="line" smooth="yes"/>
      <point x="117" y="420"/>
      <point x="112" y="416"/>
      <point x="109" y="406" type="curve" smooth="yes"/>
      <point x="106" y="396"/>
      <point x="108" y="392"/>
    </contour>
    <contour>
      <point x="80" y="288" type="curve" smooth="yes"/>
      <point x="475" y="288" type="line" smooth="yes"/>
      <point x="480" y="288"/>
      <point x="485" y="293"/>
      <point x="488" y="303" type="curve" smooth="yes"/>
      <point x="492" y="313"/>
      <point x="489" y="316"/>
      <point x="484" y="316" type="curve" smooth="yes"/>
      <point x="89" y="316" type="line" smooth="yes"/>
      <point x="84" y="316"/>
      <point x="78" y="312"/>
      <point x="75" y="302" type="curve" smooth="yes"/>
      <point x="72" y="292"/>
      <point x="75" y="288"/>
    </contour>
  </outline>
</glyph>
<glyph name="trademark" format="2">
  <advance width="960"/>
  <unicode hex="2122"/>
  <outline>
    <contour>
      <point x="339" y="430" type="curve" smooth="yes"/>
      <point x="350" y="430"/>
      <point x="358" y="434"/>
      <point x="358" y="443" type="curve" smooth="yes"/>
      <point x="358" y="843" type="line"/>
      <point x="491" y="843" type="line" smooth="yes"/>
      <point x="499" y="843"/>
      <point x="503" y="848"/>
      <point x="503" y="859" type="curve" smooth="yes"/>
      <point x="503" y="870"/>
      <point x="499" y="875"/>
      <point x="491" y="875" type="curve" smooth="yes"/>
      <point x="188" y="875" type="line" smooth="yes"/>
      <point x="180" y="875"/>
      <point x="176" y="871"/>
      <point x="176" y="859" type="curve" smooth="yes"/>
      <point x="176" y="846"/>
      <point x="180" y="843"/>
      <point x="188" y="843" type="curve" smooth="yes"/>
      <point x="321" y="843" type="line"/>
      <point x="321" y="443" type="line" smooth="yes"/>
      <point x="321" y="434"/>
      <point x="328" y="430"/>
    </contour>
    <contour>
      <point x="595" y="430" type="curve" smooth="yes"/>
      <point x="606" y="430"/>
      <point x="613" y="433"/>
      <point x="613" y="441" type="curve" smooth="yes"/>
      <point x="613" y="798" type="line"/>
      <point x="754" y="559" type="line" smooth="yes"/>
      <point x="758" y="551"/>
      <point x="764" y="550"/>
      <point x="774" y="550" type="curve" smooth="yes"/>
      <point x="783" y="550"/>
      <point x="788" y="551"/>
      <point x="793" y="560" type="curve" smooth="yes"/>
      <point x="934" y="798" type="line"/>
      <point x="934" y="441" type="line" smooth="yes"/>
      <point x="934" y="433"/>
      <point x="941" y="430"/>
      <point x="951" y="430" type="curve" smooth="yes"/>
      <point x="963" y="430"/>
      <point x="969" y="433"/>
      <point x="969" y="441" type="curve" smooth="yes"/>
      <point x="969" y="864" type="line" smooth="yes"/>
      <point x="969" y="871"/>
      <point x="964" y="875"/>
      <point x="951" y="875" type="curve" smooth="yes"/>
      <point x="941" y="875"/>
      <point x="936" y="871"/>
      <point x="933" y="864" type="curve" smooth="yes"/>
      <point x="774" y="591" type="line"/>
      <point x="614" y="864" type="line" smooth="yes"/>
      <point x="610" y="871"/>
      <point x="605" y="875"/>
      <point x="595" y="875" type="curve" smooth="yes"/>
      <point x="584" y="875"/>
      <point x="578" y="871"/>
      <point x="578" y="864" type="curve" smooth="yes"/>
      <point x="578" y="441" type="line" smooth="yes"/>
      <point x="578" y="433"/>
      <point x="585" y="430"/>
    </contour>
  </outline>
</glyph>
<glyph name="product" format="2">
  <advance width="610"/>
  <unicode hex="220F"/>
  <outline>
    <contour>
      <point x="58" y="-66" type="curve" smooth="yes"/>
      <point x="69" y="-66"/>
      <point x="74" y="-63"/>
      <point x="76" y="-54" type="curve" smooth="yes"/>
      <point x="312" y="672" type="line"/>
      <point x="604" y="672" type="line"/>
      <point x="368" y="-54" type="line" smooth="yes"/>
      <point x="366" y="-63"/>
      <point x="369" y="-66"/>
      <point x="380" y="-66" type="curve" smooth="yes"/>
      <point x="391" y="-66"/>
      <point x="396" y="-63"/>
      <point x="398" y="-54" type="curve" smooth="yes"/>
      <point x="634" y="672" type="line"/>
      <point x="734" y="672" type="line" smooth="yes"/>
      <point x="739" y="672"/>
      <point x="745" y="677"/>
      <point x="748" y="687" type="curve" smooth="yes"/>
      <point x="751" y="697"/>
      <point x="748" y="700"/>
      <point x="743" y="700" type="curve" smooth="yes"/>
      <point x="191" y="700" type="line" smooth="yes"/>
      <point x="186" y="700"/>
      <point x="181" y="696"/>
      <point x="178" y="686" type="curve" smooth="yes"/>
      <point x="175" y="676"/>
      <point x="177" y="672"/>
      <point x="182" y="672" type="curve" smooth="yes"/>
      <point x="282" y="672" type="line"/>
      <point x="46" y="-54" type="line" smooth="yes"/>
      <point x="44" y="-63"/>
      <point x="47" y="-66"/>
    </contour>
  </outline>
</glyph>
<glyph name="notequal" format="2">
	<unicode hex="2260"/>
	<advance width="610"/>
	<outline>
		<contour>
			<point x="176" y="56" type="curve" smooth="yes"/>
			<point x="186" y="53"/>
			<point x="192" y="55"/>
			<point x="197" y="64" type="curve" smooth="yes"/>
			<point x="528" y="629" type="line" smooth="yes"/>
			<point x="532" y="637"/>
			<point x="530" y="641"/>
			<point x="522" y="644" type="curve" smooth="yes"/>
			<point x="512" y="647"/>
			<point x="506" y="645"/>
			<point x="501" y="636" type="curve" smooth="yes"/>
			<point x="170" y="71" type="line" smooth="yes"/>
			<point x="166" y="63"/>
			<point x="167" y="59"/>
		</contour>
		<component base="equal"/>
	</outline>
</glyph>
<glyph name="A.cur" format="2">
	<advance width="783"/>
	<outline>
		<contour>
			<point x="247" y="-14" type="curve" smooth="yes"/>
			<point x="390" y="-14"/>
			<point x="542" y="144"/>
			<point x="692" y="448" type="curve"/>
			<point x="666" y="450" type="line"/>
			<point x="528" y="178"/>
			<point x="374" y="16"/>
			<point x="253" y="16" type="curve" smooth="yes"/>
			<point x="181" y="16"/>
			<point x="132" y="85"/>
			<point x="132" y="186" type="curve" smooth="yes"/>
			<point x="132" y="434"/>
			<point x="334" y="682"/>
			<point x="535" y="682" type="curve" smooth="yes"/>
			<point x="620" y="682"/>
			<point x="678" y="651"/>
			<point x="713" y="586" type="curve" smooth="yes"/>
			<point x="718" y="578"/>
			<point x="724" y="576"/>
			<point x="733" y="581" type="curve" smooth="yes"/>
			<point x="743" y="586"/>
			<point x="745" y="593"/>
			<point x="739" y="604" type="curve" smooth="yes"/>
			<point x="702" y="675"/>
			<point x="634" y="712"/>
			<point x="540" y="712" type="curve" smooth="yes"/>
			<point x="316" y="712"/>
			<point x="99" y="454"/>
			<point x="99" y="188" type="curve" smooth="yes"/>
			<point x="99" y="67"/>
			<point x="159" y="-14"/>
		</contour>
		<contour>
			<point x="584" y="-14" type="curve" smooth="yes"/>
			<point x="624" y="-14"/>
			<point x="676" y="27"/>
			<point x="725" y="96" type="curve" smooth="yes"/>
			<point x="729" y="102"/>
			<point x="728" y="107"/>
			<point x="721" y="112" type="curve" smooth="yes"/>
			<point x="715" y="117"/>
			<point x="711" y="117"/>
			<point x="705" y="110" type="curve" smooth="yes"/>
			<point x="657" y="49"/>
			<point x="617" y="16"/>
			<point x="590" y="16" type="curve" smooth="yes"/>
			<point x="563" y="16"/>
			<point x="559" y="40"/>
			<point x="576" y="92" type="curve" smooth="yes"/>
			<point x="693" y="447" type="line" smooth="yes"/>
			<point x="696" y="455"/>
			<point x="692" y="459"/>
			<point x="681" y="459" type="curve" smooth="yes"/>
			<point x="669" y="459"/>
			<point x="665" y="457"/>
			<point x="662" y="447" type="curve" smooth="yes"/>
			<point x="544" y="91" type="line" smooth="yes"/>
			<point x="523" y="28"/>
			<point x="539" y="-14"/>
		</contour>
	</outline>
	<anchor name="bottom" x="247" y="0"/>
	<anchor name="ogonek" x="644" y="10"/>
	<anchor name="top" x="524" y="670"/>
</glyph>
<glyph name="A.cur.ini" format="2">
	<advance width="743"/>
	<outline>
		<contour>
			<point x="247" y="-14" type="curve" smooth="yes"/>
			<point x="381" y="-14"/>
			<point x="533" y="126"/>
			<point x="692" y="448" type="curve"/>
			<point x="666" y="450" type="line"/>
			<point x="519" y="160"/>
			<point x="367" y="16"/>
			<point x="253" y="16" type="curve" smooth="yes"/>
			<point x="177" y="16"/>
			<point x="132" y="90"/>
			<point x="132" y="186" type="curve" smooth="yes"/>
			<point x="132" y="405"/>
			<point x="310" y="682"/>
			<point x="535" y="682" type="curve" smooth="yes"/>
			<point x="634" y="682"/>
			<point x="684" y="640"/>
			<point x="713" y="586" type="curve" smooth="yes"/>
			<point x="718" y="578"/>
			<point x="723" y="576"/>
			<point x="733" y="581" type="curve" smooth="yes"/>
			<point x="745" y="587"/>
			<point x="744" y="595"/>
			<point x="739" y="604" type="curve" smooth="yes"/>
			<point x="706" y="667"/>
			<point x="644" y="712"/>
			<point x="540" y="712" type="curve" smooth="yes"/>
			<point x="291" y="712"/>
			<point x="99" y="424"/>
			<point x="99" y="188" type="curve" smooth="yes"/>
			<point x="99" y="68"/>
			<point x="158" y="-14"/>
		</contour>
		<contour>
			<point x="599" y="-14" type="curve" smooth="yes"/>
			<point x="617" y="-14"/>
			<point x="625" y="14"/>
			<point x="605" y="14" type="curve" smooth="yes"/>
			<point x="554" y="14"/>
			<point x="568" y="67"/>
			<point x="582" y="110" type="curve" smooth="yes"/>
			<point x="693" y="447" type="line" smooth="yes"/>
			<point x="696" y="456"/>
			<point x="691" y="459"/>
			<point x="681" y="459" type="curve" smooth="yes"/>
			<point x="668" y="459"/>
			<point x="665" y="456"/>
			<point x="662" y="447" type="curve" smooth="yes"/>
			<point x="550" y="109" type="line" smooth="yes"/>
			<point x="529" y="45"/>
			<point x="532" y="-14"/>
		</contour>
	</outline>
	<anchor name="bottom" x="247" y="0"/>
	<anchor name="cnct" x="678" y="0"/>
	<anchor name="ogonek" x="644" y="10"/>
	<anchor name="top" x="524" y="670"/>
</glyph>
<glyph name="A.cur_locl" format="2">
  <advance width="979"/>
  <anchor x="309" y="0" name="bottom"/>
  <anchor x="805" y="13" name="ogonek"/>
  <anchor x="655" y="838" name="top"/>
  <outline>
    <contour>
      <point x="309" y="-17" type="curve" smooth="yes"/>
      <point x="456" y="-17"/>
      <point x="613" y="118"/>
      <point x="768" y="380" type="curve"/>
      <point x="680" y="114" type="line" smooth="yes"/>
      <point x="654" y="35"/>
      <point x="674" y="-17"/>
      <point x="730" y="-17" type="curve" smooth="yes"/>
      <point x="780" y="-17"/>
      <point x="845" y="34"/>
      <point x="906" y="120" type="curve" smooth="yes"/>
      <point x="911" y="128"/>
      <point x="910" y="134"/>
      <point x="901" y="140" type="curve" smooth="yes"/>
      <point x="894" y="146"/>
      <point x="889" y="146"/>
      <point x="881" y="138" type="curve" smooth="yes"/>
      <point x="821" y="61"/>
      <point x="771" y="20"/>
      <point x="738" y="20" type="curve" smooth="yes"/>
      <point x="704" y="20"/>
      <point x="699" y="50"/>
      <point x="720" y="115" type="curve" smooth="yes"/>
      <point x="970" y="875" type="line" smooth="yes"/>
      <point x="974" y="885"/>
      <point x="969" y="890"/>
      <point x="955" y="890" type="curve" smooth="yes"/>
      <point x="940" y="890"/>
      <point x="935" y="888"/>
      <point x="931" y="875" type="curve" smooth="yes"/>
      <point x="901" y="785" type="line"/>
      <point x="851" y="851"/>
      <point x="765" y="890"/>
      <point x="675" y="890" type="curve" smooth="yes"/>
      <point x="395" y="890"/>
      <point x="124" y="568"/>
      <point x="124" y="235" type="curve" smooth="yes"/>
      <point x="124" y="84"/>
      <point x="199" y="-17"/>
    </contour>
    <contour>
      <point x="165" y="233" type="curve" smooth="yes"/>
      <point x="165" y="543"/>
      <point x="418" y="853"/>
      <point x="669" y="853" type="curve" smooth="yes"/>
      <point x="770" y="853"/>
      <point x="840" y="815"/>
      <point x="888" y="743" type="curve"/>
      <point x="820" y="539" type="line"/>
      <point x="651" y="213"/>
      <point x="464" y="20"/>
      <point x="316" y="20" type="curve" smooth="yes"/>
      <point x="226" y="20"/>
      <point x="165" y="106"/>
    </contour>
  </outline>
</glyph>
<glyph name="A.cur_locl.ini" format="2">
  <advance width="743"/>
  <anchor x="247" y="0" name="bottom"/>
  <anchor x="678" y="0" name="cnct"/>
  <anchor x="644" y="10" name="ogonek"/>
  <anchor x="524" y="670" name="top"/>
  <outline>
    <contour>
      <point x="247" y="-14" type="curve" smooth="yes"/>
      <point x="390" y="-14"/>
      <point x="542" y="144"/>
      <point x="692" y="448" type="curve"/>
      <point x="666" y="450" type="line"/>
      <point x="528" y="178"/>
      <point x="374" y="16"/>
      <point x="253" y="16" type="curve" smooth="yes"/>
      <point x="181" y="16"/>
      <point x="132" y="85"/>
      <point x="132" y="186" type="curve" smooth="yes"/>
      <point x="132" y="434"/>
      <point x="334" y="682"/>
      <point x="535" y="682" type="curve" smooth="yes"/>
      <point x="618" y="682"/>
      <point x="675" y="650"/>
      <point x="713" y="590" type="curve"/>
      <point x="724" y="624" type="line"/>
      <point x="684" y="679"/>
      <point x="614" y="712"/>
      <point x="540" y="712" type="curve" smooth="yes"/>
      <point x="316" y="712"/>
      <point x="99" y="454"/>
      <point x="99" y="188" type="curve" smooth="yes"/>
      <point x="99" y="67"/>
      <point x="159" y="-14"/>
    </contour>
    <contour>
      <point x="599" y="-14" type="curve" smooth="yes"/>
      <point x="617" y="-14"/>
      <point x="625" y="14"/>
      <point x="605" y="14" type="curve" smooth="yes"/>
      <point x="554" y="14"/>
      <point x="568" y="67"/>
      <point x="582" y="110" type="curve" smooth="yes"/>
      <point x="776" y="700" type="line" smooth="yes"/>
      <point x="779" y="708"/>
      <point x="775" y="712"/>
      <point x="764" y="712" type="curve" smooth="yes"/>
      <point x="752" y="712"/>
      <point x="748" y="710"/>
      <point x="745" y="700" type="curve" smooth="yes"/>
      <point x="550" y="109" type="line" smooth="yes"/>
      <point x="529" y="45"/>
      <point x="532" y="-14"/>
    </contour>
  </outline>
</glyph>
<glyph name="A.dec" format="2">
  <advance width="745"/>
  <anchor x="381" y="0" name="bottom"/>
  <anchor x="600" y="0" name="ogonek"/>
  <anchor x="598" y="670" name="top"/>
  <outline>
    <contour>
      <point x="91" y="-14" type="curve" smooth="yes"/>
      <point x="173" y="-14"/>
      <point x="269" y="37"/>
      <point x="615" y="683" type="curve"/>
      <point x="600" y="682" type="line"/>
      <point x="573" y="461"/>
      <point x="557" y="243"/>
      <point x="569" y="2" type="curve" smooth="yes"/>
      <point x="570" y="-11"/>
      <point x="574" y="-14"/>
      <point x="586" y="-13" type="curve" smooth="yes"/>
      <point x="598" y="-12"/>
      <point x="601" y="-7"/>
      <point x="601" y="5" type="curve" smooth="yes"/>
      <point x="591" y="247"/>
      <point x="604" y="470"/>
      <point x="631" y="694" type="curve" smooth="yes"/>
      <point x="633" y="706"/>
      <point x="627" y="712"/>
      <point x="615" y="712" type="curve" smooth="yes"/>
      <point x="603" y="712"/>
      <point x="596" y="705"/>
      <point x="590" y="694" type="curve" smooth="yes"/>
      <point x="250" y="69"/>
      <point x="158" y="16"/>
      <point x="92" y="16" type="curve" smooth="yes"/>
      <point x="64" y="16"/>
      <point x="44" y="32"/>
      <point x="32" y="46" type="curve" smooth="yes"/>
      <point x="27" y="51"/>
      <point x="21" y="54"/>
      <point x="12" y="46" type="curve" smooth="yes"/>
      <point x="2" y="37"/>
      <point x="4" y="31"/>
      <point x="9" y="25" type="curve" smooth="yes"/>
      <point x="25" y="7"/>
      <point x="52" y="-14"/>
    </contour>
    <contour>
      <point x="570" y="7" type="curve"/>
      <point x="592" y="17" type="line"/>
      <point x="585" y="255"/>
      <point x="434" y="301"/>
      <point x="329" y="301" type="curve" smooth="yes"/>
      <point x="267" y="301"/>
      <point x="198" y="271"/>
      <point x="198" y="211" type="curve" smooth="yes"/>
      <point x="198" y="151"/>
      <point x="263" y="121"/>
      <point x="360" y="121" type="curve" smooth="yes"/>
      <point x="455" y="121"/>
      <point x="542" y="136"/>
      <point x="684" y="185" type="curve" smooth="yes"/>
      <point x="691" y="187"/>
      <point x="694" y="191"/>
      <point x="690" y="202" type="curve" smooth="yes"/>
      <point x="687" y="211"/>
      <point x="682" y="213"/>
      <point x="676" y="211" type="curve" smooth="yes"/>
      <point x="546" y="164"/>
      <point x="445" y="149"/>
      <point x="363" y="149" type="curve" smooth="yes"/>
      <point x="284" y="149"/>
      <point x="231" y="167"/>
      <point x="231" y="214" type="curve" smooth="yes"/>
      <point x="231" y="257"/>
      <point x="286" y="273"/>
      <point x="328" y="273" type="curve" smooth="yes"/>
      <point x="424" y="273"/>
      <point x="556" y="236"/>
    </contour>
  </outline>
</glyph>
<glyph name="A.dec2.ini" format="2">
	<advance width="758"/>
	<outline>
		<contour>
			<point x="610" y="-14" type="curve" smooth="yes"/>
			<point x="626" y="-14"/>
			<point x="631" y="14"/>
			<point x="615" y="14" type="curve" smooth="yes"/>
			<point x="574" y="14"/>
			<point x="558" y="57"/>
			<point x="563" y="127" type="curve" smooth="yes"/>
			<point x="575" y="300"/>
			<point x="615" y="486"/>
			<point x="663" y="694" type="curve"/>
			<point x="630" y="686" type="line"/>
			<point x="582" y="481"/>
			<point x="543" y="301"/>
			<point x="530" y="126" type="curve" smooth="yes"/>
			<point x="524" y="43"/>
			<point x="548" y="-14"/>
		</contour>
		<contour>
			<point x="148" y="-14" type="curve" smooth="yes"/>
			<point x="353" y="-14"/>
			<point x="408" y="630"/>
			<point x="659" y="685" type="curve" smooth="yes"/>
			<point x="668" y="687"/>
			<point x="671" y="692"/>
			<point x="669" y="702" type="curve" smooth="yes"/>
			<point x="667" y="712"/>
			<point x="664" y="715"/>
			<point x="656" y="713" type="curve" smooth="yes"/>
			<point x="387" y="655"/>
			<point x="312" y="16"/>
			<point x="151" y="16" type="curve" smooth="yes"/>
			<point x="105" y="16"/>
			<point x="86" y="80"/>
			<point x="86" y="146" type="curve" smooth="yes"/>
			<point x="86" y="279"/>
			<point x="169" y="312"/>
			<point x="450" y="312" type="curve" smooth="yes"/>
			<point x="654" y="312" type="line" smooth="yes"/>
			<point x="660" y="312"/>
			<point x="665" y="317"/>
			<point x="667" y="326" type="curve" smooth="yes"/>
			<point x="670" y="335"/>
			<point x="667" y="340"/>
			<point x="661" y="340" type="curve" smooth="yes"/>
			<point x="453" y="340" type="line" smooth="yes"/>
			<point x="152" y="340"/>
			<point x="53" y="294"/>
			<point x="53" y="143" type="curve" smooth="yes"/>
			<point x="53" y="65"/>
			<point x="85" y="-14"/>
		</contour>
	</outline>
	<anchor name="bottom" x="420" y="0"/>
	<anchor name="cnct" x="693" y="0"/>
	<anchor name="ogonek" x="634" y="-2"/>
	<anchor name="top" x="560" y="670"/>
</glyph>
<glyph name="A.dec_locl" format="2">
  <advance width="845"/>
  <anchor x="381" y="0" name="bottom"/>
  <anchor x="601" y="0" name="ogonek"/>
  <anchor x="598" y="670" name="top"/>
  <outline>
    <contour>
      <point x="91" y="-14" type="curve" smooth="yes"/>
      <point x="173" y="-14"/>
      <point x="269" y="37"/>
      <point x="615" y="683" type="curve"/>
      <point x="600" y="682" type="line"/>
      <point x="580" y="512"/>
      <point x="567" y="344"/>
      <point x="567" y="165" type="curve" smooth="yes"/>
      <point x="567" y="36"/>
      <point x="592" y="-14"/>
      <point x="649" y="-14" type="curve" smooth="yes"/>
      <point x="712" y="-14"/>
      <point x="774" y="65"/>
      <point x="810" y="173" type="curve" smooth="yes"/>
      <point x="813" y="182"/>
      <point x="809" y="187"/>
      <point x="799" y="190" type="curve" smooth="yes"/>
      <point x="789" y="193"/>
      <point x="785" y="191"/>
      <point x="782" y="182" type="curve" smooth="yes"/>
      <point x="750" y="86"/>
      <point x="697" y="15"/>
      <point x="652" y="15" type="curve" smooth="yes"/>
      <point x="616" y="15"/>
      <point x="597" y="56"/>
      <point x="597" y="165" type="curve" smooth="yes"/>
      <point x="597" y="349"/>
      <point x="610" y="521"/>
      <point x="631" y="694" type="curve" smooth="yes"/>
      <point x="633" y="706"/>
      <point x="627" y="712"/>
      <point x="615" y="712" type="curve" smooth="yes"/>
      <point x="603" y="712"/>
      <point x="596" y="705"/>
      <point x="590" y="694" type="curve" smooth="yes"/>
      <point x="250" y="69"/>
      <point x="158" y="16"/>
      <point x="92" y="16" type="curve" smooth="yes"/>
      <point x="64" y="16"/>
      <point x="44" y="32"/>
      <point x="32" y="46" type="curve" smooth="yes"/>
      <point x="27" y="51"/>
      <point x="21" y="54"/>
      <point x="12" y="46" type="curve" smooth="yes"/>
      <point x="2" y="37"/>
      <point x="4" y="31"/>
      <point x="9" y="25" type="curve" smooth="yes"/>
      <point x="25" y="7"/>
      <point x="52" y="-14"/>
    </contour>
    <contour>
      <point x="349" y="242" type="line"/>
      <point x="580" y="242" type="line"/>
      <point x="585" y="268" type="line"/>
      <point x="354" y="268" type="line"/>
    </contour>
  </outline>
</glyph>
<glyph name="A.dec_locl.ini" format="2">
  <advance width="775"/>
  <anchor x="381" y="0" name="bottom"/>
  <anchor x="710" y="0" name="cnct"/>
  <anchor x="641" y="0" name="ogonek"/>
  <anchor x="598" y="670" name="top"/>
  <outline>
    <contour>
      <point x="91" y="-14" type="curve" smooth="yes"/>
      <point x="173" y="-14"/>
      <point x="269" y="37"/>
      <point x="615" y="683" type="curve"/>
      <point x="600" y="682" type="line"/>
      <point x="580" y="512"/>
      <point x="567" y="344"/>
      <point x="567" y="123" type="curve" smooth="yes"/>
      <point x="567" y="39"/>
      <point x="573" y="-14"/>
      <point x="628" y="-14" type="curve" smooth="yes"/>
      <point x="648" y="-14"/>
      <point x="657" y="14"/>
      <point x="637" y="14" type="curve" smooth="yes"/>
      <point x="595" y="14"/>
      <point x="597" y="62"/>
      <point x="597" y="155" type="curve" smooth="yes"/>
      <point x="597" y="349"/>
      <point x="610" y="521"/>
      <point x="631" y="694" type="curve" smooth="yes"/>
      <point x="633" y="706"/>
      <point x="627" y="712"/>
      <point x="615" y="712" type="curve" smooth="yes"/>
      <point x="603" y="712"/>
      <point x="596" y="705"/>
      <point x="590" y="694" type="curve" smooth="yes"/>
      <point x="250" y="69"/>
      <point x="158" y="16"/>
      <point x="92" y="16" type="curve" smooth="yes"/>
      <point x="64" y="16"/>
      <point x="44" y="32"/>
      <point x="32" y="46" type="curve" smooth="yes"/>
      <point x="27" y="51"/>
      <point x="21" y="54"/>
      <point x="12" y="46" type="curve" smooth="yes"/>
      <point x="2" y="37"/>
      <point x="4" y="31"/>
      <point x="9" y="25" type="curve" smooth="yes"/>
      <point x="25" y="7"/>
      <point x="52" y="-14"/>
    </contour>
    <contour>
      <point x="349" y="242" type="line"/>
      <point x="580" y="242" type="line"/>
      <point x="585" y="268" type="line"/>
      <point x="354" y="268" type="line"/>
    </contour>
  </outline>
</glyph>
<glyph name="AE.cur" format="2">
  <advance width="1287"/>
  <anchor x="909" y="838" name="top"/>
  <outline>
    <contour>
      <point x="101" y="-17" type="curve" smooth="yes"/>
      <point x="208" y="-17"/>
      <point x="285" y="98"/>
      <point x="805" y="854" type="curve"/>
      <point x="786" y="856" type="line"/>
      <point x="739" y="658"/>
      <point x="699" y="433"/>
      <point x="683" y="211" type="curve" smooth="yes"/>
      <point x="681" y="195"/>
      <point x="684" y="190"/>
      <point x="699" y="189" type="curve" smooth="yes"/>
      <point x="714" y="189"/>
      <point x="719" y="194"/>
      <point x="720" y="209" type="curve" smooth="yes"/>
      <point x="739" y="431"/>
      <point x="778" y="665"/>
      <point x="826" y="868" type="curve" smooth="yes"/>
      <point x="830" y="883"/>
      <point x="821" y="890"/>
      <point x="806" y="890" type="curve" smooth="yes"/>
      <point x="791" y="890"/>
      <point x="784" y="883"/>
      <point x="774" y="869" type="curve" smooth="yes"/>
      <point x="263" y="135"/>
      <point x="183" y="20"/>
      <point x="103" y="20" type="curve" smooth="yes"/>
      <point x="76" y="20"/>
      <point x="55" y="35"/>
      <point x="39" y="54" type="curve" smooth="yes"/>
      <point x="33" y="60"/>
      <point x="25" y="64"/>
      <point x="14" y="54" type="curve" smooth="yes"/>
      <point x="1" y="43"/>
      <point x="4" y="35"/>
      <point x="10" y="28" type="curve" smooth="yes"/>
      <point x="30" y="4"/>
      <point x="61" y="-17"/>
    </contour>
    <contour>
      <point x="394" y="286" type="line"/>
      <point x="710" y="286" type="line"/>
      <point x="715" y="321" type="line"/>
      <point x="418" y="321" type="line"/>
    </contour>
    <contour>
      <point x="890" y="-19" type="curve" smooth="yes"/>
      <point x="1015" y="-19"/>
      <point x="1125" y="45"/>
      <point x="1210" y="163" type="curve" smooth="yes"/>
      <point x="1220" y="176"/>
      <point x="1220" y="183"/>
      <point x="1210" y="189" type="curve" smooth="yes"/>
      <point x="1200" y="196"/>
      <point x="1190" y="195"/>
      <point x="1183" y="184" type="curve" smooth="yes"/>
      <point x="1103" y="76"/>
      <point x="998" y="19"/>
      <point x="895" y="19" type="curve" smooth="yes"/>
      <point x="770" y="19"/>
      <point x="723" y="106"/>
      <point x="723" y="200" type="curve" smooth="yes"/>
      <point x="723" y="369"/>
      <point x="881" y="441"/>
      <point x="1065" y="441" type="curve" smooth="yes"/>
      <point x="1128" y="441" type="line" smooth="yes"/>
      <point x="1136" y="441"/>
      <point x="1144" y="448"/>
      <point x="1146" y="458" type="curve" smooth="yes"/>
      <point x="1149" y="470"/>
      <point x="1145" y="476"/>
      <point x="1134" y="476" type="curve" smooth="yes"/>
      <point x="1071" y="476" type="line" smooth="yes"/>
      <point x="975" y="476"/>
      <point x="901" y="529"/>
      <point x="901" y="641" type="curve" smooth="yes"/>
      <point x="901" y="756"/>
      <point x="985" y="853"/>
      <point x="1110" y="853" type="curve" smooth="yes"/>
      <point x="1188" y="853"/>
      <point x="1253" y="819"/>
      <point x="1288" y="768" type="curve" smooth="yes"/>
      <point x="1294" y="758"/>
      <point x="1303" y="755"/>
      <point x="1314" y="763" type="curve" smooth="yes"/>
      <point x="1324" y="769"/>
      <point x="1325" y="779"/>
      <point x="1318" y="791" type="curve" smooth="yes"/>
      <point x="1279" y="851"/>
      <point x="1203" y="890"/>
      <point x="1116" y="890" type="curve" smooth="yes"/>
      <point x="964" y="890"/>
      <point x="860" y="778"/>
      <point x="860" y="639" type="curve" smooth="yes"/>
      <point x="860" y="543"/>
      <point x="913" y="486"/>
      <point x="981" y="464" type="curve"/>
      <point x="793" y="444"/>
      <point x="681" y="361"/>
      <point x="681" y="198" type="curve" smooth="yes"/>
      <point x="681" y="84"/>
      <point x="744" y="-19"/>
    </contour>
  </outline>
</glyph>
<glyph name="AE.cur.locl" format="2">
  <advance width="960"/>
  <anchor x="679" y="670" name="top"/>
  <outline>
    <contour>
      <point x="39" y="-14" type="curve" smooth="yes"/>
      <point x="121" y="-14"/>
      <point x="193" y="67"/>
      <point x="664" y="671" type="curve"/>
      <point x="681" y="671" type="line"/>
      <point x="690" y="700" type="line"/>
      <point x="672" y="700" type="line"/>
      <point x="656" y="700"/>
      <point x="647" y="693"/>
      <point x="639" y="682" type="curve" smooth="yes"/>
      <point x="173" y="93"/>
      <point x="104" y="16"/>
      <point x="40" y="16" type="curve" smooth="yes"/>
      <point x="15" y="16"/>
      <point x="-1" y="30"/>
      <point x="-16" y="47" type="curve" smooth="yes"/>
      <point x="-20" y="52"/>
      <point x="-27" y="55"/>
      <point x="-36" y="47" type="curve" smooth="yes"/>
      <point x="-46" y="38"/>
      <point x="-44" y="32"/>
      <point x="-39" y="26" type="curve" smooth="yes"/>
      <point x="-22" y="6"/>
      <point x="2" y="-14"/>
    </contour>
    <contour>
      <point x="570" y="336" type="line"/>
      <point x="579" y="364" type="line"/>
      <point x="401" y="364" type="line"/>
      <point x="382" y="336" type="line"/>
    </contour>
    <contour>
      <point x="702" y="0" type="line" smooth="yes"/>
      <point x="795" y="0"/>
      <point x="859" y="52"/>
      <point x="923" y="156" type="curve" smooth="yes"/>
      <point x="928" y="163"/>
      <point x="926" y="171"/>
      <point x="919" y="176" type="curve" smooth="yes"/>
      <point x="908" y="183"/>
      <point x="902" y="179"/>
      <point x="897" y="171" type="curve" smooth="yes"/>
      <point x="831" y="62"/>
      <point x="773" y="28"/>
      <point x="709" y="28" type="curve" smooth="yes"/>
      <point x="485" y="28" type="line"/>
      <point x="586" y="336" type="line"/>
      <point x="767" y="336" type="line" smooth="yes"/>
      <point x="772" y="336"/>
      <point x="777" y="340"/>
      <point x="781" y="350" type="curve" smooth="yes"/>
      <point x="784" y="360"/>
      <point x="781" y="364"/>
      <point x="776" y="364" type="curve" smooth="yes"/>
      <point x="595" y="364" type="line"/>
      <point x="694" y="672" type="line"/>
      <point x="943" y="672" type="line" smooth="yes"/>
      <point x="948" y="672"/>
      <point x="953" y="676"/>
      <point x="956" y="686" type="curve" smooth="yes"/>
      <point x="960" y="696"/>
      <point x="957" y="700"/>
      <point x="952" y="700" type="curve" smooth="yes"/>
      <point x="687" y="700" type="line" smooth="yes"/>
      <point x="676" y="700"/>
      <point x="672" y="697"/>
      <point x="669" y="688" type="curve" smooth="yes"/>
      <point x="449" y="12" type="line" smooth="yes"/>
      <point x="446" y="3"/>
      <point x="450" y="0"/>
      <point x="461" y="0" type="curve" smooth="yes"/>
    </contour>
  </outline>
</glyph>
<glyph name="AE.cur.locl.ini" format="2">
  <advance width="1100"/>
  <anchor x="849" y="838" name="top"/>
  <outline>
    <contour>
      <point x="49" y="-17" type="curve" smooth="yes"/>
      <point x="151" y="-17"/>
      <point x="241" y="84"/>
      <point x="830" y="839" type="curve"/>
      <point x="851" y="839" type="line"/>
      <point x="863" y="875" type="line"/>
      <point x="840" y="875" type="line"/>
      <point x="820" y="875"/>
      <point x="809" y="866"/>
      <point x="799" y="853" type="curve" smooth="yes"/>
      <point x="216" y="116"/>
      <point x="130" y="20"/>
      <point x="50" y="20" type="curve" smooth="yes"/>
      <point x="19" y="20"/>
      <point x="-1" y="38"/>
      <point x="-20" y="59" type="curve" smooth="yes"/>
      <point x="-25" y="65"/>
      <point x="-34" y="69"/>
      <point x="-45" y="59" type="curve" smooth="yes"/>
      <point x="-57" y="48"/>
      <point x="-55" y="40"/>
      <point x="-49" y="33" type="curve" smooth="yes"/>
      <point x="-27" y="8"/>
      <point x="3" y="-17"/>
    </contour>
    <contour>
      <point x="713" y="420" type="line"/>
      <point x="724" y="455" type="line"/>
      <point x="501" y="455" type="line"/>
      <point x="478" y="420" type="line"/>
    </contour>
    <contour>
      <point x="916" y="-17" type="line" smooth="yes"/>
      <point x="936" y="-17"/>
      <point x="948" y="18"/>
      <point x="928" y="18" type="curve" smooth="yes"/>
      <point x="600" y="18" type="line"/>
      <point x="733" y="420" type="line"/>
      <point x="959" y="420" type="line" smooth="yes"/>
      <point x="965" y="420"/>
      <point x="971" y="425"/>
      <point x="976" y="438" type="curve" smooth="yes"/>
      <point x="980" y="450"/>
      <point x="976" y="455"/>
      <point x="970" y="455" type="curve" smooth="yes"/>
      <point x="744" y="455" type="line"/>
      <point x="868" y="840" type="line"/>
      <point x="1179" y="840" type="line" smooth="yes"/>
      <point x="1185" y="840"/>
      <point x="1191" y="845"/>
      <point x="1195" y="858" type="curve" smooth="yes"/>
      <point x="1200" y="870"/>
      <point x="1196" y="875"/>
      <point x="1190" y="875" type="curve" smooth="yes"/>
      <point x="859" y="875" type="line" smooth="yes"/>
      <point x="845" y="875"/>
      <point x="840" y="871"/>
      <point x="836" y="860" type="curve" smooth="yes"/>
      <point x="555" y="-2" type="line" smooth="yes"/>
      <point x="551" y="-13"/>
      <point x="557" y="-17"/>
      <point x="570" y="-17" type="curve" smooth="yes"/>
    </contour>
  </outline>
</glyph>
<glyph name="B.cur" format="2">
  <advance width="717"/>
  <anchor x="382" y="0" name="bottom"/>
  <anchor x="243" y="206" name="center"/>
  <anchor x="531" y="670" name="top"/>
  <outline>
    <contour>
      <point x="397" y="-10" type="curve" smooth="yes"/>
      <point x="547" y="-10"/>
      <point x="664" y="100"/>
      <point x="664" y="240" type="curve" smooth="yes"/>
      <point x="664" y="315"/>
      <point x="610" y="368"/>
      <point x="524" y="382" type="curve"/>
      <point x="525" y="384" type="line"/>
      <point x="631" y="403"/>
      <point x="723" y="464"/>
      <point x="723" y="562" type="curve" smooth="yes"/>
      <point x="723" y="666"/>
      <point x="633" y="712"/>
      <point x="507" y="712" type="curve"/>
      <point x="386" y="712"/>
      <point x="294" y="684"/>
      <point x="197" y="644" type="curve" smooth="yes"/>
      <point x="185" y="639"/>
      <point x="183" y="634"/>
      <point x="187" y="624" type="curve" smooth="yes"/>
      <point x="191" y="613"/>
      <point x="197" y="612"/>
      <point x="208" y="617" type="curve" smooth="yes"/>
      <point x="303" y="658"/>
      <point x="390" y="683"/>
      <point x="507" y="683" type="curve" smooth="yes"/>
      <point x="611" y="683"/>
      <point x="690" y="647"/>
      <point x="690" y="560" type="curve" smooth="yes"/>
      <point x="690" y="469"/>
      <point x="601" y="416"/>
      <point x="489" y="398" type="curve"/>
      <point x="480" y="402"/>
      <point x="467" y="404"/>
      <point x="451" y="404" type="curve"/>
      <point x="428" y="403"/>
      <point x="410" y="392"/>
      <point x="405" y="376" type="curve" smooth="yes"/>
      <point x="401" y="362"/>
      <point x="411" y="354"/>
      <point x="430" y="354" type="curve" smooth="yes"/>
      <point x="444" y="354"/>
      <point x="463" y="359"/>
      <point x="481" y="366" type="curve"/>
      <point x="574" y="358"/>
      <point x="631" y="309"/>
      <point x="631" y="237" type="curve" smooth="yes"/>
      <point x="631" y="117"/>
      <point x="528" y="19"/>
      <point x="399" y="19" type="curve" smooth="yes"/>
      <point x="348" y="19"/>
      <point x="307" y="40"/>
      <point x="291" y="74" type="curve" smooth="yes"/>
      <point x="286" y="84"/>
      <point x="280" y="86"/>
      <point x="269" y="79" type="curve" smooth="yes"/>
      <point x="260" y="73"/>
      <point x="259" y="68"/>
      <point x="264" y="56" type="curve" smooth="yes"/>
      <point x="281" y="17"/>
      <point x="336" y="-10"/>
    </contour>
    <contour>
      <point x="115" y="-14" type="curve" smooth="yes"/>
      <point x="168" y="-14"/>
      <point x="200" y="23"/>
      <point x="232" y="121" type="curve" smooth="yes"/>
      <point x="389" y="597" type="line" smooth="yes"/>
      <point x="392" y="605"/>
      <point x="388" y="609"/>
      <point x="377" y="609" type="curve" smooth="yes"/>
      <point x="365" y="609"/>
      <point x="361" y="606"/>
      <point x="358" y="597" type="curve" smooth="yes"/>
      <point x="205" y="132" type="line" smooth="yes"/>
      <point x="177" y="47"/>
      <point x="154" y="15"/>
      <point x="118" y="15" type="curve" smooth="yes"/>
      <point x="80" y="15"/>
      <point x="61" y="37"/>
      <point x="37" y="108" type="curve" smooth="yes"/>
      <point x="35" y="115"/>
      <point x="34" y="120"/>
      <point x="21" y="117" type="curve" smooth="yes"/>
      <point x="11" y="115"/>
      <point x="8" y="109"/>
      <point x="10" y="101" type="curve" smooth="yes"/>
      <point x="33" y="20"/>
      <point x="65" y="-14"/>
    </contour>
  </outline>
</glyph>
